G04*
G04 #@! TF.GenerationSoftware,Altium Limited,Altium Designer,23.8.1 (32)*
G04*
G04 Layer_Color=8388736*
%FSLAX25Y25*%
%MOIN*%
G70*
G04*
G04 #@! TF.SameCoordinates,F96B85ED-F025-470D-A382-F87F92A237BF*
G04*
G04*
G04 #@! TF.FilePolarity,Negative*
G04*
G01*
G75*
G04:AMPARAMS|DCode=22|XSize=47.37mil|YSize=63.91mil|CornerRadius=8.92mil|HoleSize=0mil|Usage=FLASHONLY|Rotation=270.000|XOffset=0mil|YOffset=0mil|HoleType=Round|Shape=RoundedRectangle|*
%AMROUNDEDRECTD22*
21,1,0.04737,0.04606,0,0,270.0*
21,1,0.02953,0.06391,0,0,270.0*
1,1,0.01784,-0.02303,-0.01476*
1,1,0.01784,-0.02303,0.01476*
1,1,0.01784,0.02303,0.01476*
1,1,0.01784,0.02303,-0.01476*
%
%ADD22ROUNDEDRECTD22*%
G04:AMPARAMS|DCode=23|XSize=85.56mil|YSize=31.62mil|CornerRadius=6.95mil|HoleSize=0mil|Usage=FLASHONLY|Rotation=90.000|XOffset=0mil|YOffset=0mil|HoleType=Round|Shape=RoundedRectangle|*
%AMROUNDEDRECTD23*
21,1,0.08556,0.01772,0,0,90.0*
21,1,0.07165,0.03162,0,0,90.0*
1,1,0.01391,0.00886,0.03583*
1,1,0.01391,0.00886,-0.03583*
1,1,0.01391,-0.00886,-0.03583*
1,1,0.01391,-0.00886,0.03583*
%
%ADD23ROUNDEDRECTD23*%
G04:AMPARAMS|DCode=24|XSize=47.37mil|YSize=63.91mil|CornerRadius=8.92mil|HoleSize=0mil|Usage=FLASHONLY|Rotation=0.000|XOffset=0mil|YOffset=0mil|HoleType=Round|Shape=RoundedRectangle|*
%AMROUNDEDRECTD24*
21,1,0.04737,0.04606,0,0,0.0*
21,1,0.02953,0.06391,0,0,0.0*
1,1,0.01784,0.01476,-0.02303*
1,1,0.01784,-0.01476,-0.02303*
1,1,0.01784,-0.01476,0.02303*
1,1,0.01784,0.01476,0.02303*
%
%ADD24ROUNDEDRECTD24*%
%ADD25R,0.06509X0.05131*%
%ADD26R,0.05131X0.06509*%
%ADD27R,0.10642X0.07099*%
%ADD28R,0.07099X0.10642*%
%ADD29C,0.09068*%
%ADD30R,0.09068X0.09068*%
%ADD31R,0.09068X0.09068*%
%ADD32C,0.18517*%
%ADD33R,0.05524X0.05524*%
%ADD34C,0.05524*%
%ADD35R,0.05524X0.05524*%
%ADD36C,0.05363*%
%ADD37R,0.05363X0.05363*%
%ADD38C,0.08950*%
%ADD39R,0.08950X0.08950*%
%ADD40R,0.07060X0.07060*%
%ADD41C,0.07060*%
%ADD42C,0.08359*%
%ADD43R,0.08359X0.08359*%
%ADD44C,0.10642*%
%ADD45C,0.06883*%
D22*
X412000Y245181D02*
D03*
Y237819D02*
D03*
X180500Y206181D02*
D03*
Y198819D02*
D03*
X168500Y216319D02*
D03*
Y223681D02*
D03*
X224000Y378319D02*
D03*
Y385681D02*
D03*
X115000Y378319D02*
D03*
Y385681D02*
D03*
X117000Y338681D02*
D03*
Y331319D02*
D03*
Y317638D02*
D03*
Y325000D02*
D03*
X253000Y318319D02*
D03*
Y325681D02*
D03*
Y339681D02*
D03*
Y332319D02*
D03*
D23*
X389000Y242488D02*
D03*
X394000D02*
D03*
X399000D02*
D03*
X404000D02*
D03*
Y223000D02*
D03*
X399000D02*
D03*
X394000D02*
D03*
X389000D02*
D03*
X204500Y203756D02*
D03*
X199500D02*
D03*
X194500D02*
D03*
X189500D02*
D03*
Y223244D02*
D03*
X194500D02*
D03*
X199500D02*
D03*
X204500D02*
D03*
D24*
X277819Y395000D02*
D03*
X285181D02*
D03*
X277819Y387000D02*
D03*
X285181D02*
D03*
X164819Y395000D02*
D03*
X172181D02*
D03*
X164819Y387000D02*
D03*
X172181D02*
D03*
X456681Y258000D02*
D03*
X449319D02*
D03*
D25*
X177500Y216457D02*
D03*
Y223543D02*
D03*
D26*
X456543Y249500D02*
D03*
X449457D02*
D03*
D27*
X146890Y423500D02*
D03*
X133110D02*
D03*
X146890Y443500D02*
D03*
X133110D02*
D03*
X256390Y423500D02*
D03*
X242610D02*
D03*
X256390Y443500D02*
D03*
X242610D02*
D03*
D28*
X220000Y202110D02*
D03*
Y215890D02*
D03*
X388000Y260000D02*
D03*
Y273780D02*
D03*
D29*
X304000Y518685D02*
D03*
X228815Y474000D02*
D03*
D30*
X304000Y499000D02*
D03*
D31*
X248500Y474000D02*
D03*
D32*
X291000Y464000D02*
D03*
X119000Y513500D02*
D03*
X370500Y252000D02*
D03*
X147122Y179500D02*
D03*
X468500Y513500D02*
D03*
X191500Y379000D02*
D03*
X147122Y223000D02*
D03*
X123500D02*
D03*
Y179500D02*
D03*
X468122D02*
D03*
Y223000D02*
D03*
X444500D02*
D03*
Y179500D02*
D03*
D33*
X343500Y212185D02*
D03*
X285000D02*
D03*
D34*
X343500Y192500D02*
D03*
X285000D02*
D03*
X204185Y263000D02*
D03*
X146685D02*
D03*
D35*
X184500D02*
D03*
X127000D02*
D03*
D36*
X265374Y407000D02*
D03*
Y397000D02*
D03*
Y387000D02*
D03*
Y377000D02*
D03*
X234626D02*
D03*
Y387000D02*
D03*
Y397000D02*
D03*
X155374Y407000D02*
D03*
Y397000D02*
D03*
Y387000D02*
D03*
Y377000D02*
D03*
X124626D02*
D03*
Y387000D02*
D03*
Y397000D02*
D03*
D37*
X234626Y407000D02*
D03*
X124626D02*
D03*
D38*
X211500Y334744D02*
D03*
Y324744D02*
D03*
D39*
Y314744D02*
D03*
D40*
X135000Y297500D02*
D03*
X237000D02*
D03*
D41*
X135000Y357500D02*
D03*
X237000D02*
D03*
D42*
X160618Y315000D02*
D03*
Y325000D02*
D03*
D43*
Y335000D02*
D03*
D44*
X371000Y314500D02*
D03*
X331630D02*
D03*
X388000Y485870D02*
D03*
Y446500D02*
D03*
X371000Y397500D02*
D03*
X331630D02*
D03*
X441500D02*
D03*
X402130D02*
D03*
X441500Y314500D02*
D03*
X402130D02*
D03*
D45*
X201000Y502000D02*
D03*
Y492000D02*
D03*
X191000D02*
D03*
Y502000D02*
D03*
X176496D02*
D03*
Y492000D02*
D03*
X166496D02*
D03*
Y502000D02*
D03*
X150748D02*
D03*
Y492000D02*
D03*
X140748D02*
D03*
Y502000D02*
D03*
M02*
