G04*
G04 #@! TF.GenerationSoftware,Altium Limited,Altium Designer,23.8.1 (32)*
G04*
G04 Layer_Color=16711935*
%FSLAX25Y25*%
%MOIN*%
G70*
G04*
G04 #@! TF.SameCoordinates,F96B85ED-F025-470D-A382-F87F92A237BF*
G04*
G04*
G04 #@! TF.FilePolarity,Positive*
G04*
G01*
G75*
%ADD46C,0.03937*%
D46*
X487265Y528454D02*
X487224Y529429D01*
X487104Y530398D01*
X486903Y531353D01*
X486625Y532289D01*
X486270Y533198D01*
X485841Y534075D01*
X485341Y534914D01*
X484774Y535708D01*
X484143Y536453D01*
X483453Y537143D01*
X482708Y537774D01*
X481914Y538341D01*
X481075Y538841D01*
X480198Y539270D01*
X479289Y539625D01*
X478353Y539903D01*
X477398Y540104D01*
X476429Y540224D01*
X475454Y540265D01*
Y150500D02*
X476429Y150540D01*
X477398Y150661D01*
X478353Y150861D01*
X479289Y151140D01*
X480198Y151495D01*
X481075Y151924D01*
X481914Y152423D01*
X482708Y152990D01*
X483453Y153621D01*
X484143Y154312D01*
X484774Y155057D01*
X485341Y155851D01*
X485841Y156690D01*
X486270Y157567D01*
X486625Y158476D01*
X486903Y159412D01*
X487104Y160367D01*
X487224Y161336D01*
X487265Y162311D01*
X109311Y540265D02*
X108336Y540224D01*
X107367Y540104D01*
X106412Y539903D01*
X105476Y539625D01*
X104567Y539270D01*
X103690Y538841D01*
X102851Y538341D01*
X102057Y537774D01*
X101312Y537143D01*
X100621Y536453D01*
X99990Y535708D01*
X99423Y534914D01*
X98923Y534075D01*
X98495Y533198D01*
X98140Y532289D01*
X97861Y531353D01*
X97661Y530398D01*
X97540Y529429D01*
X97500Y528454D01*
Y162311D02*
X97540Y161336D01*
X97661Y160367D01*
X97861Y159412D01*
X98140Y158476D01*
X98495Y157567D01*
X98923Y156690D01*
X99423Y155851D01*
X99990Y155057D01*
X100621Y154312D01*
X101312Y153621D01*
X102057Y152990D01*
X102851Y152423D01*
X103690Y151924D01*
X104567Y151495D01*
X105476Y151140D01*
X106412Y150861D01*
X107367Y150661D01*
X108336Y150540D01*
X109311Y150500D01*
X475454D01*
X109311Y540265D02*
X475454D01*
X487265Y162311D02*
Y528454D01*
X97500Y162311D02*
Y528454D01*
M02*
