G04*
G04 #@! TF.GenerationSoftware,Altium Limited,Altium Designer,23.8.1 (32)*
G04*
G04 Layer_Physical_Order=2*
G04 Layer_Color=16711680*
%FSLAX25Y25*%
%MOIN*%
G70*
G04*
G04 #@! TF.SameCoordinates,F96B85ED-F025-470D-A382-F87F92A237BF*
G04*
G04*
G04 #@! TF.FilePolarity,Positive*
G04*
G01*
G75*
%ADD11C,0.01968*%
%ADD46C,0.03937*%
%ADD48C,0.19685*%
%ADD53C,0.08268*%
%ADD54R,0.08268X0.08268*%
%ADD55R,0.08268X0.08268*%
%ADD56C,0.17717*%
%ADD57R,0.04724X0.04724*%
%ADD58C,0.04724*%
%ADD59R,0.04724X0.04724*%
%ADD60C,0.04563*%
%ADD61R,0.04563X0.04563*%
%ADD62C,0.08150*%
%ADD63R,0.08150X0.08150*%
%ADD64R,0.06260X0.06260*%
%ADD65C,0.06260*%
%ADD66C,0.07559*%
%ADD67R,0.07559X0.07559*%
%ADD68C,0.09843*%
%ADD69C,0.06083*%
%ADD70C,0.07874*%
%ADD71C,0.05000*%
%ADD72C,0.01968*%
G36*
X477219Y537328D02*
X478916Y536813D01*
X480481Y535977D01*
X481852Y534852D01*
X482977Y533481D01*
X483813Y531916D01*
X484328Y530219D01*
X484495Y528529D01*
X484485Y528454D01*
Y162311D01*
X484495Y162236D01*
X484328Y160546D01*
X483813Y158848D01*
X482977Y157284D01*
X481852Y155913D01*
X480481Y154787D01*
X478916Y153951D01*
X477219Y153436D01*
X475529Y153270D01*
X475454Y153280D01*
X109311D01*
X109236Y153270D01*
X107546Y153436D01*
X105848Y153951D01*
X104284Y154787D01*
X102913Y155913D01*
X101787Y157284D01*
X100951Y158848D01*
X100436Y160546D01*
X100270Y162235D01*
X100280Y162311D01*
Y528454D01*
X100270Y528529D01*
X100436Y530219D01*
X100951Y531916D01*
X101787Y533481D01*
X102913Y534852D01*
X104284Y535977D01*
X105848Y536813D01*
X107546Y537328D01*
X108824Y537454D01*
X109311Y537485D01*
X109311Y537485D01*
X475454D01*
X475529Y537495D01*
X477219Y537328D01*
D02*
G37*
%LPC*%
G36*
X469450Y523146D02*
X467550D01*
X465687Y522775D01*
X463931Y522048D01*
X462351Y520992D01*
X461008Y519649D01*
X459952Y518069D01*
X459225Y516314D01*
X458854Y514450D01*
Y512550D01*
X459225Y510686D01*
X459952Y508931D01*
X461008Y507351D01*
X462351Y506008D01*
X463931Y504952D01*
X465687Y504225D01*
X467550Y503854D01*
X469450D01*
X471313Y504225D01*
X473069Y504952D01*
X474649Y506008D01*
X475992Y507351D01*
X477048Y508931D01*
X477775Y510686D01*
X478146Y512550D01*
Y514450D01*
X477775Y516314D01*
X477048Y518069D01*
X475992Y519649D01*
X474649Y520992D01*
X473069Y522048D01*
X471313Y522775D01*
X469450Y523146D01*
D02*
G37*
G36*
X119950D02*
X118050D01*
X116186Y522775D01*
X114431Y522048D01*
X112851Y520992D01*
X111508Y519649D01*
X110452Y518069D01*
X109725Y516314D01*
X109354Y514450D01*
Y512550D01*
X109725Y510686D01*
X110452Y508931D01*
X111508Y507351D01*
X112851Y506008D01*
X114431Y504952D01*
X116186Y504225D01*
X118050Y503854D01*
X119950D01*
X121813Y504225D01*
X123569Y504952D01*
X125149Y506008D01*
X126492Y507351D01*
X127548Y508931D01*
X128275Y510686D01*
X128646Y512550D01*
Y514450D01*
X128275Y516314D01*
X127548Y518069D01*
X126492Y519649D01*
X125149Y520992D01*
X123569Y522048D01*
X121813Y522775D01*
X119950Y523146D01*
D02*
G37*
G36*
X145429Y514851D02*
X137071D01*
X136352Y514756D01*
X135681Y514478D01*
X135106Y514037D01*
X114534Y493466D01*
X114523Y493477D01*
X113219Y491950D01*
X112170Y490238D01*
X111402Y488383D01*
X110933Y486431D01*
X110776Y484429D01*
X110791D01*
X110791Y484429D01*
Y399929D01*
X110886Y399210D01*
X111164Y398539D01*
X111606Y397964D01*
X111594Y397952D01*
X113121Y396648D01*
X114833Y395599D01*
X116688Y394831D01*
X118640Y394362D01*
X120642Y394205D01*
X120642Y394220D01*
X123303D01*
X123442Y394140D01*
X124222Y393931D01*
X125030D01*
X125811Y394140D01*
X126394Y394477D01*
X126894Y394285D01*
Y389715D01*
X126394Y389523D01*
X125811Y389860D01*
X125030Y390069D01*
X124222D01*
X123442Y389860D01*
X122742Y389456D01*
X122170Y388884D01*
X121766Y388184D01*
X121557Y387404D01*
Y386596D01*
X121766Y385816D01*
X122170Y385116D01*
X122742Y384544D01*
X123173Y384295D01*
X123179Y384181D01*
X123066Y383780D01*
X122509Y383669D01*
X121923Y383277D01*
X119223Y380577D01*
X118831Y379991D01*
X118694Y379300D01*
Y257500D01*
X118831Y256809D01*
X119223Y256223D01*
X134385Y241061D01*
X134970Y240669D01*
X135662Y240532D01*
X155514D01*
X198776Y197269D01*
X198713Y197033D01*
Y196167D01*
X198937Y195331D01*
X199369Y194581D01*
X199981Y193969D01*
X200731Y193537D01*
X201567Y193313D01*
X202433D01*
X203269Y193537D01*
X204018Y193969D01*
X204631Y194581D01*
X205063Y195331D01*
X205287Y196167D01*
Y197033D01*
X205063Y197869D01*
X204631Y198618D01*
X204018Y199231D01*
X203269Y199663D01*
X202433Y199887D01*
X201567D01*
X201331Y199824D01*
X157539Y243616D01*
X156953Y244007D01*
X156262Y244145D01*
X136410D01*
X122306Y258248D01*
Y378552D01*
X123948Y380194D01*
X126700D01*
X127391Y380331D01*
X127977Y380723D01*
X129977Y382723D01*
X130369Y383309D01*
X130506Y384000D01*
Y429900D01*
X130369Y430591D01*
X129977Y431177D01*
X126206Y434948D01*
Y493362D01*
X136987Y504143D01*
X137387Y503836D01*
X137180Y503478D01*
X136919Y502504D01*
Y502102D01*
X129034Y494217D01*
X128593Y493642D01*
X128315Y492971D01*
X128220Y492252D01*
Y477110D01*
X128315Y476390D01*
X128593Y475720D01*
X129034Y475144D01*
X205862Y398317D01*
X206204Y397952D01*
X206204Y397952D01*
X207731Y396648D01*
X209443Y395599D01*
X211298Y394831D01*
X213250Y394362D01*
X215252Y394205D01*
X215252Y394220D01*
X233303D01*
X233441Y394140D01*
X234222Y393931D01*
X235030D01*
X235811Y394140D01*
X236510Y394544D01*
X237082Y395116D01*
X237486Y395815D01*
X237695Y396596D01*
Y397404D01*
X237486Y398184D01*
X237082Y398884D01*
X236510Y399456D01*
X235811Y399860D01*
X235030Y400069D01*
X234222D01*
X233441Y399860D01*
X233303Y399780D01*
X215252D01*
X215252Y399780D01*
Y399780D01*
X214759Y399820D01*
X213842Y399910D01*
X212486Y400321D01*
X211236Y400989D01*
X210170Y401864D01*
X210146Y401895D01*
X133780Y478261D01*
Y491101D01*
X140850Y498171D01*
X141252D01*
X142226Y498432D01*
X143099Y498936D01*
X143629Y499466D01*
X144129Y499259D01*
Y499200D01*
X144266Y498509D01*
X144658Y497923D01*
X146671Y495910D01*
X147257Y495518D01*
X147948Y495381D01*
X148007D01*
X148214Y494881D01*
X147684Y494351D01*
X147180Y493478D01*
X146919Y492504D01*
Y491496D01*
X147180Y490522D01*
X147684Y489649D01*
X148397Y488936D01*
X149270Y488432D01*
X150244Y488171D01*
X151252D01*
X152226Y488432D01*
X153099Y488936D01*
X153812Y489649D01*
X154316Y490522D01*
X154577Y491496D01*
Y492504D01*
X154316Y493478D01*
X153812Y494351D01*
X153282Y494881D01*
X153489Y495381D01*
X173755D01*
X173962Y494881D01*
X173432Y494351D01*
X172928Y493478D01*
X172667Y492504D01*
Y491496D01*
X172928Y490522D01*
X173432Y489649D01*
X174145Y488936D01*
X175018Y488432D01*
X175992Y488171D01*
X177000D01*
X177974Y488432D01*
X178847Y488936D01*
X179560Y489649D01*
X180064Y490522D01*
X180325Y491496D01*
Y492504D01*
X180417Y492625D01*
X184065D01*
X184294Y492437D01*
Y486400D01*
X184431Y485709D01*
X184823Y485123D01*
X190423Y479523D01*
X191009Y479131D01*
X191700Y478994D01*
X240952D01*
X243579Y476367D01*
Y469079D01*
X253421D01*
Y478921D01*
X246133D01*
X242977Y482077D01*
X242391Y482469D01*
X241700Y482606D01*
X192448D01*
X187906Y487148D01*
Y488972D01*
X188406Y489179D01*
X188649Y488936D01*
X189522Y488432D01*
X190496Y488171D01*
X191504D01*
X192111Y488334D01*
X196023Y484423D01*
X196609Y484031D01*
X197300Y483894D01*
X340300D01*
X340991Y484031D01*
X341577Y484423D01*
X348548Y491394D01*
X385150D01*
X385284Y490894D01*
X384495Y490438D01*
X383432Y489375D01*
X382680Y488073D01*
X382291Y486622D01*
Y485118D01*
X382680Y483667D01*
X383432Y482365D01*
X384495Y481302D01*
X385796Y480550D01*
X387248Y480161D01*
X388752D01*
X390203Y480550D01*
X391505Y481302D01*
X392568Y482365D01*
X393320Y483667D01*
X393709Y485118D01*
Y486622D01*
X393320Y488073D01*
X392568Y489375D01*
X391505Y490438D01*
X390716Y490894D01*
X390850Y491394D01*
X471347D01*
X471469Y491182D01*
X472082Y490569D01*
X472831Y490137D01*
X473667Y489913D01*
X474533D01*
X475369Y490137D01*
X476119Y490569D01*
X476731Y491182D01*
X477163Y491931D01*
X477387Y492767D01*
Y493633D01*
X477163Y494469D01*
X476731Y495219D01*
X476119Y495831D01*
X475369Y496263D01*
X474533Y496487D01*
X473667D01*
X472831Y496263D01*
X472082Y495831D01*
X471469Y495219D01*
X471347Y495006D01*
X347800D01*
X347109Y494869D01*
X346523Y494477D01*
X339552Y487506D01*
X338809D01*
X338711Y487742D01*
X338645Y488006D01*
X339063Y488731D01*
X339287Y489567D01*
Y490433D01*
X339063Y491269D01*
X338631Y492019D01*
X338018Y492631D01*
X337269Y493063D01*
X336433Y493287D01*
X335567D01*
X335331Y493224D01*
X317577Y510977D01*
X316991Y511369D01*
X316300Y511506D01*
X180596D01*
X179905Y511369D01*
X179319Y510977D01*
X175219Y506877D01*
X174827Y506291D01*
X174690Y505600D01*
Y505378D01*
X174145Y505064D01*
X173432Y504351D01*
X172928Y503478D01*
X172667Y502504D01*
Y501496D01*
X172928Y500522D01*
X173432Y499649D01*
X173626Y499455D01*
X173435Y498993D01*
X169557D01*
X169366Y499455D01*
X169560Y499649D01*
X170064Y500522D01*
X170325Y501496D01*
Y502504D01*
X170064Y503478D01*
X169560Y504351D01*
X168847Y505064D01*
X167974Y505568D01*
X167000Y505829D01*
X165992D01*
X165018Y505568D01*
X164145Y505064D01*
X163432Y504351D01*
X162928Y503478D01*
X162667Y502504D01*
Y501496D01*
X162928Y500522D01*
X163432Y499649D01*
X163626Y499455D01*
X163435Y498993D01*
X153809D01*
X153618Y499455D01*
X153812Y499649D01*
X154316Y500522D01*
X154577Y501496D01*
Y502504D01*
X154316Y503478D01*
X153812Y504351D01*
X153514Y504648D01*
Y506765D01*
X153420Y507485D01*
X153142Y508155D01*
X152700Y508731D01*
X147395Y514037D01*
X146819Y514478D01*
X146148Y514756D01*
X145429Y514851D01*
D02*
G37*
G36*
X291950Y473646D02*
X290050D01*
X288187Y473275D01*
X286431Y472548D01*
X284851Y471492D01*
X283508Y470149D01*
X282452Y468569D01*
X281725Y466814D01*
X281354Y464950D01*
Y463050D01*
X281725Y461187D01*
X282452Y459431D01*
X283508Y457851D01*
X284851Y456508D01*
X286431Y455452D01*
X288187Y454725D01*
X290050Y454354D01*
X291950D01*
X293813Y454725D01*
X295569Y455452D01*
X297149Y456508D01*
X298492Y457851D01*
X299548Y459431D01*
X300275Y461187D01*
X300646Y463050D01*
Y464950D01*
X300275Y466814D01*
X299548Y468569D01*
X298492Y470149D01*
X297149Y471492D01*
X295569Y472548D01*
X293813Y473275D01*
X291950Y473646D01*
D02*
G37*
G36*
X388752Y452209D02*
X387248D01*
X385796Y451820D01*
X384495Y451068D01*
X383432Y450005D01*
X382680Y448703D01*
X382291Y447252D01*
Y445748D01*
X382680Y444297D01*
X383432Y442995D01*
X384495Y441932D01*
X385796Y441180D01*
X387248Y440791D01*
X388752D01*
X390203Y441180D01*
X391505Y441932D01*
X392568Y442995D01*
X393320Y444297D01*
X393709Y445748D01*
Y447252D01*
X393320Y448703D01*
X392568Y450005D01*
X391505Y451068D01*
X390203Y451820D01*
X388752Y452209D01*
D02*
G37*
G36*
X265778Y410069D02*
X264970D01*
X264189Y409860D01*
X263490Y409456D01*
X262918Y408884D01*
X262514Y408184D01*
X262305Y407404D01*
Y406596D01*
X262514Y405816D01*
X262918Y405116D01*
X263490Y404544D01*
X264189Y404140D01*
X264970Y403931D01*
X265778D01*
X266559Y404140D01*
X267258Y404544D01*
X267830Y405116D01*
X268234Y405816D01*
X268443Y406596D01*
Y407404D01*
X268234Y408184D01*
X267830Y408884D01*
X267258Y409456D01*
X266559Y409860D01*
X265778Y410069D01*
D02*
G37*
G36*
X237695D02*
X231557D01*
Y403931D01*
X237695D01*
Y410069D01*
D02*
G37*
G36*
X155778D02*
X154970D01*
X154190Y409860D01*
X153490Y409456D01*
X152918Y408884D01*
X152514Y408184D01*
X152305Y407404D01*
Y406596D01*
X152514Y405816D01*
X152918Y405116D01*
X153490Y404544D01*
X154190Y404140D01*
X154970Y403931D01*
X155778D01*
X156559Y404140D01*
X157258Y404544D01*
X157830Y405116D01*
X158234Y405816D01*
X158443Y406596D01*
Y407404D01*
X158234Y408184D01*
X157830Y408884D01*
X157258Y409456D01*
X156559Y409860D01*
X155778Y410069D01*
D02*
G37*
G36*
X265778Y400069D02*
X264970D01*
X264189Y399860D01*
X263490Y399456D01*
X262918Y398884D01*
X262514Y398184D01*
X262305Y397404D01*
Y396596D01*
X262514Y395815D01*
X262918Y395116D01*
X263490Y394544D01*
X264189Y394140D01*
X264970Y393931D01*
X265778D01*
X266559Y394140D01*
X267258Y394544D01*
X267830Y395116D01*
X268234Y395815D01*
X268443Y396596D01*
Y397404D01*
X268234Y398184D01*
X267830Y398884D01*
X267258Y399456D01*
X266559Y399860D01*
X265778Y400069D01*
D02*
G37*
G36*
X155778D02*
X154970D01*
X154190Y399860D01*
X153490Y399456D01*
X152918Y398884D01*
X152514Y398184D01*
X152305Y397404D01*
Y396596D01*
X152514Y395815D01*
X152918Y395116D01*
X153490Y394544D01*
X154190Y394140D01*
X154970Y393931D01*
X155778D01*
X156559Y394140D01*
X157258Y394544D01*
X157830Y395116D01*
X158234Y395815D01*
X158443Y396596D01*
Y397404D01*
X158234Y398184D01*
X157830Y398884D01*
X157258Y399456D01*
X156559Y399860D01*
X155778Y400069D01*
D02*
G37*
G36*
X442252Y403209D02*
X440748D01*
X439296Y402820D01*
X437995Y402068D01*
X436932Y401005D01*
X436180Y399704D01*
X435791Y398252D01*
Y396748D01*
X436180Y395297D01*
X436932Y393995D01*
X437995Y392932D01*
X439296Y392180D01*
X440748Y391791D01*
X442252D01*
X443704Y392180D01*
X445005Y392932D01*
X446068Y393995D01*
X446820Y395297D01*
X447209Y396748D01*
Y398252D01*
X446820Y399704D01*
X446068Y401005D01*
X445005Y402068D01*
X443704Y402820D01*
X442252Y403209D01*
D02*
G37*
G36*
X402882D02*
X401378D01*
X399926Y402820D01*
X398625Y402068D01*
X397562Y401005D01*
X396810Y399704D01*
X396421Y398252D01*
Y396748D01*
X396810Y395297D01*
X397562Y393995D01*
X398625Y392932D01*
X399926Y392180D01*
X401378Y391791D01*
X402882D01*
X404333Y392180D01*
X405635Y392932D01*
X406698Y393995D01*
X407450Y395297D01*
X407839Y396748D01*
Y398252D01*
X407450Y399704D01*
X406698Y401005D01*
X405635Y402068D01*
X404333Y402820D01*
X402882Y403209D01*
D02*
G37*
G36*
X371752D02*
X370248D01*
X368796Y402820D01*
X367495Y402068D01*
X366432Y401005D01*
X365680Y399704D01*
X365291Y398252D01*
Y396748D01*
X365680Y395297D01*
X366432Y393995D01*
X367495Y392932D01*
X368796Y392180D01*
X370248Y391791D01*
X371752D01*
X373203Y392180D01*
X374505Y392932D01*
X375568Y393995D01*
X376320Y395297D01*
X376709Y396748D01*
Y398252D01*
X376320Y399704D01*
X375568Y401005D01*
X374505Y402068D01*
X373203Y402820D01*
X371752Y403209D01*
D02*
G37*
G36*
X332382D02*
X330878D01*
X329427Y402820D01*
X328125Y402068D01*
X327062Y401005D01*
X326310Y399704D01*
X325921Y398252D01*
Y396748D01*
X326310Y395297D01*
X327062Y393995D01*
X328125Y392932D01*
X329427Y392180D01*
X330878Y391791D01*
X332382D01*
X333834Y392180D01*
X335135Y392932D01*
X336198Y393995D01*
X336950Y395297D01*
X337339Y396748D01*
Y398252D01*
X336950Y399704D01*
X336198Y401005D01*
X335135Y402068D01*
X333834Y402820D01*
X332382Y403209D01*
D02*
G37*
G36*
X265778Y390069D02*
X264970D01*
X264189Y389860D01*
X263490Y389456D01*
X262918Y388884D01*
X262514Y388184D01*
X262305Y387404D01*
Y386596D01*
X262514Y385816D01*
X262918Y385116D01*
X263490Y384544D01*
X264189Y384140D01*
X264970Y383931D01*
X265778D01*
X266559Y384140D01*
X267258Y384544D01*
X267830Y385116D01*
X268234Y385816D01*
X268443Y386596D01*
Y387404D01*
X268234Y388184D01*
X267830Y388884D01*
X267258Y389456D01*
X266559Y389860D01*
X265778Y390069D01*
D02*
G37*
G36*
X235030D02*
X234222D01*
X233441Y389860D01*
X232742Y389456D01*
X232170Y388884D01*
X231766Y388184D01*
X231557Y387404D01*
Y386596D01*
X231766Y385816D01*
X232170Y385116D01*
X232742Y384544D01*
X233441Y384140D01*
X234222Y383931D01*
X235030D01*
X235811Y384140D01*
X236510Y384544D01*
X237082Y385116D01*
X237486Y385816D01*
X237695Y386596D01*
Y387404D01*
X237486Y388184D01*
X237082Y388884D01*
X236510Y389456D01*
X235811Y389860D01*
X235030Y390069D01*
D02*
G37*
G36*
X155778D02*
X154970D01*
X154190Y389860D01*
X153490Y389456D01*
X152918Y388884D01*
X152514Y388184D01*
X152305Y387404D01*
Y386596D01*
X152514Y385816D01*
X152918Y385116D01*
X153490Y384544D01*
X154190Y384140D01*
X154970Y383931D01*
X155778D01*
X156559Y384140D01*
X157258Y384544D01*
X157830Y385116D01*
X158234Y385816D01*
X158443Y386596D01*
Y387404D01*
X158234Y388184D01*
X157830Y388884D01*
X157258Y389456D01*
X156559Y389860D01*
X155778Y390069D01*
D02*
G37*
G36*
X283883Y374169D02*
X283164Y374075D01*
X282494Y373797D01*
X282002Y373420D01*
X208188D01*
X208188Y373420D01*
Y373442D01*
X205843Y373258D01*
X203556Y372709D01*
X201383Y371809D01*
X199378Y370580D01*
X197590Y369053D01*
X197606Y369037D01*
X186463Y357894D01*
X186452Y357906D01*
X185148Y356379D01*
X184099Y354667D01*
X183331Y352812D01*
X182862Y350859D01*
X182705Y348858D01*
X182720Y348858D01*
Y335142D01*
X182705Y335142D01*
X182862Y333140D01*
X183331Y331188D01*
X184099Y329333D01*
X185148Y327621D01*
X186452Y326095D01*
X186463Y326105D01*
X196862Y315707D01*
Y315707D01*
X196850Y315696D01*
X198377Y314392D01*
X200089Y313343D01*
X201944Y312575D01*
X203896Y312106D01*
X205898Y311949D01*
Y311964D01*
X205898Y311964D01*
X206638D01*
Y309882D01*
X216362D01*
Y319606D01*
X213043D01*
X212978Y320106D01*
X213377Y320213D01*
X214486Y320853D01*
X215391Y321759D01*
X216031Y322867D01*
X216362Y324104D01*
Y325384D01*
X216031Y326621D01*
X215391Y327730D01*
X214486Y328635D01*
X213377Y329275D01*
X212140Y329606D01*
X210860D01*
X209623Y329275D01*
X208514Y328635D01*
X207609Y327730D01*
X206969Y326621D01*
X206638Y325384D01*
Y324104D01*
X206969Y322867D01*
X207609Y321759D01*
X208514Y320853D01*
X209623Y320213D01*
X210022Y320106D01*
X209957Y319606D01*
X206638D01*
Y317924D01*
X206138Y317524D01*
X205898Y317524D01*
X205414Y317563D01*
X204488Y317654D01*
X203132Y318066D01*
X201882Y318734D01*
X201162Y319324D01*
X200793Y319638D01*
X200449Y319983D01*
X190743Y329689D01*
X190394Y330037D01*
Y330037D01*
X190080Y330406D01*
X189489Y331126D01*
X188821Y332376D01*
X188410Y333732D01*
X188319Y334658D01*
X188280Y335142D01*
X188280Y335142D01*
X188280Y335142D01*
Y348858D01*
X188280Y348858D01*
X188280D01*
X188319Y349342D01*
X188410Y350268D01*
X188821Y351624D01*
X189489Y352874D01*
X190080Y353594D01*
X190394Y353963D01*
Y353963D01*
X190743Y354311D01*
X201183Y364752D01*
X201537Y365106D01*
X201902Y365430D01*
X202951Y366291D01*
X204581Y367162D01*
X206349Y367699D01*
X208104Y367871D01*
X208188Y367861D01*
X283134D01*
X283853Y367955D01*
X284524Y368233D01*
X285099Y368675D01*
X285849Y369424D01*
X286291Y370000D01*
X286568Y370670D01*
X286663Y371390D01*
X286568Y372109D01*
X286291Y372780D01*
X285849Y373355D01*
X285273Y373797D01*
X284603Y374075D01*
X283883Y374169D01*
D02*
G37*
G36*
X192450Y388646D02*
X190550D01*
X188687Y388275D01*
X186931Y387548D01*
X185351Y386492D01*
X184008Y385149D01*
X182952Y383569D01*
X182225Y381814D01*
X181854Y379950D01*
Y378050D01*
X182225Y376186D01*
X182952Y374431D01*
X184008Y372851D01*
X185351Y371508D01*
X186931Y370452D01*
X188687Y369725D01*
X190550Y369354D01*
X192450D01*
X194314Y369725D01*
X196069Y370452D01*
X197649Y371508D01*
X198992Y372851D01*
X200048Y374431D01*
X200775Y376186D01*
X201146Y378050D01*
Y379950D01*
X200775Y381814D01*
X200048Y383569D01*
X198992Y385149D01*
X197649Y386492D01*
X196069Y387548D01*
X194314Y388275D01*
X192450Y388646D01*
D02*
G37*
G36*
X135516Y361417D02*
X134484D01*
X133488Y361150D01*
X132595Y360635D01*
X131865Y359905D01*
X131350Y359012D01*
X131083Y358016D01*
Y356984D01*
X131350Y355988D01*
X131865Y355095D01*
X132595Y354365D01*
X133488Y353850D01*
X134484Y353583D01*
X135516D01*
X136512Y353850D01*
X137405Y354365D01*
X138135Y355095D01*
X138650Y355988D01*
X138917Y356984D01*
Y358016D01*
X138650Y359012D01*
X138135Y359905D01*
X137405Y360635D01*
X136512Y361150D01*
X135516Y361417D01*
D02*
G37*
G36*
X165185Y339567D02*
X156051D01*
Y330433D01*
X165185D01*
Y339567D01*
D02*
G37*
G36*
X161220Y329567D02*
X160017D01*
X158855Y329256D01*
X157814Y328655D01*
X156964Y327804D01*
X156362Y326763D01*
X156051Y325601D01*
Y324399D01*
X156362Y323237D01*
X156964Y322196D01*
X157814Y321345D01*
X158855Y320744D01*
X160017Y320433D01*
X161220D01*
X162381Y320744D01*
X163422Y321345D01*
X164273Y322196D01*
X164874Y323237D01*
X165185Y324399D01*
Y325601D01*
X164874Y326763D01*
X164273Y327804D01*
X163422Y328655D01*
X162381Y329256D01*
X161220Y329567D01*
D02*
G37*
G36*
Y319567D02*
X160017D01*
X158855Y319256D01*
X157814Y318654D01*
X156964Y317804D01*
X156388Y316806D01*
X152500D01*
X151809Y316669D01*
X151223Y316277D01*
X136363Y301417D01*
X131083D01*
Y293583D01*
X138917D01*
Y298863D01*
X153248Y313194D01*
X156388D01*
X156964Y312196D01*
X157814Y311346D01*
X158855Y310744D01*
X160017Y310433D01*
X161220D01*
X162381Y310744D01*
X163422Y311346D01*
X164273Y312196D01*
X164874Y313237D01*
X165185Y314399D01*
Y315601D01*
X164874Y316763D01*
X164273Y317804D01*
X163422Y318654D01*
X162381Y319256D01*
X161220Y319567D01*
D02*
G37*
G36*
X442252Y320209D02*
X440748D01*
X439296Y319820D01*
X437995Y319068D01*
X436932Y318005D01*
X436180Y316704D01*
X435791Y315252D01*
Y313748D01*
X436180Y312297D01*
X436932Y310995D01*
X437995Y309932D01*
X439296Y309180D01*
X440748Y308791D01*
X442252D01*
X443704Y309180D01*
X445005Y309932D01*
X446068Y310995D01*
X446820Y312297D01*
X447209Y313748D01*
Y315252D01*
X446820Y316704D01*
X446068Y318005D01*
X445005Y319068D01*
X443704Y319820D01*
X442252Y320209D01*
D02*
G37*
G36*
X402882D02*
X401378D01*
X399926Y319820D01*
X398625Y319068D01*
X397562Y318005D01*
X396810Y316704D01*
X396421Y315252D01*
Y313748D01*
X396810Y312297D01*
X397562Y310995D01*
X398625Y309932D01*
X399926Y309180D01*
X401378Y308791D01*
X402882D01*
X404333Y309180D01*
X405635Y309932D01*
X406698Y310995D01*
X407450Y312297D01*
X407839Y313748D01*
Y315252D01*
X407450Y316704D01*
X406698Y318005D01*
X405635Y319068D01*
X404333Y319820D01*
X402882Y320209D01*
D02*
G37*
G36*
X371752D02*
X370248D01*
X368796Y319820D01*
X367495Y319068D01*
X366432Y318005D01*
X365680Y316704D01*
X365291Y315252D01*
Y313748D01*
X365680Y312297D01*
X366432Y310995D01*
X367495Y309932D01*
X368796Y309180D01*
X370248Y308791D01*
X371752D01*
X373203Y309180D01*
X374505Y309932D01*
X375568Y310995D01*
X376320Y312297D01*
X376709Y313748D01*
Y315252D01*
X376320Y316704D01*
X375568Y318005D01*
X374505Y319068D01*
X373203Y319820D01*
X371752Y320209D01*
D02*
G37*
G36*
X332382D02*
X330878D01*
X329427Y319820D01*
X328125Y319068D01*
X327062Y318005D01*
X326310Y316704D01*
X325921Y315252D01*
Y313748D01*
X326310Y312297D01*
X327062Y310995D01*
X328125Y309932D01*
X329427Y309180D01*
X330878Y308791D01*
X332382D01*
X333834Y309180D01*
X335135Y309932D01*
X336198Y310995D01*
X336950Y312297D01*
X337339Y313748D01*
Y315252D01*
X336950Y316704D01*
X336198Y318005D01*
X335135Y319068D01*
X333834Y319820D01*
X332382Y320209D01*
D02*
G37*
G36*
X240917Y301417D02*
X233083D01*
Y293583D01*
X240917D01*
Y301417D01*
D02*
G37*
G36*
X187650Y266150D02*
X181350D01*
Y259850D01*
X187650D01*
Y266150D01*
D02*
G37*
G36*
X130150D02*
X123850D01*
Y259850D01*
X130150D01*
Y266150D01*
D02*
G37*
G36*
X371450Y261646D02*
X369550D01*
X367687Y261275D01*
X365931Y260548D01*
X364351Y259492D01*
X363008Y258149D01*
X361952Y256569D01*
X361225Y254814D01*
X360854Y252950D01*
Y251050D01*
X361225Y249186D01*
X361952Y247431D01*
X363008Y245851D01*
X364351Y244508D01*
X365931Y243452D01*
X367687Y242725D01*
X369550Y242354D01*
X371450D01*
X373313Y242725D01*
X375069Y243452D01*
X376649Y244508D01*
X377992Y245851D01*
X379048Y247431D01*
X379775Y249186D01*
X380146Y251050D01*
Y252950D01*
X379775Y254814D01*
X379048Y256569D01*
X377992Y258149D01*
X376649Y259492D01*
X375069Y260548D01*
X373313Y261275D01*
X371450Y261646D01*
D02*
G37*
G36*
X383033Y245687D02*
X382167D01*
X381331Y245463D01*
X380581Y245031D01*
X379969Y244419D01*
X379537Y243669D01*
X379313Y242833D01*
Y241967D01*
X379376Y241731D01*
X366152Y228506D01*
X251253D01*
X251131Y228718D01*
X250518Y229331D01*
X249769Y229763D01*
X248933Y229987D01*
X248067D01*
X247231Y229763D01*
X246481Y229331D01*
X245869Y228718D01*
X245437Y227969D01*
X245213Y227133D01*
Y226267D01*
X245437Y225431D01*
X245869Y224681D01*
X246481Y224069D01*
X247231Y223637D01*
X248067Y223413D01*
X248933D01*
X249769Y223637D01*
X250518Y224069D01*
X251131Y224681D01*
X251253Y224894D01*
X366900D01*
X367591Y225031D01*
X368177Y225423D01*
X381931Y239176D01*
X382167Y239113D01*
X383033D01*
X383869Y239337D01*
X384618Y239769D01*
X385231Y240382D01*
X385663Y241131D01*
X385887Y241967D01*
Y242833D01*
X385663Y243669D01*
X385231Y244419D01*
X384618Y245031D01*
X383869Y245463D01*
X383033Y245687D01*
D02*
G37*
G36*
X469072Y232646D02*
X467172D01*
X465309Y232275D01*
X463553Y231548D01*
X461973Y230492D01*
X460630Y229149D01*
X459574Y227569D01*
X458847Y225814D01*
X458476Y223950D01*
Y222050D01*
X458847Y220186D01*
X459574Y218431D01*
X460630Y216851D01*
X461973Y215508D01*
X463553Y214452D01*
X465309Y213725D01*
X467172Y213354D01*
X469072D01*
X470935Y213725D01*
X472691Y214452D01*
X474271Y215508D01*
X475614Y216851D01*
X476670Y218431D01*
X477397Y220186D01*
X477768Y222050D01*
Y223950D01*
X477397Y225814D01*
X476670Y227569D01*
X475614Y229149D01*
X474271Y230492D01*
X472691Y231548D01*
X470935Y232275D01*
X469072Y232646D01*
D02*
G37*
G36*
X445450D02*
X443550D01*
X441686Y232275D01*
X439931Y231548D01*
X438351Y230492D01*
X437008Y229149D01*
X435952Y227569D01*
X435225Y225814D01*
X434854Y223950D01*
Y222050D01*
X435225Y220186D01*
X435952Y218431D01*
X437008Y216851D01*
X438351Y215508D01*
X439931Y214452D01*
X441686Y213725D01*
X443550Y213354D01*
X445450D01*
X447313Y213725D01*
X449069Y214452D01*
X450649Y215508D01*
X451992Y216851D01*
X453048Y218431D01*
X453775Y220186D01*
X454146Y222050D01*
Y223950D01*
X453775Y225814D01*
X453048Y227569D01*
X451992Y229149D01*
X450649Y230492D01*
X449069Y231548D01*
X447313Y232275D01*
X445450Y232646D01*
D02*
G37*
G36*
X148072D02*
X146172D01*
X144308Y232275D01*
X142553Y231548D01*
X140973Y230492D01*
X139630Y229149D01*
X138574Y227569D01*
X137847Y225814D01*
X137476Y223950D01*
Y222050D01*
X137847Y220186D01*
X138574Y218431D01*
X139630Y216851D01*
X140973Y215508D01*
X142553Y214452D01*
X144308Y213725D01*
X146172Y213354D01*
X148072D01*
X149935Y213725D01*
X151691Y214452D01*
X153271Y215508D01*
X154614Y216851D01*
X155670Y218431D01*
X156397Y220186D01*
X156768Y222050D01*
Y223950D01*
X156397Y225814D01*
X155670Y227569D01*
X154614Y229149D01*
X153271Y230492D01*
X151691Y231548D01*
X149935Y232275D01*
X148072Y232646D01*
D02*
G37*
G36*
X124450D02*
X122550D01*
X120686Y232275D01*
X118931Y231548D01*
X117351Y230492D01*
X116008Y229149D01*
X114952Y227569D01*
X114225Y225814D01*
X113854Y223950D01*
Y222050D01*
X114225Y220186D01*
X114952Y218431D01*
X116008Y216851D01*
X117351Y215508D01*
X118931Y214452D01*
X120686Y213725D01*
X122550Y213354D01*
X124450D01*
X126313Y213725D01*
X128069Y214452D01*
X129649Y215508D01*
X130992Y216851D01*
X132048Y218431D01*
X132775Y220186D01*
X133146Y222050D01*
Y223950D01*
X132775Y225814D01*
X132048Y227569D01*
X130992Y229149D01*
X129649Y230492D01*
X128069Y231548D01*
X126313Y232275D01*
X124450Y232646D01*
D02*
G37*
G36*
X346650Y215335D02*
X340350D01*
Y209035D01*
X346650D01*
Y215335D01*
D02*
G37*
G36*
X288150D02*
X281850D01*
Y209035D01*
X288150D01*
Y215335D01*
D02*
G37*
%LPD*%
D11*
X186634Y497000D02*
X196000D01*
X255500Y301858D02*
Y316700D01*
Y293500D02*
Y301858D01*
Y301858D01*
X211500Y345400D02*
X223600Y357500D01*
X224880D02*
X224880D01*
X237000D01*
X223600D02*
X224880D01*
X211500Y334744D02*
Y345400D01*
X204200Y242200D02*
X255500Y293500D01*
X146685Y263000D02*
X167485Y242200D01*
X188700Y497000D02*
X196000D01*
X186100Y494400D02*
X188700Y497000D01*
X186100Y486400D02*
Y494400D01*
Y486400D02*
X191700Y480800D01*
X241700D01*
X248500Y474000D01*
X298800Y504200D02*
X304000Y499000D01*
X203200Y504200D02*
X298800D01*
X201000Y502000D02*
X203200Y504200D01*
X431500Y192500D02*
X444500Y179500D01*
X427300Y196700D02*
X431500Y192500D01*
X427300Y196700D02*
Y242500D01*
X343500Y192500D02*
X431500D01*
X167485Y242200D02*
X204200D01*
X238600Y333600D02*
X255500Y316700D01*
X155374Y377000D02*
X168074Y389700D01*
X221926D01*
X234626Y377000D01*
X140748Y492000D02*
X145648Y487100D01*
X161596D01*
X166496Y492000D01*
X191000D02*
X197300Y485700D01*
X340300D01*
X347800Y493200D01*
X474100D01*
X184100Y502000D02*
X191000D01*
X179287Y497187D02*
X184100Y502000D01*
X147948Y497187D02*
X179287D01*
X145935Y499200D02*
X147948Y497187D01*
X145935Y499200D02*
Y506276D01*
X137674Y507384D02*
X145935Y506276D01*
X124400Y494111D02*
X137674Y507384D01*
X124400Y434200D02*
Y494111D01*
Y434200D02*
X128700Y429900D01*
Y384000D02*
Y429900D01*
X126700Y382000D02*
X128700Y384000D01*
X123200Y382000D02*
X126700D01*
X120500Y379300D02*
X123200Y382000D01*
X120500Y257500D02*
Y379300D01*
Y257500D02*
X135662Y242338D01*
X156262D01*
X202000Y196600D01*
X196000Y497000D02*
X201000Y502000D01*
X184065Y494431D02*
X186634Y497000D01*
X178927Y494431D02*
X184065D01*
X176496Y492000D02*
X178927Y494431D01*
X176496Y502000D02*
Y505600D01*
X180596Y509700D01*
X316300D01*
X336000Y490000D01*
X426400Y245100D02*
Y255600D01*
X408300Y273700D02*
X426400Y255600D01*
X248500Y226700D02*
X366900D01*
X382600Y242400D01*
X135000Y297500D02*
X152500Y315000D01*
X160618D01*
X234626Y377000D02*
X265374D01*
X124626D02*
X155374D01*
D46*
X116500Y491500D02*
X115841Y490773D01*
X115256Y489985D01*
X114752Y489143D01*
X114332Y488256D01*
X114002Y487332D01*
X113763Y486380D01*
X113619Y485409D01*
X113571Y484429D01*
X116500Y491500D02*
X115841Y490773D01*
X115256Y489985D01*
X114752Y489143D01*
X114332Y488256D01*
X114002Y487332D01*
X113763Y486380D01*
X113619Y485409D01*
X113571Y484429D01*
Y399929D02*
X114298Y399270D01*
X115086Y398685D01*
X115928Y398181D01*
X116815Y397761D01*
X117739Y397431D01*
X118691Y397192D01*
X119662Y397048D01*
X120642Y397000D01*
X113571Y399929D02*
X114298Y399270D01*
X115086Y398685D01*
X115928Y398181D01*
X116815Y397761D01*
X117739Y397431D01*
X118691Y397192D01*
X119662Y397048D01*
X120642Y397000D01*
X208181Y399929D02*
X208908Y399270D01*
X209696Y398685D01*
X210538Y398181D01*
X211425Y397761D01*
X212349Y397431D01*
X213301Y397192D01*
X214272Y397048D01*
X215252Y397000D01*
X208181Y399929D02*
X208908Y399270D01*
X209696Y398685D01*
X210538Y398181D01*
X211425Y397761D01*
X212349Y397431D01*
X213301Y397192D01*
X214272Y397048D01*
X215252Y397000D01*
X185500Y335142D02*
X185548Y334162D01*
X185692Y333191D01*
X185931Y332239D01*
X186261Y331315D01*
X186681Y330428D01*
X187185Y329586D01*
X187770Y328798D01*
X188429Y328071D01*
Y355929D02*
X187770Y355202D01*
X187185Y354414D01*
X186681Y353572D01*
X186261Y352685D01*
X185931Y351761D01*
X185692Y350809D01*
X185548Y349838D01*
X185500Y348858D01*
X188429Y355929D02*
X187770Y355202D01*
X187185Y354414D01*
X186681Y353572D01*
X186261Y352685D01*
X185931Y351761D01*
X185692Y350809D01*
X185548Y349838D01*
X185500Y348858D01*
X198827Y317673D02*
X199554Y317014D01*
X200342Y316429D01*
X201184Y315925D01*
X202071Y315505D01*
X202995Y315175D01*
X203947Y314936D01*
X204918Y314792D01*
X205898Y314744D01*
X198827Y317673D02*
X199554Y317014D01*
X200342Y316429D01*
X201184Y315925D01*
X202071Y315505D01*
X202995Y315175D01*
X203947Y314936D01*
X204918Y314792D01*
X205898Y314744D01*
X185500Y335142D02*
X185548Y334162D01*
X185692Y333191D01*
X185931Y332239D01*
X186261Y331315D01*
X186681Y330428D01*
X187185Y329586D01*
X187770Y328798D01*
X188429Y328071D01*
X208188Y370640D02*
X207232Y370603D01*
X206282Y370490D01*
X205343Y370304D01*
X204422Y370044D01*
X203524Y369713D01*
X202656Y369312D01*
X201821Y368845D01*
X201025Y368313D01*
X200274Y367721D01*
X199571Y367071D01*
X120642Y397000D02*
X124626D01*
X116500Y491500D02*
X137071Y512071D01*
X113571Y399929D02*
Y484429D01*
X215252Y397000D02*
X234626D01*
X188429Y355929D02*
X199571Y367071D01*
X185500Y335142D02*
Y348858D01*
X205898Y314744D02*
X211500D01*
X188429Y328071D02*
X198827Y317673D01*
X131000Y477110D02*
X208181Y399929D01*
X131000Y492252D02*
X140748Y502000D01*
X131000Y477110D02*
Y492252D01*
X137071Y512071D02*
X145429D01*
X150735Y506765D01*
Y502023D02*
Y506765D01*
Y502023D02*
X150752Y502006D01*
X208188Y370640D02*
X283134D01*
X283883Y371390D01*
D48*
X255500Y301858D02*
X255452Y302838D01*
X255308Y303809D01*
X255069Y304761D01*
X254739Y305685D01*
X254319Y306572D01*
X253815Y307414D01*
X253230Y308202D01*
X252571Y308929D01*
X255500Y301858D02*
X255452Y302838D01*
X255308Y303809D01*
X255069Y304761D01*
X254739Y305685D01*
X254319Y306572D01*
X253815Y307414D01*
X253230Y308202D01*
X252571Y308929D01*
Y276571D02*
X253230Y277298D01*
X253815Y278086D01*
X254319Y278928D01*
X254739Y279815D01*
X255069Y280739D01*
X255308Y281691D01*
X255452Y282662D01*
X255500Y283642D01*
X252571Y276571D02*
X253230Y277298D01*
X253815Y278086D01*
X254319Y278928D01*
X254739Y279815D01*
X255069Y280739D01*
X255308Y281691D01*
X255452Y282662D01*
X255500Y283642D01*
X234858Y263000D02*
X235838Y263048D01*
X236809Y263192D01*
X237761Y263431D01*
X238685Y263761D01*
X239572Y264181D01*
X240414Y264685D01*
X241202Y265270D01*
X241929Y265929D01*
X224880Y357500D02*
X223900Y357452D01*
X222930Y357308D01*
X221977Y357069D01*
X221054Y356739D01*
X220166Y356319D01*
X219325Y355815D01*
X218536Y355230D01*
X217809Y354571D01*
X224880Y357500D02*
X223900Y357452D01*
X222930Y357308D01*
X221977Y357069D01*
X221054Y356739D01*
X220166Y356319D01*
X219325Y355815D01*
X218536Y355230D01*
X217809Y354571D01*
X209353Y340181D02*
X210235Y339918D01*
X211129Y339697D01*
X212032Y339518D01*
X212942Y339381D01*
X213858Y339287D01*
X209353Y340181D02*
X210235Y339918D01*
X211129Y339697D01*
X212032Y339518D01*
X212942Y339381D01*
X213858Y339287D01*
X234858Y263000D02*
X235838Y263048D01*
X236809Y263192D01*
X237761Y263431D01*
X238685Y263761D01*
X239572Y264181D01*
X240414Y264685D01*
X241202Y265270D01*
X241929Y265929D01*
X146869Y262685D02*
X146776Y262661D01*
X146869Y262685D02*
X146776Y262661D01*
X159292Y259305D02*
X158570Y259974D01*
X157799Y260586D01*
X156984Y261138D01*
X156130Y261626D01*
X155241Y262049D01*
X154323Y262402D01*
X153380Y262685D01*
X159292Y259305D02*
X158570Y259974D01*
X157799Y260586D01*
X156984Y261138D01*
X156130Y261626D01*
X155241Y262049D01*
X154323Y262402D01*
X153380Y262685D01*
X255500Y283642D02*
Y301858D01*
X241929Y265929D02*
X252571Y276571D01*
X224880Y357500D02*
X237000D01*
X204869Y341631D02*
X217809Y354571D01*
X222798Y338702D02*
X252571Y308929D01*
X204869Y341631D02*
X209353Y340181D01*
X213858Y339287D02*
X219753Y338821D01*
X204185Y263000D02*
X234858D01*
X159292Y259305D02*
X176350Y242247D01*
X146869Y262685D02*
X153380D01*
X221255Y338702D02*
X222798D01*
X219753Y338821D02*
X221255Y338702D01*
X204185Y263000D02*
X204189Y261970D01*
X176350Y242247D02*
X192658D01*
X204189Y253778D02*
Y261970D01*
X192658Y242247D02*
X204189Y253778D01*
D53*
X304000Y518685D02*
D03*
X228815Y474000D02*
D03*
D54*
X304000Y499000D02*
D03*
D55*
X248500Y474000D02*
D03*
D56*
X291000Y464000D02*
D03*
X119000Y513500D02*
D03*
X370500Y252000D02*
D03*
X147122Y179500D02*
D03*
X468500Y513500D02*
D03*
X191500Y379000D02*
D03*
X147122Y223000D02*
D03*
X123500D02*
D03*
Y179500D02*
D03*
X468122D02*
D03*
Y223000D02*
D03*
X444500D02*
D03*
Y179500D02*
D03*
D57*
X343500Y212185D02*
D03*
X285000D02*
D03*
D58*
X343500Y192500D02*
D03*
X285000D02*
D03*
X204185Y263000D02*
D03*
X146685D02*
D03*
D59*
X184500D02*
D03*
X127000D02*
D03*
D60*
X265374Y407000D02*
D03*
Y397000D02*
D03*
Y387000D02*
D03*
Y377000D02*
D03*
X234626D02*
D03*
Y387000D02*
D03*
Y397000D02*
D03*
X155374Y407000D02*
D03*
Y397000D02*
D03*
Y387000D02*
D03*
Y377000D02*
D03*
X124626D02*
D03*
Y387000D02*
D03*
Y397000D02*
D03*
D61*
X234626Y407000D02*
D03*
X124626D02*
D03*
D62*
X211500Y334744D02*
D03*
Y324744D02*
D03*
D63*
Y314744D02*
D03*
D64*
X135000Y297500D02*
D03*
X237000D02*
D03*
D65*
X135000Y357500D02*
D03*
X237000D02*
D03*
D66*
X160618Y315000D02*
D03*
Y325000D02*
D03*
D67*
Y335000D02*
D03*
D68*
X371000Y314500D02*
D03*
X331630D02*
D03*
X388000Y485870D02*
D03*
Y446500D02*
D03*
X371000Y397500D02*
D03*
X331630D02*
D03*
X441500D02*
D03*
X402130D02*
D03*
X441500Y314500D02*
D03*
X402130D02*
D03*
D69*
X201000Y502000D02*
D03*
Y492000D02*
D03*
X191000D02*
D03*
Y502000D02*
D03*
X176496D02*
D03*
Y492000D02*
D03*
X166496D02*
D03*
Y502000D02*
D03*
X150748D02*
D03*
Y492000D02*
D03*
X140748D02*
D03*
Y502000D02*
D03*
D70*
X452756Y511811D02*
D03*
Y433071D02*
D03*
Y354331D02*
D03*
Y196850D02*
D03*
X413386Y433071D02*
D03*
Y196850D02*
D03*
X354331Y472441D02*
D03*
Y393701D02*
D03*
X374016Y354331D02*
D03*
X354331Y236221D02*
D03*
X374016Y196850D02*
D03*
X314961Y472441D02*
D03*
Y236221D02*
D03*
X275591Y472441D02*
D03*
X295276Y433071D02*
D03*
Y354331D02*
D03*
X255906Y433071D02*
D03*
Y354331D02*
D03*
Y275591D02*
D03*
Y196850D02*
D03*
X196850Y472441D02*
D03*
X216535Y433071D02*
D03*
X196850Y393701D02*
D03*
X216535Y354331D02*
D03*
X157480Y472441D02*
D03*
X177165Y354331D02*
D03*
X137795Y196850D02*
D03*
D71*
X427300Y242500D02*
D03*
X238600Y333600D02*
D03*
X474100Y493200D02*
D03*
X202000Y196600D02*
D03*
X336000Y490000D02*
D03*
X408300Y273700D02*
D03*
X248500Y226700D02*
D03*
X382600Y242400D02*
D03*
D72*
X283883Y371390D02*
D03*
M02*
