G04*
G04 #@! TF.GenerationSoftware,Altium Limited,Altium Designer,23.8.1 (32)*
G04*
G04 Layer_Color=255*
%FSLAX25Y25*%
%MOIN*%
G70*
G04*
G04 #@! TF.SameCoordinates,F96B85ED-F025-470D-A382-F87F92A237BF*
G04*
G04*
G04 #@! TF.FilePolarity,Positive*
G04*
G01*
G75*
%ADD53C,0.08268*%
%ADD54R,0.08268X0.08268*%
%ADD55R,0.08268X0.08268*%
%ADD56C,0.17717*%
%ADD57R,0.04724X0.04724*%
%ADD58C,0.04724*%
%ADD59R,0.04724X0.04724*%
%ADD60C,0.04563*%
%ADD61R,0.04563X0.04563*%
%ADD62C,0.08150*%
%ADD63R,0.08150X0.08150*%
%ADD64R,0.06260X0.06260*%
%ADD65C,0.06260*%
%ADD66C,0.07559*%
%ADD67R,0.07559X0.07559*%
%ADD68C,0.09843*%
%ADD69C,0.06083*%
D53*
X304000Y518685D02*
D03*
X228815Y474000D02*
D03*
D54*
X304000Y499000D02*
D03*
D55*
X248500Y474000D02*
D03*
D56*
X291000Y464000D02*
D03*
X119000Y513500D02*
D03*
X370500Y252000D02*
D03*
X147122Y179500D02*
D03*
X468500Y513500D02*
D03*
X191500Y379000D02*
D03*
X147122Y223000D02*
D03*
X123500D02*
D03*
Y179500D02*
D03*
X468122D02*
D03*
Y223000D02*
D03*
X444500D02*
D03*
Y179500D02*
D03*
D57*
X343500Y212185D02*
D03*
X285000D02*
D03*
D58*
X343500Y192500D02*
D03*
X285000D02*
D03*
X204185Y263000D02*
D03*
X146685D02*
D03*
D59*
X184500D02*
D03*
X127000D02*
D03*
D60*
X265374Y407000D02*
D03*
Y397000D02*
D03*
Y387000D02*
D03*
Y377000D02*
D03*
X234626D02*
D03*
Y387000D02*
D03*
Y397000D02*
D03*
X155374Y407000D02*
D03*
Y397000D02*
D03*
Y387000D02*
D03*
Y377000D02*
D03*
X124626D02*
D03*
Y387000D02*
D03*
Y397000D02*
D03*
D61*
X234626Y407000D02*
D03*
X124626D02*
D03*
D62*
X211500Y334744D02*
D03*
Y324744D02*
D03*
D63*
Y314744D02*
D03*
D64*
X135000Y297500D02*
D03*
X237000D02*
D03*
D65*
X135000Y357500D02*
D03*
X237000D02*
D03*
D66*
X160618Y315000D02*
D03*
Y325000D02*
D03*
D67*
Y335000D02*
D03*
D68*
X371000Y314500D02*
D03*
X331630D02*
D03*
X388000Y485870D02*
D03*
Y446500D02*
D03*
X371000Y397500D02*
D03*
X331630D02*
D03*
X441500D02*
D03*
X402130D02*
D03*
X441500Y314500D02*
D03*
X402130D02*
D03*
D69*
X201000Y502000D02*
D03*
Y492000D02*
D03*
X191000D02*
D03*
Y502000D02*
D03*
X176496D02*
D03*
Y492000D02*
D03*
X166496D02*
D03*
Y502000D02*
D03*
X150748D02*
D03*
Y492000D02*
D03*
X140748D02*
D03*
Y502000D02*
D03*
M02*
