M48
;Layer_Color=9474304
;FILE_FORMAT=2:4
INCH,TZ
;TYPE=PLATED
T01F00S00C0.0118
T02F00S00C0.0280
T03F00S00C0.0299
T04F00S00C0.0315
T05F00S00C0.0394
T06F00S00C0.0406
T07F00S00C0.0417
T08F00S00C0.0472
T09F00S00C0.0504
T10F00S00C0.0543
T11F00S00C0.0551
T12F00S00C0.1378
%
T01
X28388Y37139
T02
X38260Y24240
X42730Y24250
X40830Y27370
X24850Y22670
X20200Y19660
X23860Y33360
X47410Y49320
X33600Y49000
T03
X12463Y37700
Y38700
Y39700
Y40700
X15537
Y39700
Y38700
Y37700
X23463
Y38700
Y39700
Y40700
X26537
Y39700
Y38700
Y37700
T04
X34350Y19250
Y21219
X28500
Y19250
X20419Y26300
X18450
X14669
X12700
T05
X31496Y23622
X35433
X37402Y19685
X41339
X45276
X25591
Y27559
X13780Y19685
X17717Y35433
X21654
X25591
X29528
Y43307
X25591
X21654
X19685Y39370
X35433
X37402Y35433
X45276
Y43307
X41339
X35433Y47244
X31496
X45276Y51181
X27559Y47244
X19685
X15748
T06
X16650Y49200
X17650
Y50200
X16650
X19100
X20100
Y49200
X19100
X15075
Y50200
X14075
Y49200
T07
X23700Y29750
X13500
Y35750
X23700
T08
X33163Y31450
X37100
X40213
X44150
Y39750
X40213
X37100
X33163
X38800Y44650
Y48587
T09
X16062Y31500
Y32500
Y33500
T10
X21150Y31474
Y32474
Y33474
T11
X22882Y47400
X24850
X30400Y49900
Y51869
T12
X37050Y25200
X44450Y22300
X46812
Y17950
X44450
X14712
X12350
Y22300
X14712
X19150Y37900
X29100Y46400
X46850Y51350
X11900
M30
