G04*
G04 #@! TF.GenerationSoftware,Altium Limited,Altium Designer,23.8.1 (32)*
G04*
G04 Layer_Physical_Order=1*
G04 Layer_Color=255*
%FSLAX25Y25*%
%MOIN*%
G70*
G04*
G04 #@! TF.SameCoordinates,F96B85ED-F025-470D-A382-F87F92A237BF*
G04*
G04*
G04 #@! TF.FilePolarity,Positive*
G04*
G01*
G75*
%ADD11C,0.01968*%
G04:AMPARAMS|DCode=15|XSize=39.37mil|YSize=55.91mil|CornerRadius=4.92mil|HoleSize=0mil|Usage=FLASHONLY|Rotation=270.000|XOffset=0mil|YOffset=0mil|HoleType=Round|Shape=RoundedRectangle|*
%AMROUNDEDRECTD15*
21,1,0.03937,0.04606,0,0,270.0*
21,1,0.02953,0.05591,0,0,270.0*
1,1,0.00984,-0.02303,-0.01476*
1,1,0.00984,-0.02303,0.01476*
1,1,0.00984,0.02303,0.01476*
1,1,0.00984,0.02303,-0.01476*
%
%ADD15ROUNDEDRECTD15*%
G04:AMPARAMS|DCode=16|XSize=77.56mil|YSize=23.62mil|CornerRadius=2.95mil|HoleSize=0mil|Usage=FLASHONLY|Rotation=90.000|XOffset=0mil|YOffset=0mil|HoleType=Round|Shape=RoundedRectangle|*
%AMROUNDEDRECTD16*
21,1,0.07756,0.01772,0,0,90.0*
21,1,0.07165,0.02362,0,0,90.0*
1,1,0.00591,0.00886,0.03583*
1,1,0.00591,0.00886,-0.03583*
1,1,0.00591,-0.00886,-0.03583*
1,1,0.00591,-0.00886,0.03583*
%
%ADD16ROUNDEDRECTD16*%
G04:AMPARAMS|DCode=17|XSize=39.37mil|YSize=55.91mil|CornerRadius=4.92mil|HoleSize=0mil|Usage=FLASHONLY|Rotation=0.000|XOffset=0mil|YOffset=0mil|HoleType=Round|Shape=RoundedRectangle|*
%AMROUNDEDRECTD17*
21,1,0.03937,0.04606,0,0,0.0*
21,1,0.02953,0.05591,0,0,0.0*
1,1,0.00984,0.01476,-0.02303*
1,1,0.00984,-0.01476,-0.02303*
1,1,0.00984,-0.01476,0.02303*
1,1,0.00984,0.01476,0.02303*
%
%ADD17ROUNDEDRECTD17*%
%ADD18R,0.05709X0.04331*%
%ADD19R,0.04331X0.05709*%
%ADD20R,0.09843X0.06299*%
%ADD21R,0.06299X0.09843*%
%ADD46C,0.03937*%
%ADD47C,0.07874*%
%ADD48C,0.19685*%
%ADD49C,0.11811*%
%ADD50C,0.11024*%
%ADD51C,0.09843*%
%ADD52C,0.15748*%
%ADD53C,0.08268*%
%ADD54R,0.08268X0.08268*%
%ADD55R,0.08268X0.08268*%
%ADD56C,0.17717*%
%ADD57R,0.04724X0.04724*%
%ADD58C,0.04724*%
%ADD59R,0.04724X0.04724*%
%ADD60C,0.04563*%
%ADD61R,0.04563X0.04563*%
%ADD62C,0.08150*%
%ADD63R,0.08150X0.08150*%
%ADD64R,0.06260X0.06260*%
%ADD65C,0.06260*%
%ADD66C,0.07559*%
%ADD67R,0.07559X0.07559*%
%ADD68C,0.09843*%
%ADD69C,0.06083*%
%ADD70C,0.07874*%
%ADD71C,0.05000*%
%ADD72C,0.01968*%
G36*
X476994Y290483D02*
Y262248D01*
X448408Y233663D01*
X447671D01*
X447479Y234125D01*
X450734Y237379D01*
X451125Y237965D01*
X451263Y238657D01*
Y245858D01*
X452409D01*
Y253142D01*
X446504D01*
Y245858D01*
X447650D01*
Y239405D01*
X443223Y234977D01*
X442831Y234391D01*
X442694Y233700D01*
Y233663D01*
X410755D01*
X410650Y234163D01*
X411569Y234569D01*
X411840Y234760D01*
X412115Y234944D01*
X412210Y235038D01*
X414303D01*
X414802Y235137D01*
X415226Y235420D01*
X415508Y235843D01*
X415608Y236343D01*
Y239295D01*
X415508Y239795D01*
X415226Y240218D01*
X414802Y240501D01*
X414303Y240600D01*
X409697D01*
X409198Y240501D01*
X408774Y240218D01*
X408492Y239795D01*
X408392Y239295D01*
Y237306D01*
X400901D01*
X400806Y237401D01*
Y238334D01*
X400906Y238483D01*
X400990Y238906D01*
Y246071D01*
X400906Y246493D01*
X400666Y246851D01*
X400308Y247091D01*
X399886Y247175D01*
X398114D01*
X397865Y247125D01*
X397365Y247428D01*
Y249042D01*
X398043Y249720D01*
X435466D01*
X436185Y249815D01*
X436856Y250093D01*
X437431Y250535D01*
X437887Y250991D01*
X437931Y251047D01*
X438406Y251452D01*
X438394Y251464D01*
X447022Y260091D01*
X447031Y260091D01*
X447032Y260091D01*
X447033Y260092D01*
X447095Y260163D01*
X447359Y260456D01*
X447484Y260593D01*
Y260593D01*
X447820Y260942D01*
X474027Y287096D01*
X474033Y287091D01*
X474048Y287094D01*
X474358Y287458D01*
X474359Y287459D01*
X474359Y287459D01*
X475352Y288621D01*
X476401Y290333D01*
X476503Y290581D01*
X476994Y290483D01*
D02*
G37*
G36*
X104111Y317650D02*
X108390Y313371D01*
X108359Y313295D01*
X107968Y311668D01*
X107837Y310000D01*
X107968Y308332D01*
X108359Y306705D01*
X108999Y305159D01*
X109874Y303733D01*
X110960Y302460D01*
X120632Y292789D01*
X120624Y292781D01*
X122624Y291028D01*
X124835Y289550D01*
X127220Y288374D01*
X129738Y287519D01*
X132346Y287000D01*
X135000Y286826D01*
Y286837D01*
X136668Y286968D01*
X138295Y287359D01*
X139841Y287999D01*
X141267Y288874D01*
X142540Y289960D01*
X150417Y297837D01*
X162701D01*
X182149Y278390D01*
X182150Y278389D01*
X182141Y278381D01*
X184175Y276598D01*
X186423Y275096D01*
X188849Y273900D01*
X191409Y273030D01*
X194062Y272503D01*
X196760Y272326D01*
Y272337D01*
X200726D01*
X215257Y257807D01*
Y254888D01*
X213923Y254070D01*
X212650Y252984D01*
X211564Y251711D01*
X210689Y250285D01*
X210049Y248739D01*
X209659Y247112D01*
X209527Y245444D01*
Y243607D01*
X209523Y243603D01*
X208437Y242330D01*
X208162Y241883D01*
X207058Y241618D01*
X205512Y240978D01*
X204347Y240264D01*
Y240264D01*
X204344Y240247D01*
X203380Y239603D01*
X201285Y237766D01*
X200533Y236909D01*
X200530Y236906D01*
X200501Y236872D01*
X199788Y236059D01*
X199764Y236079D01*
X199353Y235579D01*
X199368Y235564D01*
X198517Y234568D01*
X197643Y233141D01*
X197002Y231595D01*
X196725Y230441D01*
X196225Y230500D01*
Y253858D01*
X196229Y253858D01*
X196086Y256041D01*
X195659Y258188D01*
X194955Y260260D01*
X193988Y262222D01*
X192772Y264042D01*
X191329Y265687D01*
X191326Y265685D01*
X189255Y267756D01*
X173756Y283256D01*
X172736Y284092D01*
X171574Y284713D01*
X170312Y285096D01*
X169000Y285225D01*
X146642D01*
X146642Y285229D01*
X144459Y285086D01*
X142312Y284659D01*
X140240Y283955D01*
X138278Y282987D01*
X136458Y281772D01*
X134813Y280329D01*
X134323Y280306D01*
X107448D01*
X103306Y284448D01*
Y317877D01*
X103806Y318047D01*
X104111Y317650D01*
D02*
G37*
G36*
X477219Y537328D02*
X478916Y536813D01*
X480481Y535977D01*
X481852Y534852D01*
X482977Y533481D01*
X483813Y531916D01*
X484328Y530219D01*
X484495Y528529D01*
X484485Y528454D01*
Y162311D01*
X484495Y162236D01*
X484328Y160546D01*
X483813Y158848D01*
X482977Y157284D01*
X481852Y155913D01*
X480481Y154787D01*
X478916Y153951D01*
X477219Y153436D01*
X475529Y153270D01*
X475454Y153280D01*
X109311D01*
X109236Y153270D01*
X107546Y153436D01*
X105848Y153951D01*
X104284Y154787D01*
X102913Y155913D01*
X101787Y157284D01*
X100951Y158848D01*
X100436Y160546D01*
X100270Y162235D01*
X100280Y162311D01*
Y281712D01*
X100742Y281904D01*
X105423Y277223D01*
X106009Y276831D01*
X106700Y276694D01*
X130529D01*
X130721Y276232D01*
X128068Y273579D01*
X127000Y273663D01*
X125332Y273532D01*
X123705Y273141D01*
X122159Y272501D01*
X120733Y271626D01*
X119460Y270540D01*
X118374Y269267D01*
X117499Y267841D01*
X116859Y266295D01*
X116469Y264668D01*
X116337Y263000D01*
X116469Y261332D01*
X116859Y259705D01*
X117499Y258159D01*
X118374Y256733D01*
X119460Y255460D01*
X125742Y249179D01*
Y240321D01*
X115960Y230540D01*
X114874Y229267D01*
X113999Y227841D01*
X113359Y226295D01*
X112969Y224668D01*
X112837Y223000D01*
X112969Y221332D01*
X113359Y219705D01*
X113999Y218159D01*
X114874Y216733D01*
X115960Y215460D01*
X117233Y214374D01*
X118659Y213499D01*
X120205Y212859D01*
X121832Y212469D01*
X123500Y212337D01*
X147122D01*
X148790Y212469D01*
X150417Y212859D01*
X151963Y213499D01*
X153389Y214374D01*
X154662Y215460D01*
X155748Y216733D01*
X156623Y218159D01*
X157263Y219705D01*
X157653Y221332D01*
X157785Y223000D01*
X157653Y224668D01*
X157263Y226295D01*
X156623Y227841D01*
X155748Y229267D01*
X154662Y230540D01*
X153389Y231626D01*
X151963Y232501D01*
X150417Y233141D01*
X148790Y233531D01*
X147309Y233648D01*
X146897Y234075D01*
X146936Y234236D01*
X147067Y235904D01*
Y253596D01*
X146936Y255264D01*
X146545Y256891D01*
X145905Y258436D01*
X145031Y259863D01*
X143944Y261135D01*
X139295Y265784D01*
X144326Y270815D01*
X144327Y270816D01*
X144327D01*
X144702Y271117D01*
X145000Y271345D01*
X145792Y271673D01*
X146164Y271722D01*
X146642Y271775D01*
X146642Y271775D01*
X146642Y271775D01*
X166214D01*
X179745Y258244D01*
X181816Y256173D01*
X181816Y256173D01*
Y256173D01*
X182117Y255798D01*
X182345Y255501D01*
X182673Y254708D01*
X182722Y254336D01*
X182775Y253858D01*
X182775Y253858D01*
X182775Y253858D01*
Y226323D01*
X181142D01*
Y226496D01*
X173858D01*
Y220591D01*
X181142D01*
Y220764D01*
X183258D01*
X183287Y220670D01*
X183908Y219508D01*
X184745Y218489D01*
X185764Y217652D01*
X186926Y217031D01*
X188188Y216648D01*
X189500Y216519D01*
X190812Y216648D01*
X192074Y217031D01*
X193236Y217652D01*
X194255Y218489D01*
X194312Y218557D01*
X195386D01*
X195808Y218641D01*
X196166Y218881D01*
X196406Y219239D01*
X196490Y219661D01*
Y224999D01*
X196990Y225058D01*
X197002Y225005D01*
X197510Y223779D01*
Y219661D01*
X197594Y219239D01*
X197834Y218881D01*
X198192Y218641D01*
X198614Y218557D01*
X200386D01*
X200808Y218641D01*
X200886Y218694D01*
X202559D01*
X203848Y218159D01*
X205475Y217769D01*
X207143Y217637D01*
X208811Y217769D01*
X210438Y218159D01*
X211984Y218800D01*
X213411Y219674D01*
X214578Y220671D01*
X214683Y220761D01*
X214918Y221036D01*
X214916Y221038D01*
X216058Y222316D01*
X216096Y222357D01*
X216389Y222662D01*
X216620Y222851D01*
X216766Y222975D01*
X217892Y223937D01*
X218979Y225209D01*
X219253Y225657D01*
X220358Y225922D01*
X221904Y226562D01*
X223330Y227437D01*
X224603Y228523D01*
X227730Y231650D01*
X228816Y232923D01*
X229691Y234349D01*
X230157Y235476D01*
X231285Y235943D01*
X232711Y236818D01*
X233984Y237904D01*
X237111Y241031D01*
X237119Y241023D01*
X238902Y243057D01*
X240404Y245305D01*
X241600Y247730D01*
X242470Y250291D01*
X242997Y252944D01*
X243174Y255642D01*
X243163Y255642D01*
Y266358D01*
X243174Y266358D01*
X242997Y269056D01*
X242470Y271709D01*
X241600Y274270D01*
X240404Y276695D01*
X238902Y278943D01*
X237119Y280977D01*
X237111Y280969D01*
X230469Y287611D01*
X230477Y287619D01*
X228444Y289402D01*
X226195Y290904D01*
X223769Y292101D01*
X221209Y292970D01*
X218556Y293497D01*
X215858Y293674D01*
X215858Y293663D01*
X201592D01*
X196777Y298477D01*
X196191Y298869D01*
X195500Y299006D01*
X191691D01*
X174658Y316040D01*
X173386Y317126D01*
X171959Y318001D01*
X170787Y318486D01*
X170887Y318986D01*
X206638D01*
Y309882D01*
X216362D01*
Y318142D01*
X216862Y318349D01*
X230275Y304937D01*
Y297500D01*
X230404Y296188D01*
X230787Y294926D01*
X231408Y293764D01*
X232244Y292744D01*
X233264Y291908D01*
X234426Y291287D01*
X235688Y290904D01*
X237000Y290775D01*
X238312Y290904D01*
X239574Y291287D01*
X240736Y291908D01*
X241756Y292744D01*
X255826Y306816D01*
X255827Y306816D01*
X255827D01*
X256202Y307117D01*
X256500Y307345D01*
X257292Y307673D01*
X257664Y307722D01*
X258142Y307775D01*
X258142Y307775D01*
X258142Y307775D01*
X312267D01*
X312458Y307313D01*
X272023Y266877D01*
X271631Y266291D01*
X271494Y265600D01*
Y247148D01*
X252076Y227730D01*
X251593Y227860D01*
X251563Y227969D01*
X251131Y228718D01*
X250518Y229331D01*
X249769Y229763D01*
X248933Y229987D01*
X248067D01*
X247231Y229763D01*
X246481Y229331D01*
X245869Y228718D01*
X245437Y227969D01*
X245213Y227133D01*
Y226267D01*
X245276Y226031D01*
X225952Y206706D01*
X223937D01*
Y207819D01*
X216063D01*
Y206706D01*
X206490D01*
Y207339D01*
X206406Y207761D01*
X206166Y208119D01*
X205808Y208359D01*
X205386Y208443D01*
X203614D01*
X203192Y208359D01*
X202834Y208119D01*
X202594Y207761D01*
X202510Y207339D01*
Y205690D01*
X202093Y205146D01*
X201990Y204897D01*
X201490Y204997D01*
Y207339D01*
X201406Y207761D01*
X201166Y208119D01*
X200808Y208359D01*
X200386Y208443D01*
X198614D01*
X198192Y208359D01*
X197834Y208119D01*
X197594Y207761D01*
X197510Y207339D01*
Y204997D01*
X197010Y204897D01*
X196907Y205146D01*
X196490Y205690D01*
Y207339D01*
X196406Y207761D01*
X196166Y208119D01*
X195808Y208359D01*
X195386Y208443D01*
X193614D01*
X193192Y208359D01*
X192834Y208119D01*
X192594Y207761D01*
X192510Y207339D01*
Y205690D01*
X192093Y205146D01*
X191815Y204475D01*
X191720Y203756D01*
Y200828D01*
X191725Y200796D01*
X191591Y199778D01*
X191185Y198800D01*
X191170Y198780D01*
X187306D01*
X187276Y198776D01*
X185969Y198905D01*
X184684Y199294D01*
X184108Y199602D01*
Y200295D01*
X184008Y200795D01*
X183726Y201218D01*
X183302Y201501D01*
X182803Y201600D01*
X178197D01*
X177698Y201501D01*
X177274Y201218D01*
X176992Y200795D01*
X176892Y200295D01*
Y197343D01*
X176992Y196843D01*
X177274Y196420D01*
X177698Y196137D01*
X178197Y196038D01*
X179467D01*
X180006Y195578D01*
X181668Y194559D01*
X183468Y193814D01*
X185363Y193359D01*
X187306Y193206D01*
Y193220D01*
X192500D01*
X193219Y193315D01*
X193890Y193593D01*
X194465Y194035D01*
X194482Y194018D01*
X195679Y195478D01*
X196569Y197143D01*
X197117Y198950D01*
X197639Y199150D01*
X197694Y199106D01*
Y199100D01*
X197831Y198409D01*
X198223Y197823D01*
X198776Y197269D01*
X198713Y197033D01*
Y196167D01*
X198937Y195331D01*
X199369Y194581D01*
X199981Y193969D01*
X200731Y193537D01*
X201567Y193313D01*
X202433D01*
X203269Y193537D01*
X204018Y193969D01*
X204631Y194581D01*
X205063Y195331D01*
X205287Y196167D01*
Y197033D01*
X205063Y197869D01*
X204659Y198569D01*
X204767Y198948D01*
X204817Y199069D01*
X205386D01*
X205808Y199153D01*
X206166Y199393D01*
X206406Y199751D01*
X206490Y200173D01*
Y200976D01*
X216027D01*
X216027Y200974D01*
X216027Y200974D01*
X216063Y200488D01*
Y196402D01*
X223937D01*
Y200309D01*
X224602Y200441D01*
X225187Y200833D01*
X227448Y203094D01*
X231800D01*
X232491Y203231D01*
X233077Y203623D01*
X273875Y244421D01*
X274337Y244229D01*
Y212185D01*
X274468Y210517D01*
X274859Y208890D01*
X275499Y207344D01*
X276374Y205918D01*
X277460Y204645D01*
X278733Y203559D01*
X280159Y202684D01*
X281705Y202044D01*
X283332Y201654D01*
X285000Y201522D01*
X370543D01*
X370543Y201522D01*
Y201511D01*
X373241Y201688D01*
X375894Y202215D01*
X378455Y203085D01*
X380880Y204281D01*
X383128Y205783D01*
X385162Y207566D01*
X385154Y207574D01*
X388826Y211246D01*
X389295Y211359D01*
X390841Y211999D01*
X392267Y212874D01*
X393540Y213960D01*
X394626Y215233D01*
X395501Y216659D01*
X396141Y218205D01*
X396510Y219744D01*
X397010Y219684D01*
Y219417D01*
X397094Y218995D01*
X397334Y218637D01*
X397692Y218397D01*
X397919Y218352D01*
X397999Y218159D01*
X398874Y216733D01*
X399960Y215460D01*
X401233Y214374D01*
X402659Y213499D01*
X404205Y212859D01*
X405832Y212469D01*
X407500Y212337D01*
X468122D01*
X469790Y212469D01*
X471417Y212859D01*
X472963Y213499D01*
X474389Y214374D01*
X475662Y215460D01*
X476748Y216733D01*
X477623Y218159D01*
X478263Y219705D01*
X478653Y221332D01*
X478785Y223000D01*
X478653Y224668D01*
X478263Y226295D01*
X477623Y227841D01*
X476748Y229267D01*
X475662Y230540D01*
X474389Y231626D01*
X472963Y232501D01*
X471417Y233141D01*
X469790Y233531D01*
X468122Y233663D01*
X454171D01*
X453979Y234125D01*
X480077Y260223D01*
X480469Y260809D01*
X480606Y261500D01*
Y488500D01*
X480469Y489191D01*
X480077Y489777D01*
X477324Y492531D01*
X477387Y492767D01*
Y493633D01*
X477163Y494469D01*
X476731Y495219D01*
X476119Y495831D01*
X475369Y496263D01*
X474533Y496487D01*
X473667D01*
X472831Y496263D01*
X472082Y495831D01*
X471469Y495219D01*
X471037Y494469D01*
X470813Y493633D01*
Y492767D01*
X471037Y491931D01*
X471469Y491182D01*
X472082Y490569D01*
X472831Y490137D01*
X473667Y489913D01*
X474533D01*
X474769Y489976D01*
X476994Y487752D01*
Y479517D01*
X476503Y479419D01*
X476401Y479667D01*
X475352Y481379D01*
X474048Y482905D01*
X474037Y482895D01*
X448394Y508536D01*
X448406Y508548D01*
X446879Y509852D01*
X445167Y510901D01*
X443312Y511669D01*
X441360Y512138D01*
X439358Y512295D01*
X439358Y512280D01*
X270642D01*
X270642Y512295D01*
X268640Y512138D01*
X266688Y511669D01*
X264833Y510901D01*
X263121Y509852D01*
X261595Y508548D01*
X261606Y508536D01*
X250311Y497242D01*
X249963Y496895D01*
X249963D01*
X249594Y496580D01*
X248874Y495989D01*
X247624Y495321D01*
X246268Y494910D01*
X245342Y494819D01*
X244858Y494780D01*
X244858Y494780D01*
X244858Y494780D01*
X203635D01*
X203351Y495064D01*
X202478Y495568D01*
X201504Y495829D01*
X200496D01*
X199522Y495568D01*
X198649Y495064D01*
X197936Y494351D01*
X197432Y493478D01*
X197171Y492504D01*
Y491496D01*
X197432Y490522D01*
X197936Y489649D01*
X198649Y488936D01*
X199522Y488432D01*
X200496Y488171D01*
X201504D01*
X202478Y488432D01*
X203351Y488936D01*
X203635Y489220D01*
X244858D01*
X244858Y489205D01*
X246860Y489362D01*
X248812Y489831D01*
X250667Y490599D01*
X252379Y491648D01*
X253906Y492952D01*
X253894Y492964D01*
X265189Y504257D01*
X265537Y504605D01*
X265537D01*
X265906Y504920D01*
X266626Y505511D01*
X267876Y506179D01*
X269232Y506590D01*
X270158Y506681D01*
X270642Y506720D01*
X270642Y506720D01*
X270642Y506720D01*
X439358D01*
X439358Y506720D01*
Y506720D01*
X439842Y506681D01*
X440768Y506590D01*
X442124Y506179D01*
X443374Y505511D01*
X444094Y504920D01*
X444463Y504605D01*
X444463D01*
X444811Y504257D01*
X469758Y479311D01*
X470106Y478963D01*
Y478963D01*
X470420Y478594D01*
X471011Y477874D01*
X471679Y476624D01*
X472090Y475268D01*
X472181Y474342D01*
X472220Y473858D01*
X472220Y473858D01*
X472220Y473858D01*
Y296142D01*
X472220Y296142D01*
X472220D01*
X472181Y295658D01*
X472090Y294732D01*
X471679Y293376D01*
X471011Y292126D01*
X470419Y291405D01*
X470099Y291037D01*
X470098Y291035D01*
X469747Y290679D01*
X443592Y264577D01*
X443587Y264577D01*
X443576Y264569D01*
X443540Y264525D01*
X443352Y264312D01*
X443146Y264116D01*
X443083Y264020D01*
X442733Y263665D01*
X434817Y255748D01*
X434463Y255395D01*
X434011Y255280D01*
X396891D01*
X396172Y255185D01*
X395501Y254907D01*
X394926Y254466D01*
X392619Y252159D01*
X392178Y251584D01*
X391900Y250913D01*
X391805Y250194D01*
Y244155D01*
X391593Y243878D01*
X391490Y243629D01*
X390990Y243729D01*
Y246071D01*
X390906Y246493D01*
X390806Y246642D01*
Y254291D01*
X391937D01*
Y265709D01*
X384063D01*
Y254291D01*
X387194D01*
Y246642D01*
X387094Y246493D01*
X387010Y246071D01*
Y244206D01*
X385353D01*
X385231Y244419D01*
X384618Y245031D01*
X383869Y245463D01*
X383033Y245687D01*
X382167D01*
X381331Y245463D01*
X380581Y245031D01*
X379969Y244419D01*
X379537Y243669D01*
X379313Y242833D01*
Y241967D01*
X379537Y241131D01*
X379969Y240382D01*
X380581Y239769D01*
X381331Y239337D01*
X382167Y239113D01*
X383033D01*
X383869Y239337D01*
X384618Y239769D01*
X385231Y240382D01*
X385353Y240594D01*
X387010D01*
Y238906D01*
X387094Y238483D01*
X387334Y238125D01*
X387692Y237886D01*
X388114Y237802D01*
X389886D01*
X390308Y237886D01*
X390666Y238125D01*
X390906Y238483D01*
X390990Y238906D01*
Y241248D01*
X391490Y241347D01*
X391593Y241098D01*
X392010Y240554D01*
Y238906D01*
X392094Y238483D01*
X392334Y238125D01*
X392692Y237886D01*
X393114Y237802D01*
X394886D01*
X395308Y237886D01*
X395666Y238125D01*
X395906Y238483D01*
X395990Y238906D01*
Y240547D01*
X396510Y241067D01*
X396672Y241049D01*
X397010Y240885D01*
Y238906D01*
X397094Y238483D01*
X397194Y238334D01*
Y236707D01*
X397194Y236707D01*
X397194Y236707D01*
X397264Y236352D01*
X397331Y236016D01*
X397331Y236016D01*
X397331Y236016D01*
X397369Y235924D01*
X397557Y235643D01*
X397761Y235338D01*
X398876Y234223D01*
X399462Y233831D01*
X400153Y233694D01*
X404365D01*
X404425Y233194D01*
X404205Y233141D01*
X402659Y232501D01*
X401233Y231626D01*
X399960Y230540D01*
X398874Y229267D01*
X397999Y227841D01*
X397919Y227648D01*
X397692Y227603D01*
X397334Y227363D01*
X397094Y227005D01*
X397010Y226583D01*
Y224842D01*
X396969Y224668D01*
X396899Y223781D01*
X396394Y223741D01*
X396141Y224795D01*
X395990Y225160D01*
Y226583D01*
X395906Y227005D01*
X395806Y227154D01*
Y227200D01*
X395780Y227332D01*
X395787Y227466D01*
X395712Y227674D01*
X395669Y227891D01*
X395594Y228003D01*
X395549Y228129D01*
X395400Y228293D01*
X395277Y228477D01*
X395166Y228552D01*
X395075Y228651D01*
X394875Y228746D01*
X394691Y228869D01*
X394560Y228895D01*
X394438Y228952D01*
X393312Y229234D01*
X392267Y230126D01*
X390841Y231001D01*
X389295Y231641D01*
X387668Y232031D01*
X386000Y232163D01*
Y232178D01*
X383574Y231987D01*
X381208Y231419D01*
X378960Y230488D01*
X376886Y229216D01*
X375036Y227636D01*
X375046Y227625D01*
X375046Y227625D01*
X370268Y222848D01*
X295663D01*
Y248583D01*
X327417Y280337D01*
X413858D01*
X413858Y280326D01*
X416556Y280503D01*
X419209Y281030D01*
X421770Y281899D01*
X424195Y283096D01*
X426443Y284598D01*
X428477Y286381D01*
X428469Y286389D01*
X449040Y306960D01*
X450126Y308233D01*
X451001Y309659D01*
X451641Y311205D01*
X452032Y312832D01*
X452163Y314500D01*
X452032Y316168D01*
X451641Y317795D01*
X451001Y319341D01*
X450126Y320767D01*
X449040Y322040D01*
X447767Y323126D01*
X446341Y324001D01*
X444795Y324641D01*
X443168Y325031D01*
X441500Y325163D01*
X439832Y325031D01*
X438205Y324641D01*
X436659Y324001D01*
X435233Y323126D01*
X433960Y322040D01*
X413583Y301663D01*
X327142D01*
X327142Y301674D01*
X324444Y301497D01*
X321791Y300970D01*
X319231Y300100D01*
X316805Y298904D01*
X314557Y297402D01*
X312523Y295619D01*
X312531Y295611D01*
X280389Y263469D01*
X280381Y263477D01*
X278598Y261443D01*
X277096Y259195D01*
X275900Y256769D01*
X275600Y255886D01*
X275106Y255968D01*
Y264852D01*
X315248Y304994D01*
X336000D01*
X336691Y305131D01*
X337277Y305523D01*
X340677Y308923D01*
X341069Y309509D01*
X341206Y310200D01*
Y322200D01*
X341069Y322891D01*
X340677Y323477D01*
X321806Y342348D01*
Y350696D01*
X322300Y350777D01*
X322530Y350101D01*
X323726Y347675D01*
X325228Y345427D01*
X327011Y343393D01*
X327019Y343402D01*
X327019D01*
X363460Y306960D01*
X364733Y305874D01*
X366159Y304999D01*
X367705Y304359D01*
X369332Y303969D01*
X371000Y303837D01*
X372668Y303969D01*
X374295Y304359D01*
X375841Y304999D01*
X377267Y305874D01*
X378540Y306960D01*
X379626Y308233D01*
X380501Y309659D01*
X381141Y311205D01*
X381532Y312832D01*
X381663Y314500D01*
X381532Y316168D01*
X381141Y317795D01*
X380501Y319341D01*
X379626Y320767D01*
X378540Y322040D01*
X342293Y358287D01*
Y397500D01*
X342161Y399168D01*
X341771Y400795D01*
X341131Y402341D01*
X340256Y403767D01*
X339170Y405040D01*
X337897Y406126D01*
X336471Y407001D01*
X334925Y407641D01*
X333298Y408032D01*
X331630Y408163D01*
X329962Y408032D01*
X328335Y407641D01*
X326789Y407001D01*
X325363Y406126D01*
X324090Y405040D01*
X323004Y403767D01*
X322306Y402630D01*
X321806Y402771D01*
Y414952D01*
X337277Y430423D01*
X337669Y431009D01*
X337806Y431700D01*
Y487247D01*
X338018Y487369D01*
X338631Y487982D01*
X339063Y488731D01*
X339287Y489567D01*
Y490433D01*
X339063Y491269D01*
X338631Y492019D01*
X338018Y492631D01*
X337269Y493063D01*
X336433Y493287D01*
X335567D01*
X334731Y493063D01*
X333981Y492631D01*
X333369Y492019D01*
X332937Y491269D01*
X332713Y490433D01*
Y489567D01*
X332937Y488731D01*
X333369Y487982D01*
X333981Y487369D01*
X334194Y487247D01*
Y432448D01*
X318723Y416977D01*
X318331Y416391D01*
X318194Y415700D01*
Y341600D01*
X318331Y340909D01*
X318723Y340323D01*
X337594Y321452D01*
Y318571D01*
X337094Y318393D01*
X336385Y319255D01*
X335366Y320092D01*
X334204Y320713D01*
X332942Y321096D01*
X331630Y321225D01*
X258142D01*
X258142Y321229D01*
X255959Y321086D01*
X255667Y321028D01*
X255303Y321100D01*
X250697D01*
X250198Y321001D01*
X249774Y320718D01*
X249492Y320295D01*
X249458Y320125D01*
X241719D01*
X241028Y319988D01*
X240442Y319596D01*
X240337Y319492D01*
X228930Y330898D01*
X227611Y331981D01*
X226107Y332785D01*
X224474Y333280D01*
X222776Y333447D01*
X221078Y333280D01*
X219445Y332785D01*
X217941Y331980D01*
X216622Y330898D01*
X216297Y330502D01*
X165185D01*
Y339567D01*
X163398D01*
Y357976D01*
X163393Y358014D01*
X163528Y359386D01*
X163939Y360742D01*
X164608Y361992D01*
X165483Y363059D01*
X165513Y363082D01*
X171218Y368787D01*
X171229Y368776D01*
X172533Y370302D01*
X173582Y372014D01*
X174350Y373869D01*
X174819Y375822D01*
X174976Y377823D01*
X174961D01*
X174961Y377823D01*
Y384690D01*
X174962Y384697D01*
Y389303D01*
X174961Y389310D01*
Y392690D01*
X174962Y392697D01*
Y397303D01*
X174863Y397802D01*
X174580Y398226D01*
X174157Y398508D01*
X173658Y398608D01*
X170705D01*
X170206Y398508D01*
X169782Y398226D01*
X169500Y397802D01*
X169400Y397303D01*
Y392697D01*
X169402Y392690D01*
Y389310D01*
X169400Y389303D01*
Y384697D01*
X169402Y384690D01*
Y378323D01*
X169401Y377823D01*
X169362Y377339D01*
X169271Y376413D01*
X168860Y375057D01*
X168192Y373807D01*
X167316Y372741D01*
X167287Y372718D01*
X161582Y367013D01*
X161570Y367024D01*
X160266Y365497D01*
X159217Y363785D01*
X158449Y361930D01*
X157980Y359978D01*
X157823Y357976D01*
X157838D01*
X157838Y357975D01*
Y339567D01*
X156051D01*
Y331612D01*
X155681Y331277D01*
X155142Y331330D01*
Y331330D01*
X155130Y331319D01*
X154189Y331443D01*
X153301Y331811D01*
X152922Y332102D01*
X152547Y332405D01*
X152198Y332753D01*
X142758Y342193D01*
X142405Y342547D01*
X142102Y342921D01*
X141811Y343301D01*
X141443Y344189D01*
X141381Y344663D01*
X141330Y345142D01*
X141330Y345142D01*
X141330Y345142D01*
Y357500D01*
X141208Y358735D01*
X140848Y359922D01*
X140263Y361017D01*
X139476Y361976D01*
X138517Y362763D01*
X137422Y363348D01*
X136235Y363708D01*
X135000Y363830D01*
X133765Y363708D01*
X132578Y363348D01*
X131483Y362763D01*
X130524Y361976D01*
X130524Y361976D01*
X114024Y345476D01*
X113237Y344517D01*
X112746Y343597D01*
X112246Y343722D01*
Y382596D01*
X112632Y382913D01*
X112697Y382900D01*
X117303D01*
X117802Y382999D01*
X118226Y383282D01*
X118508Y383706D01*
X118542Y383875D01*
X119100D01*
X119791Y384012D01*
X120377Y384404D01*
X121167Y385194D01*
X122125D01*
X122170Y385116D01*
X122742Y384544D01*
X123442Y384140D01*
X124222Y383931D01*
X125030D01*
X125811Y384140D01*
X126510Y384544D01*
X127082Y385116D01*
X127486Y385816D01*
X127695Y386596D01*
Y387404D01*
X127486Y388184D01*
X127082Y388884D01*
X126510Y389456D01*
X125811Y389860D01*
X125030Y390069D01*
X124222D01*
X123442Y389860D01*
X122742Y389456D01*
X122170Y388884D01*
X122125Y388806D01*
X120419D01*
X119728Y388669D01*
X119141Y388277D01*
X118874Y388010D01*
X118230Y388073D01*
X118226Y388080D01*
X117802Y388363D01*
X117303Y388462D01*
X113995D01*
X113759Y388896D01*
X113748Y388962D01*
X114127Y389455D01*
X114127Y389456D01*
X114127Y389456D01*
X114343Y389978D01*
X121111Y396746D01*
X121581Y396509D01*
X121766Y395815D01*
X122170Y395116D01*
X122742Y394544D01*
X123442Y394140D01*
X124222Y393931D01*
X125030D01*
X125811Y394140D01*
X126510Y394544D01*
X127082Y395116D01*
X127486Y395815D01*
X127695Y396596D01*
Y397404D01*
X127486Y398184D01*
X127082Y398884D01*
X126510Y399456D01*
X125811Y399860D01*
X125118Y400045D01*
X124880Y400515D01*
X126600Y402235D01*
X265374D01*
X266607Y402397D01*
X267757Y402873D01*
X268743Y403630D01*
X269501Y404617D01*
X269977Y405767D01*
X270139Y407000D01*
X269977Y408233D01*
X269501Y409383D01*
X268743Y410369D01*
X267757Y411127D01*
X266607Y411603D01*
X265374Y411765D01*
X245880D01*
X245636Y412201D01*
X245770Y412421D01*
X246657Y414562D01*
X247198Y416816D01*
X247380Y419126D01*
X247380D01*
X247533Y419563D01*
X248319D01*
Y427437D01*
X247375D01*
Y439563D01*
X248319D01*
Y447437D01*
X245240D01*
X244993Y447627D01*
X243844Y448103D01*
X242610Y448265D01*
X241377Y448103D01*
X240228Y447627D01*
X239980Y447437D01*
X236901D01*
Y439563D01*
X237845D01*
Y427437D01*
X236901D01*
Y419563D01*
X237845D01*
Y419126D01*
X237863Y418990D01*
X237701Y417762D01*
X237175Y416491D01*
X236637Y415790D01*
X236312Y415425D01*
X235958Y415071D01*
X232652Y411765D01*
X136074D01*
X135829Y412201D01*
X136270Y412921D01*
X137157Y415062D01*
X137698Y417316D01*
X137875Y419563D01*
X138819D01*
Y427437D01*
X137875D01*
Y439563D01*
X138819D01*
Y447437D01*
X135740D01*
X135493Y447627D01*
X134344Y448103D01*
X133110Y448265D01*
X131877Y448103D01*
X130728Y447627D01*
X130480Y447437D01*
X127401D01*
Y439563D01*
X128345D01*
Y427437D01*
X127401D01*
Y419563D01*
X127872D01*
X128307Y419063D01*
X128201Y418262D01*
X127675Y416991D01*
X127137Y416290D01*
X126812Y415925D01*
X126458Y415571D01*
X121256Y410369D01*
X106631Y395743D01*
X105873Y394757D01*
X105657Y394233D01*
X104111Y392688D01*
X103806Y392291D01*
X103554Y392322D01*
X103306Y392460D01*
Y473852D01*
X124548Y495094D01*
X147720D01*
X147927Y494594D01*
X147684Y494351D01*
X147180Y493478D01*
X146919Y492504D01*
Y491496D01*
X147180Y490522D01*
X147684Y489649D01*
X148397Y488936D01*
X149270Y488432D01*
X150244Y488171D01*
X151252D01*
X152226Y488432D01*
X153099Y488936D01*
X153812Y489649D01*
X154316Y490522D01*
X154577Y491496D01*
Y492504D01*
X154316Y493478D01*
X153812Y494351D01*
X153569Y494594D01*
X153776Y495094D01*
X170848D01*
X172830Y493111D01*
X172667Y492504D01*
Y491496D01*
X172928Y490522D01*
X173432Y489649D01*
X174145Y488936D01*
X175018Y488432D01*
X175992Y488171D01*
X177000D01*
X177974Y488432D01*
X178847Y488936D01*
X179560Y489649D01*
X180064Y490522D01*
X180325Y491496D01*
Y492504D01*
X180064Y493478D01*
X179560Y494351D01*
X178847Y495064D01*
X177974Y495568D01*
X177000Y495829D01*
X175992D01*
X175385Y495666D01*
X172873Y498177D01*
X172287Y498569D01*
X171596Y498706D01*
X169324D01*
X169117Y499206D01*
X169560Y499649D01*
X170064Y500522D01*
X170325Y501496D01*
Y502504D01*
X170064Y503478D01*
X169560Y504351D01*
X168847Y505064D01*
X167974Y505568D01*
X167000Y505829D01*
X165992D01*
X165018Y505568D01*
X164145Y505064D01*
X163432Y504351D01*
X162928Y503478D01*
X162667Y502504D01*
Y501496D01*
X162928Y500522D01*
X163432Y499649D01*
X163875Y499206D01*
X163668Y498706D01*
X153576D01*
X153369Y499206D01*
X153812Y499649D01*
X154316Y500522D01*
X154577Y501496D01*
Y502504D01*
X154316Y503478D01*
X153812Y504351D01*
X153099Y505064D01*
X152226Y505568D01*
X151252Y505829D01*
X150244D01*
X149270Y505568D01*
X148397Y505064D01*
X147684Y504351D01*
X147180Y503478D01*
X146919Y502504D01*
Y501496D01*
X147180Y500522D01*
X147684Y499649D01*
X148127Y499206D01*
X147920Y498706D01*
X143576D01*
X143369Y499206D01*
X143812Y499649D01*
X144316Y500522D01*
X144577Y501496D01*
Y502504D01*
X144316Y503478D01*
X143812Y504351D01*
X143099Y505064D01*
X142226Y505568D01*
X141252Y505829D01*
X140244D01*
X139270Y505568D01*
X138397Y505064D01*
X137684Y504351D01*
X137180Y503478D01*
X136919Y502504D01*
Y501496D01*
X137180Y500522D01*
X137684Y499649D01*
X138127Y499206D01*
X137920Y498706D01*
X123800D01*
X123109Y498569D01*
X122523Y498177D01*
X100742Y476396D01*
X100280Y476588D01*
Y528454D01*
X100270Y528529D01*
X100436Y530219D01*
X100951Y531916D01*
X101787Y533481D01*
X102913Y534852D01*
X104284Y535977D01*
X105848Y536813D01*
X107546Y537328D01*
X108824Y537454D01*
X109311Y537485D01*
X109311Y537485D01*
X475454D01*
X475529Y537495D01*
X477219Y537328D01*
D02*
G37*
%LPC*%
G36*
X458158Y261608D02*
X455205D01*
X454706Y261508D01*
X454282Y261226D01*
X454000Y260802D01*
X453900Y260303D01*
Y255697D01*
X454000Y255198D01*
X454282Y254774D01*
X454524Y254613D01*
X454875Y254291D01*
X454737Y253600D01*
Y253142D01*
X453591D01*
Y245858D01*
X459496D01*
Y253142D01*
X458763D01*
X458446Y253528D01*
X458488Y253738D01*
Y254458D01*
X458657Y254492D01*
X459080Y254774D01*
X459363Y255198D01*
X459462Y255697D01*
Y260303D01*
X459363Y260802D01*
X459080Y261226D01*
X458657Y261508D01*
X458158Y261608D01*
D02*
G37*
G36*
X469450Y523146D02*
X467550D01*
X465687Y522775D01*
X463931Y522048D01*
X462351Y520992D01*
X461008Y519649D01*
X459952Y518069D01*
X459225Y516314D01*
X458854Y514450D01*
Y512550D01*
X459225Y510686D01*
X459952Y508931D01*
X461008Y507351D01*
X462351Y506008D01*
X463931Y504952D01*
X465687Y504225D01*
X467550Y503854D01*
X469450D01*
X471313Y504225D01*
X473069Y504952D01*
X474649Y506008D01*
X475992Y507351D01*
X477048Y508931D01*
X477775Y510686D01*
X478146Y512550D01*
Y514450D01*
X477775Y516314D01*
X477048Y518069D01*
X475992Y519649D01*
X474649Y520992D01*
X473069Y522048D01*
X471313Y522775D01*
X469450Y523146D01*
D02*
G37*
G36*
X119950D02*
X118050D01*
X116186Y522775D01*
X114431Y522048D01*
X112851Y520992D01*
X111508Y519649D01*
X110452Y518069D01*
X109725Y516314D01*
X109354Y514450D01*
Y512550D01*
X109725Y510686D01*
X110452Y508931D01*
X111508Y507351D01*
X112851Y506008D01*
X114431Y504952D01*
X116186Y504225D01*
X118050Y503854D01*
X119950D01*
X121813Y504225D01*
X123569Y504952D01*
X125149Y506008D01*
X126492Y507351D01*
X127548Y508931D01*
X128275Y510686D01*
X128646Y512550D01*
Y514450D01*
X128275Y516314D01*
X127548Y518069D01*
X126492Y519649D01*
X125149Y520992D01*
X123569Y522048D01*
X121813Y522775D01*
X119950Y523146D01*
D02*
G37*
G36*
X201504Y505829D02*
X200496D01*
X199522Y505568D01*
X198649Y505064D01*
X197936Y504351D01*
X197432Y503478D01*
X197171Y502504D01*
Y501496D01*
X197432Y500522D01*
X197936Y499649D01*
X198649Y498936D01*
X199522Y498432D01*
X200496Y498171D01*
X201504D01*
X202478Y498432D01*
X203351Y498936D01*
X204064Y499649D01*
X204568Y500522D01*
X204829Y501496D01*
Y502504D01*
X204568Y503478D01*
X204064Y504351D01*
X203351Y505064D01*
X202478Y505568D01*
X201504Y505829D01*
D02*
G37*
G36*
X191504D02*
X190496D01*
X189522Y505568D01*
X188649Y505064D01*
X187936Y504351D01*
X187432Y503478D01*
X187171Y502504D01*
Y501496D01*
X187432Y500522D01*
X187936Y499649D01*
X188649Y498936D01*
X189522Y498432D01*
X190496Y498171D01*
X191504D01*
X192478Y498432D01*
X193351Y498936D01*
X194064Y499649D01*
X194568Y500522D01*
X194829Y501496D01*
Y502504D01*
X194568Y503478D01*
X194064Y504351D01*
X193351Y505064D01*
X192478Y505568D01*
X191504Y505829D01*
D02*
G37*
G36*
X177000D02*
X175992D01*
X175018Y505568D01*
X174145Y505064D01*
X173432Y504351D01*
X172928Y503478D01*
X172667Y502504D01*
Y501496D01*
X172928Y500522D01*
X173432Y499649D01*
X174145Y498936D01*
X175018Y498432D01*
X175992Y498171D01*
X177000D01*
X177974Y498432D01*
X178847Y498936D01*
X179560Y499649D01*
X180064Y500522D01*
X180325Y501496D01*
Y502504D01*
X180064Y503478D01*
X179560Y504351D01*
X178847Y505064D01*
X177974Y505568D01*
X177000Y505829D01*
D02*
G37*
G36*
X308921Y503921D02*
X299079D01*
Y494079D01*
X308921D01*
Y503921D01*
D02*
G37*
G36*
X191504Y495829D02*
X190496D01*
X189522Y495568D01*
X188649Y495064D01*
X187936Y494351D01*
X187432Y493478D01*
X187171Y492504D01*
Y491496D01*
X187432Y490522D01*
X187936Y489649D01*
X188649Y488936D01*
X189522Y488432D01*
X190496Y488171D01*
X191504D01*
X192478Y488432D01*
X193351Y488936D01*
X194064Y489649D01*
X194568Y490522D01*
X194829Y491496D01*
Y492504D01*
X194568Y493478D01*
X194064Y494351D01*
X193351Y495064D01*
X192478Y495568D01*
X191504Y495829D01*
D02*
G37*
G36*
X253421Y478921D02*
X243579D01*
Y469079D01*
X253421D01*
Y478921D01*
D02*
G37*
G36*
X291950Y473646D02*
X290050D01*
X288187Y473275D01*
X286431Y472548D01*
X284851Y471492D01*
X283508Y470149D01*
X282452Y468569D01*
X281725Y466814D01*
X281354Y464950D01*
Y463050D01*
X281725Y461187D01*
X282452Y459431D01*
X283508Y457851D01*
X284851Y456508D01*
X286431Y455452D01*
X288187Y454725D01*
X290050Y454354D01*
X291950D01*
X293813Y454725D01*
X295569Y455452D01*
X297149Y456508D01*
X298492Y457851D01*
X299548Y459431D01*
X300275Y461187D01*
X300646Y463050D01*
Y464950D01*
X300275Y466814D01*
X299548Y468569D01*
X298492Y470149D01*
X297149Y471492D01*
X295569Y472548D01*
X293813Y473275D01*
X291950Y473646D01*
D02*
G37*
G36*
X388000Y457163D02*
X386332Y457031D01*
X384705Y456641D01*
X383159Y456001D01*
X381733Y455126D01*
X380460Y454040D01*
X366389Y439969D01*
X366381Y439977D01*
X364598Y437944D01*
X363096Y435695D01*
X361899Y433270D01*
X361030Y430709D01*
X360503Y428056D01*
X360326Y425358D01*
X360337Y425358D01*
Y397500D01*
X360469Y395832D01*
X360859Y394205D01*
X361499Y392659D01*
X362374Y391233D01*
X363460Y389960D01*
X364733Y388874D01*
X366159Y387999D01*
X367705Y387359D01*
X369332Y386968D01*
X371000Y386837D01*
X372668Y386968D01*
X374295Y387359D01*
X375841Y387999D01*
X377267Y388874D01*
X378540Y389960D01*
X379626Y391233D01*
X380501Y392659D01*
X381141Y394205D01*
X381532Y395832D01*
X381663Y397500D01*
Y425083D01*
X395540Y438960D01*
X396626Y440233D01*
X397501Y441659D01*
X398141Y443205D01*
X398532Y444832D01*
X398663Y446500D01*
X398532Y448168D01*
X398141Y449795D01*
X397501Y451341D01*
X396626Y452767D01*
X395540Y454040D01*
X394267Y455126D01*
X392841Y456001D01*
X391295Y456641D01*
X389668Y457031D01*
X388000Y457163D01*
D02*
G37*
G36*
X235030Y400069D02*
X234222D01*
X233441Y399860D01*
X232742Y399456D01*
X232170Y398884D01*
X231766Y398184D01*
X231557Y397404D01*
Y396596D01*
X231766Y395815D01*
X232170Y395116D01*
X232742Y394544D01*
X233441Y394140D01*
X234222Y393931D01*
X235030D01*
X235811Y394140D01*
X236510Y394544D01*
X237082Y395116D01*
X237486Y395815D01*
X237695Y396596D01*
Y397404D01*
X237486Y398184D01*
X237082Y398884D01*
X236510Y399456D01*
X235811Y399860D01*
X235030Y400069D01*
D02*
G37*
G36*
X265778D02*
X264970D01*
X264189Y399860D01*
X263490Y399456D01*
X262918Y398884D01*
X262514Y398184D01*
X262305Y397404D01*
Y396596D01*
X262514Y395815D01*
X262918Y395116D01*
X263490Y394544D01*
X264189Y394140D01*
X264970Y393931D01*
X265778D01*
X266559Y394140D01*
X266697Y394220D01*
X272990D01*
X272990Y394220D01*
Y394220D01*
X273468Y394166D01*
X274041Y394091D01*
X275019Y393685D01*
X275038Y393671D01*
Y392697D01*
X275137Y392198D01*
X275420Y391774D01*
X275843Y391492D01*
X276343Y391392D01*
X279295D01*
X279795Y391492D01*
X280218Y391774D01*
X280501Y392198D01*
X280600Y392697D01*
Y397303D01*
X280501Y397802D01*
X280218Y398226D01*
X279795Y398508D01*
X279295Y398608D01*
X277539D01*
X276676Y399069D01*
X274869Y399617D01*
X272990Y399802D01*
X272990Y399780D01*
X266697D01*
X266559Y399860D01*
X265778Y400069D01*
D02*
G37*
G36*
X155778D02*
X154970D01*
X154190Y399860D01*
X153490Y399456D01*
X152918Y398884D01*
X152514Y398184D01*
X152305Y397404D01*
Y396596D01*
X152514Y395815D01*
X152918Y395116D01*
X153490Y394544D01*
X154190Y394140D01*
X154970Y393931D01*
X155778D01*
X156559Y394140D01*
X156697Y394220D01*
X159991D01*
X159991Y394220D01*
Y394220D01*
X160468Y394166D01*
X161041Y394091D01*
X162019Y393685D01*
X162038Y393671D01*
Y392697D01*
X162137Y392198D01*
X162420Y391774D01*
X162843Y391492D01*
X163343Y391392D01*
X166295D01*
X166795Y391492D01*
X167218Y391774D01*
X167501Y392198D01*
X167600Y392697D01*
Y397303D01*
X167501Y397802D01*
X167218Y398226D01*
X166795Y398508D01*
X166295Y398608D01*
X164539D01*
X163676Y399069D01*
X161869Y399617D01*
X159991Y399802D01*
X159990Y399780D01*
X156697D01*
X156559Y399860D01*
X155778Y400069D01*
D02*
G37*
G36*
X279295Y390608D02*
X276343D01*
X275843Y390508D01*
X275420Y390226D01*
X275137Y389802D01*
X275133Y389780D01*
X266697D01*
X266559Y389860D01*
X265778Y390069D01*
X264970D01*
X264189Y389860D01*
X263490Y389456D01*
X262918Y388884D01*
X262514Y388184D01*
X262305Y387404D01*
Y386596D01*
X262514Y385816D01*
X262918Y385116D01*
X263490Y384544D01*
X264189Y384140D01*
X264970Y383931D01*
X265778D01*
X266559Y384140D01*
X266697Y384220D01*
X275133D01*
X275137Y384198D01*
X275420Y383774D01*
X275843Y383492D01*
X276343Y383392D01*
X279295D01*
X279795Y383492D01*
X280218Y383774D01*
X280501Y384198D01*
X280600Y384697D01*
Y389303D01*
X280501Y389802D01*
X280218Y390226D01*
X279795Y390508D01*
X279295Y390608D01*
D02*
G37*
G36*
X235030Y390069D02*
X234222D01*
X233441Y389860D01*
X233303Y389780D01*
X227184D01*
X227184Y389791D01*
X225761Y389651D01*
X224393Y389236D01*
X223132Y388562D01*
X223010Y388462D01*
X221697D01*
X221198Y388363D01*
X220774Y388080D01*
X220492Y387657D01*
X220392Y387158D01*
Y384205D01*
X220492Y383706D01*
X220774Y383282D01*
X221198Y382999D01*
X221697Y382900D01*
X226303D01*
X226802Y382999D01*
X227226Y383282D01*
X227508Y383706D01*
X227608Y384205D01*
Y384220D01*
X233303D01*
X233441Y384140D01*
X234222Y383931D01*
X235030D01*
X235811Y384140D01*
X236510Y384544D01*
X237082Y385116D01*
X237486Y385816D01*
X237695Y386596D01*
Y387404D01*
X237486Y388184D01*
X237082Y388884D01*
X236510Y389456D01*
X235811Y389860D01*
X235030Y390069D01*
D02*
G37*
G36*
X166295Y390608D02*
X163343D01*
X162843Y390508D01*
X162420Y390226D01*
X162137Y389802D01*
X162133Y389780D01*
X156697D01*
X156559Y389860D01*
X155778Y390069D01*
X154970D01*
X154190Y389860D01*
X153490Y389456D01*
X152918Y388884D01*
X152514Y388184D01*
X152305Y387404D01*
Y386596D01*
X152514Y385816D01*
X152918Y385116D01*
X153490Y384544D01*
X154190Y384140D01*
X154970Y383931D01*
X155778D01*
X156559Y384140D01*
X156697Y384220D01*
X162133D01*
X162137Y384198D01*
X162420Y383774D01*
X162843Y383492D01*
X163343Y383392D01*
X166295D01*
X166795Y383492D01*
X167218Y383774D01*
X167501Y384198D01*
X167600Y384697D01*
Y389303D01*
X167501Y389802D01*
X167218Y390226D01*
X166795Y390508D01*
X166295Y390608D01*
D02*
G37*
G36*
X415130Y496533D02*
X388000D01*
X386332Y496402D01*
X384705Y496011D01*
X383159Y495371D01*
X381733Y494496D01*
X380460Y493410D01*
X379374Y492137D01*
X378499Y490711D01*
X377859Y489165D01*
X377468Y487538D01*
X377337Y485870D01*
X377468Y484202D01*
X377859Y482575D01*
X378499Y481029D01*
X379374Y479603D01*
X380460Y478330D01*
X381733Y477244D01*
X383159Y476369D01*
X384705Y475729D01*
X386332Y475339D01*
X388000Y475207D01*
X410713D01*
X419337Y466583D01*
Y428417D01*
X395960Y405040D01*
X394874Y403767D01*
X393999Y402341D01*
X393359Y400795D01*
X392969Y399168D01*
X392837Y397500D01*
X392969Y395832D01*
X393359Y394205D01*
X393999Y392659D01*
X394874Y391233D01*
X395960Y389960D01*
X397233Y388874D01*
X398659Y387999D01*
X400205Y387359D01*
X401832Y386968D01*
X403500Y386837D01*
X405168Y386968D01*
X406795Y387359D01*
X408341Y387999D01*
X409767Y388874D01*
X411040Y389960D01*
X437540Y416460D01*
X438626Y417733D01*
X439501Y419159D01*
X440141Y420705D01*
X440531Y422332D01*
X440663Y424000D01*
Y471000D01*
X440531Y472668D01*
X440141Y474295D01*
X439501Y475841D01*
X438626Y477267D01*
X437540Y478540D01*
X422670Y493410D01*
X421397Y494496D01*
X419971Y495371D01*
X418425Y496011D01*
X416798Y496402D01*
X415130Y496533D01*
D02*
G37*
G36*
X286658Y398608D02*
X283705D01*
X283206Y398508D01*
X282782Y398226D01*
X282500Y397802D01*
X282400Y397303D01*
Y392697D01*
X282500Y392198D01*
X282782Y391774D01*
X283206Y391492D01*
X283220Y391489D01*
Y390511D01*
X283206Y390508D01*
X282782Y390226D01*
X282500Y389802D01*
X282400Y389303D01*
Y384697D01*
X282500Y384198D01*
X282782Y383774D01*
X283206Y383492D01*
X283220Y383489D01*
Y376500D01*
X283226Y376455D01*
X283080Y375346D01*
X282635Y374271D01*
X281933Y373356D01*
X281918Y373355D01*
X281918D01*
X281476Y372780D01*
X281198Y372109D01*
X281104Y371390D01*
X281198Y370670D01*
X281476Y370000D01*
X281918Y369424D01*
X282493Y368983D01*
X283164Y368705D01*
X283883Y368610D01*
X284603Y368705D01*
X285273Y368983D01*
X285849Y369424D01*
X285866Y369407D01*
X287114Y370927D01*
X288041Y372661D01*
X288612Y374543D01*
X288804Y376500D01*
X288780D01*
Y393023D01*
X288804D01*
X288613Y394472D01*
X288054Y395823D01*
X287962Y395942D01*
Y397303D01*
X287863Y397802D01*
X287580Y398226D01*
X287157Y398508D01*
X286658Y398608D01*
D02*
G37*
G36*
X192450Y388646D02*
X190550D01*
X188687Y388275D01*
X186931Y387548D01*
X185351Y386492D01*
X184008Y385149D01*
X182952Y383569D01*
X182225Y381814D01*
X181854Y379950D01*
Y378050D01*
X182225Y376186D01*
X182952Y374431D01*
X184008Y372851D01*
X185351Y371508D01*
X186931Y370452D01*
X188687Y369725D01*
X190550Y369354D01*
X192450D01*
X194314Y369725D01*
X196069Y370452D01*
X197649Y371508D01*
X198992Y372851D01*
X200048Y374431D01*
X200775Y376186D01*
X201146Y378050D01*
Y379950D01*
X200775Y381814D01*
X200048Y383569D01*
X198992Y385149D01*
X197649Y386492D01*
X196069Y387548D01*
X194314Y388275D01*
X192450Y388646D01*
D02*
G37*
G36*
X441500Y408163D02*
X439832Y408032D01*
X438205Y407641D01*
X436659Y407001D01*
X435233Y406126D01*
X433960Y405040D01*
X397519Y368599D01*
X397519D01*
X397511Y368606D01*
X395728Y366573D01*
X394226Y364325D01*
X393029Y361899D01*
X392160Y359339D01*
X391633Y356686D01*
X391456Y353988D01*
X391467D01*
X391467Y353987D01*
Y314500D01*
X391599Y312832D01*
X391989Y311205D01*
X392629Y309659D01*
X393504Y308233D01*
X394590Y306960D01*
X395863Y305874D01*
X397289Y304999D01*
X398835Y304359D01*
X400462Y303969D01*
X402130Y303837D01*
X403798Y303969D01*
X405425Y304359D01*
X406971Y304999D01*
X408397Y305874D01*
X409670Y306960D01*
X410756Y308233D01*
X411631Y309659D01*
X412271Y311205D01*
X412662Y312832D01*
X412793Y314500D01*
Y353713D01*
X449040Y389960D01*
X450126Y391233D01*
X451001Y392659D01*
X451641Y394205D01*
X452032Y395832D01*
X452163Y397500D01*
X452032Y399168D01*
X451641Y400795D01*
X451001Y402341D01*
X450126Y403767D01*
X449040Y405040D01*
X447767Y406126D01*
X446341Y407001D01*
X444795Y407641D01*
X443168Y408032D01*
X441500Y408163D01*
D02*
G37*
G36*
X255303Y335100D02*
X250697D01*
X250198Y335001D01*
X249774Y334718D01*
X249492Y334295D01*
X249392Y333795D01*
Y330843D01*
X249492Y330343D01*
X249774Y329920D01*
X250198Y329637D01*
X250220Y329633D01*
Y328367D01*
X250198Y328363D01*
X249774Y328080D01*
X249492Y327657D01*
X249392Y327158D01*
Y324205D01*
X249492Y323706D01*
X249774Y323282D01*
X250198Y323000D01*
X250697Y322900D01*
X255303D01*
X255802Y323000D01*
X256226Y323282D01*
X256508Y323706D01*
X256608Y324205D01*
Y327158D01*
X256508Y327657D01*
X256226Y328080D01*
X255802Y328363D01*
X255780Y328367D01*
Y329633D01*
X255802Y329637D01*
X256226Y329920D01*
X256508Y330343D01*
X256608Y330843D01*
Y333795D01*
X256508Y334295D01*
X256226Y334718D01*
X255802Y335001D01*
X255303Y335100D01*
D02*
G37*
G36*
X371450Y261646D02*
X369550D01*
X367687Y261275D01*
X365931Y260548D01*
X364351Y259492D01*
X363008Y258149D01*
X361952Y256569D01*
X361225Y254814D01*
X360854Y252950D01*
Y251050D01*
X361225Y249186D01*
X361952Y247431D01*
X363008Y245851D01*
X364351Y244508D01*
X365931Y243452D01*
X367687Y242725D01*
X369550Y242354D01*
X371450D01*
X373313Y242725D01*
X375069Y243452D01*
X376649Y244508D01*
X377992Y245851D01*
X379048Y247431D01*
X379775Y249186D01*
X380146Y251050D01*
Y252950D01*
X379775Y254814D01*
X379048Y256569D01*
X377992Y258149D01*
X376649Y259492D01*
X375069Y260548D01*
X373313Y261275D01*
X371450Y261646D01*
D02*
G37*
G36*
X181142Y219409D02*
X173858D01*
Y219236D01*
X168832D01*
Y219240D01*
X167990Y219129D01*
X167919Y219100D01*
X166197D01*
X165698Y219001D01*
X165274Y218718D01*
X164992Y218295D01*
X164892Y217795D01*
Y214843D01*
X164992Y214343D01*
X165274Y213920D01*
X165698Y213637D01*
X166197Y213538D01*
X168832D01*
Y213458D01*
X169025Y213538D01*
X170803D01*
X171302Y213637D01*
X171362Y213677D01*
X173858D01*
Y213504D01*
X181142D01*
Y219409D01*
D02*
G37*
%LPD*%
D11*
X389000Y257586D02*
X388884Y258470D01*
X388543Y259293D01*
X388000Y260000D01*
X389000Y257586D02*
X388884Y258470D01*
X388543Y259293D01*
X388000Y260000D01*
X410501Y245181D02*
X409472Y245123D01*
X408455Y244951D01*
X407465Y244665D01*
X406512Y244271D01*
X405610Y243772D01*
X404769Y243175D01*
X404000Y242488D01*
X410501Y245181D02*
X409472Y245123D01*
X408455Y244951D01*
X407465Y244665D01*
X406512Y244271D01*
X405610Y243772D01*
X404769Y243175D01*
X404000Y242488D01*
X189500Y203756D02*
X188808Y204375D01*
X188050Y204912D01*
X187238Y205361D01*
X186380Y205717D01*
X185488Y205974D01*
X184572Y206129D01*
X183645Y206181D01*
X411413Y236796D02*
X411415Y236798D01*
X411413Y236796D02*
X411415Y236798D01*
X389000Y242488D02*
Y257586D01*
X382600Y242400D02*
X389000D01*
X204500Y204900D02*
X226700D01*
X220000Y202110D02*
X223910D01*
X195500Y297200D02*
X217063Y275637D01*
X221900Y232600D02*
Y253718D01*
X210353Y231477D02*
Y231500D01*
X204500Y228300D02*
X207143D01*
X207143D01*
X199500Y220500D02*
X204500D01*
X189689Y285929D02*
X217063Y258555D01*
X146962Y317638D02*
X167400Y297200D01*
X189500Y223244D02*
X194500D01*
X146642Y278500D02*
X169000D01*
X146642D02*
X146642D01*
X256300Y443500D02*
Y447100D01*
X444445Y256156D02*
X449319D01*
X425550Y244250D02*
X426400Y245100D01*
X424619Y245181D02*
X433471D01*
X423788Y242488D02*
X425550Y244250D01*
X388000Y273700D02*
X408300D01*
X410501Y245181D02*
X412000D01*
X404000Y242488D02*
X423788D01*
X286500Y191500D02*
Y192500D01*
X193300Y215000D02*
X220000D01*
X189500Y203756D02*
Y211200D01*
X180500Y206181D02*
X183645D01*
X167700Y223681D02*
Y241985D01*
X440300Y223000D02*
X444500Y227200D01*
X404000Y220300D02*
X407500D01*
X385500Y221500D02*
X386000D01*
X385500Y220300D02*
Y221500D01*
Y220300D02*
X389000D01*
X411415Y236798D02*
X411452Y236835D01*
X118200Y338681D02*
Y341000D01*
X285181Y387000D02*
Y395000D01*
X127000Y263000D02*
Y265929D01*
X139571Y278500D01*
X178418Y297200D02*
X189689Y285929D01*
X101500Y283700D02*
X106700Y278500D01*
X101500Y474600D02*
X123800Y496900D01*
X101500Y283700D02*
Y474600D01*
X106700Y278500D02*
X139571D01*
X226700Y204900D02*
X248500Y226700D01*
X223910Y202110D02*
X226700Y204900D01*
X231800D01*
X217063Y258555D02*
Y275637D01*
Y236063D02*
Y258555D01*
X221900Y253718D01*
X167118Y308500D02*
X178418Y297200D01*
X160618Y315000D02*
X167118Y308500D01*
X178418Y297200D02*
X195500D01*
X167400D02*
X178418D01*
X244681Y339681D02*
X253000D01*
X242919D02*
X244681D01*
X252000Y347000D01*
X238600Y333600D02*
X244681Y339681D01*
X425550Y244250D02*
X427300Y242500D01*
X424619Y245181D02*
X425550Y244250D01*
X168919Y206181D02*
X173803D01*
X164800Y223681D02*
X167700D01*
X444500Y227200D02*
X478800Y261500D01*
X444500Y227200D02*
Y233700D01*
Y223000D02*
Y227200D01*
X237000Y310520D02*
Y313600D01*
Y309000D02*
Y310520D01*
Y297500D02*
Y309000D01*
X169000Y278500D02*
X184500Y263000D01*
X123800Y496900D02*
X171596D01*
X176496Y492000D01*
X449319Y256156D02*
Y258000D01*
X433471Y245181D02*
X444445Y256156D01*
X412000Y245181D02*
X424619D01*
X234626Y359874D02*
Y377000D01*
Y359874D02*
X237000Y357500D01*
X256300Y443500D02*
X256390D01*
X252800Y450600D02*
X256300Y447100D01*
X207896Y450600D02*
X252800D01*
X166496Y492000D02*
X207896Y450600D01*
X140748Y449642D02*
Y492000D01*
Y449642D02*
X146890Y443500D01*
X474100Y493200D02*
X478800Y488500D01*
Y261500D02*
Y488500D01*
X407500Y223000D02*
X440300D01*
X394000D02*
Y227200D01*
X390000Y228200D02*
X394000Y227200D01*
X389000Y223000D02*
X390000Y228200D01*
X199500Y199100D02*
X202000Y196600D01*
X199500Y199100D02*
Y203756D01*
X336000Y431700D02*
Y490000D01*
X320000Y415700D02*
X336000Y431700D01*
X320000Y341600D02*
Y415700D01*
Y341600D02*
X339400Y322200D01*
Y310200D02*
Y322200D01*
X336000Y306800D02*
X339400Y310200D01*
X314500Y306800D02*
X336000D01*
X273300Y265600D02*
X314500Y306800D01*
X273300Y246400D02*
Y265600D01*
X231800Y204900D02*
X273300Y246400D01*
X204500Y203756D02*
Y204900D01*
X241719Y318319D02*
X253000D01*
X237000Y313600D02*
X241719Y318319D01*
X220000Y215000D02*
Y215890D01*
X189500Y211200D02*
X193300Y215000D01*
X388000Y273700D02*
Y273780D01*
X117000Y317638D02*
X146962D01*
X210353Y231500D02*
X220800D01*
X221900Y232600D01*
X389000Y242400D02*
Y242488D01*
X342500Y191500D02*
X343500Y192500D01*
X237000Y345600D02*
X242919Y339681D01*
X237000Y345600D02*
Y357500D01*
X173803Y206181D02*
X180500D01*
X147122Y179500D02*
X173803Y206181D01*
X163900Y211200D02*
X168919Y206181D01*
X163900Y211200D02*
Y222781D01*
X164800Y223681D01*
X285000Y192500D02*
X286500D01*
X118200Y341000D02*
X118500D01*
X117000Y338681D02*
X118200D01*
X167700Y223681D02*
X168500D01*
X146685Y263000D02*
X167700Y241985D01*
X204500Y223244D02*
Y228300D01*
X389000Y220300D02*
Y223000D01*
X256390Y423500D02*
X272000D01*
X276100Y419400D01*
Y405200D02*
Y419400D01*
X272000Y401100D02*
X276100Y405200D01*
X262400Y401100D02*
X272000D01*
X261300Y400000D02*
X262400Y401100D01*
X261300Y381074D02*
Y400000D01*
Y381074D02*
X265374Y377000D01*
X204500Y220500D02*
Y223244D01*
X199500Y220500D02*
Y223244D01*
X407500Y220300D02*
Y223000D01*
X404000Y220300D02*
Y223000D01*
X402130Y397500D02*
X403500D01*
X256390Y423500D02*
Y443500D01*
X229919Y377000D02*
X234626D01*
X228600Y378319D02*
X229919Y377000D01*
X224000Y378319D02*
X228600D01*
X120419Y377000D02*
X124626D01*
X119100Y378319D02*
X120419Y377000D01*
X115000Y378319D02*
X119100D01*
X146890Y423500D02*
Y443500D01*
X449457Y238657D02*
Y249500D01*
X444500Y233700D02*
X449457Y238657D01*
X399000Y223000D02*
X404000D01*
X120419Y387000D02*
X124626D01*
X119100Y385681D02*
X120419Y387000D01*
X115000Y385681D02*
X119100D01*
X456681Y253738D02*
Y258000D01*
X456543Y253600D02*
X456681Y253738D01*
X456543Y249500D02*
Y253600D01*
X409207Y235500D02*
X410838Y236221D01*
X399038Y236615D02*
X400153Y235500D01*
X411452Y236835D02*
X412000Y237819D01*
X410838Y236221D02*
X411413Y236796D01*
X400153Y235500D02*
X409207D01*
X399000Y236707D02*
X399038Y236615D01*
X399000Y236707D02*
Y242488D01*
D15*
X412000Y245181D02*
D03*
Y237819D02*
D03*
X180500Y206181D02*
D03*
Y198819D02*
D03*
X168500Y216319D02*
D03*
Y223681D02*
D03*
X224000Y378319D02*
D03*
Y385681D02*
D03*
X115000Y378319D02*
D03*
Y385681D02*
D03*
X117000Y338681D02*
D03*
Y331319D02*
D03*
Y317638D02*
D03*
Y325000D02*
D03*
X253000Y318319D02*
D03*
Y325681D02*
D03*
Y339681D02*
D03*
Y332319D02*
D03*
D16*
X389000Y242488D02*
D03*
X394000D02*
D03*
X399000D02*
D03*
X404000D02*
D03*
Y223000D02*
D03*
X399000D02*
D03*
X394000D02*
D03*
X389000D02*
D03*
X204500Y203756D02*
D03*
X199500D02*
D03*
X194500D02*
D03*
X189500D02*
D03*
Y223244D02*
D03*
X194500D02*
D03*
X199500D02*
D03*
X204500D02*
D03*
D17*
X277819Y395000D02*
D03*
X285181D02*
D03*
X277819Y387000D02*
D03*
X285181D02*
D03*
X164819Y395000D02*
D03*
X172181D02*
D03*
X164819Y387000D02*
D03*
X172181D02*
D03*
X456681Y258000D02*
D03*
X449319D02*
D03*
D18*
X177500Y216457D02*
D03*
Y223543D02*
D03*
D19*
X456543Y249500D02*
D03*
X449457D02*
D03*
D20*
X146890Y423500D02*
D03*
X133110D02*
D03*
X146890Y443500D02*
D03*
X133110D02*
D03*
X256390Y423500D02*
D03*
X242610D02*
D03*
X256390Y443500D02*
D03*
X242610D02*
D03*
D21*
X220000Y202110D02*
D03*
Y215890D02*
D03*
X388000Y260000D02*
D03*
Y273780D02*
D03*
D46*
X220000Y202110D02*
X219148Y202809D01*
X218177Y203328D01*
X217123Y203648D01*
X216027Y203756D01*
X189500Y223244D02*
X188777Y223543D01*
X192500Y196000D02*
X193196Y196815D01*
X193756Y197728D01*
X194166Y198718D01*
X194416Y199760D01*
X194500Y200828D01*
X180500Y198819D02*
X181200Y198185D01*
X181958Y197622D01*
X182769Y197136D01*
X183623Y196733D01*
X184512Y196414D01*
X185428Y196185D01*
X186362Y196046D01*
X187306Y196000D01*
X164819Y395000D02*
X164004Y395696D01*
X163091Y396256D01*
X162101Y396666D01*
X161059Y396916D01*
X159991Y397000D01*
X164819Y395000D02*
X164004Y395696D01*
X163091Y396256D01*
X162101Y396666D01*
X161059Y396916D01*
X159991Y397000D01*
X227184Y387000D02*
X226306Y386913D01*
X225461Y386657D01*
X224682Y386241D01*
X224000Y385681D01*
X227184Y387000D02*
X226306Y386913D01*
X225461Y386657D01*
X224682Y386241D01*
X224000Y385681D01*
X277819Y395000D02*
X277004Y395696D01*
X276091Y396256D01*
X275101Y396666D01*
X274059Y396916D01*
X272990Y397000D01*
X277819Y395000D02*
X277004Y395696D01*
X276091Y396256D01*
X275101Y396666D01*
X274059Y396916D01*
X272990Y397000D01*
X475000Y473858D02*
X474952Y474838D01*
X474808Y475809D01*
X474569Y476761D01*
X474239Y477685D01*
X473819Y478572D01*
X473315Y479414D01*
X472730Y480202D01*
X472071Y480929D01*
X475000Y473858D02*
X474952Y474838D01*
X474808Y475809D01*
X474569Y476761D01*
X474239Y477685D01*
X473819Y478572D01*
X473315Y479414D01*
X472730Y480202D01*
X472071Y480929D01*
X446429Y506571D02*
X445702Y507230D01*
X444914Y507815D01*
X444072Y508319D01*
X443185Y508739D01*
X442261Y509069D01*
X441309Y509308D01*
X440338Y509452D01*
X439358Y509500D01*
X446429Y506571D02*
X445702Y507230D01*
X444914Y507815D01*
X444072Y508319D01*
X443185Y508739D01*
X442261Y509069D01*
X441309Y509308D01*
X440338Y509452D01*
X439358Y509500D01*
X445056Y262056D02*
X445318Y262347D01*
X445056Y262056D02*
X445318Y262347D01*
X435922Y252956D02*
X436429Y253429D01*
X435922Y252956D02*
X436429Y253429D01*
X270642Y509500D02*
X269662Y509452D01*
X268691Y509308D01*
X267739Y509069D01*
X266815Y508739D01*
X265928Y508319D01*
X265086Y507815D01*
X264298Y507230D01*
X263571Y506571D01*
X270642Y509500D02*
X269662Y509452D01*
X268691Y509308D01*
X267739Y509069D01*
X266815Y508739D01*
X265928Y508319D01*
X265086Y507815D01*
X264298Y507230D01*
X263571Y506571D01*
X244858Y492000D02*
X245838Y492048D01*
X246809Y492192D01*
X247761Y492431D01*
X248685Y492761D01*
X249572Y493181D01*
X250414Y493685D01*
X251202Y494270D01*
X251929Y494929D01*
X244858Y492000D02*
X245838Y492048D01*
X246809Y492192D01*
X247761Y492431D01*
X248685Y492761D01*
X249572Y493181D01*
X250414Y493685D01*
X251202Y494270D01*
X251929Y494929D01*
X169252Y370752D02*
X169911Y371479D01*
X170496Y372268D01*
X171000Y373109D01*
X171420Y373996D01*
X171750Y374920D01*
X171989Y375872D01*
X172133Y376843D01*
X172181Y377823D01*
X169252Y370752D02*
X169911Y371479D01*
X170496Y372268D01*
X171000Y373109D01*
X171420Y373996D01*
X171750Y374920D01*
X171989Y375872D01*
X172133Y376843D01*
X172181Y377823D01*
X163547Y365047D02*
X162888Y364320D01*
X162303Y363532D01*
X161799Y362690D01*
X161379Y361803D01*
X161049Y360879D01*
X160810Y359927D01*
X160666Y358956D01*
X160618Y357976D01*
X163547Y365047D02*
X162888Y364320D01*
X162303Y363532D01*
X161799Y362690D01*
X161379Y361803D01*
X161049Y360879D01*
X160810Y359927D01*
X160666Y358956D01*
X160618Y357976D01*
X286000Y393023D02*
X285787Y394093D01*
X285181Y395000D01*
X286000Y393023D02*
X285787Y394093D01*
X285181Y395000D01*
X168832Y216457D02*
X168500Y216319D01*
X283883Y371390D02*
X284507Y372101D01*
X285032Y372887D01*
X285450Y373734D01*
X285754Y374630D01*
X285938Y375557D01*
X286000Y376500D01*
X472064Y289064D02*
X472071Y289071D01*
X445551Y262605D02*
X445318Y262347D01*
X472071Y289071D02*
X472730Y289798D01*
X473315Y290586D01*
X473819Y291428D01*
X474239Y292315D01*
X474569Y293239D01*
X474808Y294191D01*
X474952Y295162D01*
X475000Y296142D01*
X204500Y203756D02*
X216027D01*
X177500Y223543D02*
X188777D01*
X187306Y196000D02*
X192500D01*
X155374Y397000D02*
X159990D01*
X227184Y387000D02*
X234626D01*
X265374Y397000D02*
X272990D01*
X475000Y296142D02*
Y473858D01*
X446429Y506571D02*
X472071Y480929D01*
X436429Y253429D02*
X445056Y262056D01*
X435466Y252500D02*
X435922Y252956D01*
X270642Y509500D02*
X439358D01*
X251929Y494929D02*
X263571Y506571D01*
X201000Y492000D02*
X244858D01*
X435466Y252500D02*
X435921Y252955D01*
X172181Y377823D02*
Y387000D01*
X163547Y365047D02*
X169252Y370752D01*
X286000Y376500D02*
Y393023D01*
X168832Y216457D02*
X177500D01*
X253000Y325681D02*
Y332319D01*
X117000Y325000D02*
Y331319D01*
X194500Y200828D02*
Y203756D01*
X434874Y252500D02*
X434875D01*
X435466D01*
X265374Y387000D02*
X277819D01*
X172181D02*
Y395000D01*
X160618Y335000D02*
Y357976D01*
X155374Y387000D02*
X164819D01*
X394000Y242488D02*
X394585Y243073D01*
Y250194D02*
X396891Y252500D01*
X434874D01*
X394585Y243073D02*
Y250194D01*
X445551Y262605D02*
X472064Y289064D01*
D47*
X239681Y412055D02*
X240340Y412782D01*
X240925Y413571D01*
X241429Y414412D01*
X241849Y415300D01*
X242180Y416224D01*
X242418Y417175D01*
X242562Y418146D01*
X242610Y419126D01*
X239681Y412055D02*
X240340Y412782D01*
X240925Y413571D01*
X241429Y414412D01*
X241849Y415300D01*
X242180Y416224D01*
X242418Y417175D01*
X242562Y418146D01*
X242610Y419126D01*
X130181Y412555D02*
X130840Y413282D01*
X131425Y414071D01*
X131930Y414913D01*
X132349Y415800D01*
X132680Y416724D01*
X132918Y417675D01*
X133062Y418646D01*
X133110Y419626D01*
X130181Y412555D02*
X130840Y413282D01*
X131425Y414071D01*
X131930Y414913D01*
X132349Y415800D01*
X132680Y416724D01*
X132918Y417675D01*
X133062Y418646D01*
X133110Y419626D01*
X234626Y407000D02*
X239681Y412055D01*
X124626Y407000D02*
X130181Y412555D01*
X107480Y321020D02*
X118500Y310000D01*
X110000Y391838D02*
Y392374D01*
X107480Y389318D02*
X110000Y391838D01*
X107480Y321020D02*
Y389318D01*
X110000Y392374D02*
X124626Y407000D01*
X242610Y423500D02*
Y443500D01*
Y419126D02*
Y423500D01*
X133110D02*
Y443500D01*
Y419626D02*
Y423500D01*
X234626Y407000D02*
X265374D01*
X155374D02*
X234626D01*
X124626D02*
X155374D01*
D48*
X229571Y248571D02*
X230230Y249298D01*
X230815Y250086D01*
X231319Y250928D01*
X231739Y251815D01*
X232069Y252739D01*
X232308Y253691D01*
X232452Y254662D01*
X232500Y255642D01*
X222929Y280071D02*
X222202Y280730D01*
X221414Y281315D01*
X220572Y281819D01*
X219685Y282239D01*
X218761Y282569D01*
X217809Y282808D01*
X216838Y282952D01*
X215858Y283000D01*
X222929Y280071D02*
X222202Y280730D01*
X221414Y281315D01*
X220572Y281819D01*
X219685Y282239D01*
X218761Y282569D01*
X217809Y282808D01*
X216838Y282952D01*
X215858Y283000D01*
X232500Y266358D02*
X232452Y267338D01*
X232308Y268309D01*
X232069Y269261D01*
X231739Y270185D01*
X231319Y271072D01*
X230815Y271914D01*
X230230Y272702D01*
X229571Y273429D01*
X232500Y266358D02*
X232452Y267338D01*
X232308Y268309D01*
X232069Y269261D01*
X231739Y270185D01*
X231319Y271072D01*
X230815Y271914D01*
X230230Y272702D01*
X229571Y273429D01*
Y248571D02*
X230230Y249298D01*
X230815Y250086D01*
X231319Y250928D01*
X231739Y251815D01*
X232069Y252739D01*
X232308Y253691D01*
X232452Y254662D01*
X232500Y255642D01*
X210353Y231477D02*
X209524Y230849D01*
X208761Y230143D01*
X208070Y229366D01*
X207143Y228300D02*
X208070Y229366D01*
X189689Y285929D02*
X190416Y285270D01*
X191205Y284685D01*
X192046Y284181D01*
X192933Y283761D01*
X193857Y283431D01*
X194809Y283192D01*
X195780Y283048D01*
X196760Y283000D01*
X189689Y285929D02*
X190416Y285270D01*
X191205Y284685D01*
X192046Y284181D01*
X192933Y283761D01*
X193857Y283431D01*
X194809Y283192D01*
X195780Y283048D01*
X196760Y283000D01*
X150142Y308500D02*
X149162Y308452D01*
X148191Y308308D01*
X147239Y308069D01*
X146315Y307739D01*
X145428Y307319D01*
X144586Y306815D01*
X143798Y306230D01*
X143071Y305571D01*
X150142Y308500D02*
X149162Y308452D01*
X148191Y308308D01*
X147239Y308069D01*
X146315Y307739D01*
X145428Y307319D01*
X144586Y306815D01*
X143798Y306230D01*
X143071Y305571D01*
X128172Y300328D02*
X128874Y299692D01*
X129635Y299128D01*
X130448Y298640D01*
X131305Y298235D01*
X132197Y297916D01*
X133116Y297686D01*
X134054Y297547D01*
X135000Y297500D01*
X128172Y300328D02*
X128874Y299692D01*
X129635Y299128D01*
X130448Y298640D01*
X131305Y298235D01*
X132197Y297916D01*
X133116Y297686D01*
X134054Y297547D01*
X135000Y297500D01*
X244429Y354571D02*
X243702Y355230D01*
X242914Y355815D01*
X242072Y356319D01*
X241185Y356739D01*
X240261Y357069D01*
X239309Y357308D01*
X238338Y357452D01*
X237358Y357500D01*
X244429Y354571D02*
X243702Y355230D01*
X242914Y355815D01*
X242072Y356319D01*
X241185Y356739D01*
X240261Y357069D01*
X239309Y357308D01*
X238338Y357452D01*
X237358Y357500D01*
X413858Y291000D02*
X414838Y291048D01*
X415809Y291192D01*
X416761Y291431D01*
X417685Y291761D01*
X418572Y292181D01*
X419414Y292685D01*
X420202Y293270D01*
X420929Y293929D01*
X413858Y291000D02*
X414838Y291048D01*
X415809Y291192D01*
X416761Y291431D01*
X417685Y291761D01*
X418572Y292181D01*
X419414Y292685D01*
X420202Y293270D01*
X420929Y293929D01*
X386000Y221500D02*
X385058Y221407D01*
X384152Y221132D01*
X383317Y220686D01*
X382586Y220086D01*
X327142Y291000D02*
X326162Y290952D01*
X325191Y290808D01*
X324239Y290569D01*
X323315Y290239D01*
X322428Y289819D01*
X321586Y289315D01*
X320798Y288730D01*
X320071Y288071D01*
X327142Y291000D02*
X326162Y290952D01*
X325191Y290808D01*
X324239Y290569D01*
X323315Y290239D01*
X322428Y289819D01*
X321586Y289315D01*
X320798Y288730D01*
X320071Y288071D01*
X287929Y255929D02*
X287270Y255202D01*
X286685Y254414D01*
X286181Y253572D01*
X285761Y252685D01*
X285431Y251761D01*
X285192Y250809D01*
X285048Y249838D01*
X285000Y248858D01*
X287929Y255929D02*
X287270Y255202D01*
X286685Y254414D01*
X286181Y253572D01*
X285761Y252685D01*
X285431Y251761D01*
X285192Y250809D01*
X285048Y249838D01*
X285000Y248858D01*
X370543Y212185D02*
X371523Y212233D01*
X372494Y212377D01*
X373446Y212616D01*
X374370Y212946D01*
X375257Y213366D01*
X376099Y213870D01*
X376887Y214455D01*
X377614Y215114D01*
X370543Y212185D02*
X371523Y212233D01*
X372494Y212377D01*
X373446Y212616D01*
X374370Y212946D01*
X375257Y213366D01*
X376099Y213870D01*
X376887Y214455D01*
X377614Y215114D01*
X331630Y358012D02*
X331678Y357032D01*
X331822Y356061D01*
X332061Y355109D01*
X332391Y354185D01*
X332811Y353298D01*
X333315Y352457D01*
X333900Y351668D01*
X334559Y350941D01*
X331630Y358012D02*
X331678Y357032D01*
X331822Y356061D01*
X332061Y355109D01*
X332391Y354185D01*
X332811Y353298D01*
X333315Y352457D01*
X333900Y351668D01*
X334559Y350941D01*
X373929Y432429D02*
X373270Y431702D01*
X372685Y430914D01*
X372181Y430072D01*
X371761Y429185D01*
X371431Y428261D01*
X371192Y427309D01*
X371048Y426338D01*
X371000Y425358D01*
X373929Y432429D02*
X373270Y431702D01*
X372685Y430914D01*
X372181Y430072D01*
X371761Y429185D01*
X371431Y428261D01*
X371192Y427309D01*
X371048Y426338D01*
X371000Y425358D01*
X405059Y361059D02*
X404400Y360332D01*
X403815Y359543D01*
X403311Y358702D01*
X402891Y357815D01*
X402561Y356891D01*
X402322Y355939D01*
X402178Y354968D01*
X402130Y353988D01*
X405059Y361059D02*
X404400Y360332D01*
X403815Y359543D01*
X403311Y358702D01*
X402891Y357815D01*
X402561Y356891D01*
X402322Y355939D01*
X402178Y354968D01*
X402130Y353988D01*
X222929Y280071D02*
X229571Y273429D01*
X232500Y255642D02*
Y266358D01*
X226444Y245444D02*
X229571Y248571D01*
X220190Y245444D02*
X226444D01*
X150142Y308500D02*
X167118D01*
X189689Y285929D01*
X196760Y283000D02*
X215858D01*
X118500Y310000D02*
X128172Y300328D01*
X135000Y297500D02*
X143071Y305571D01*
X123500Y223000D02*
X136404Y235904D01*
X244429Y354571D02*
X252000Y347000D01*
X237000Y357500D02*
X237358D01*
X407500Y223000D02*
X444500D01*
X420929Y293929D02*
X441500Y314500D01*
X327142Y291000D02*
X413858D01*
X287929Y255929D02*
X320071Y288071D01*
X377614Y215114D02*
X382586Y220086D01*
X343500Y212185D02*
X370543D01*
X285000D02*
Y248858D01*
X334559Y350941D02*
X371000Y314500D01*
X373929Y432429D02*
X388000Y446500D01*
X371000Y397500D02*
Y425358D01*
X405059Y361059D02*
X441500Y397500D01*
X444500Y223000D02*
X468122D01*
X123500D02*
X147122D01*
X136404Y235904D02*
Y253596D01*
X127000Y263000D02*
X136404Y253596D01*
X217063Y236063D02*
X220190Y239190D01*
Y245444D01*
X331630Y358012D02*
Y397500D01*
X415130Y485870D02*
X430000Y471000D01*
X403500Y397500D02*
X430000Y424000D01*
Y471000D01*
X388000Y485870D02*
X415130D01*
X402130Y314500D02*
Y353988D01*
X147122Y179500D02*
X279000D01*
X123500D02*
X147122D01*
X286500Y191500D02*
X342500D01*
X285000Y212185D02*
X343500D01*
X279000Y179500D02*
X444500D01*
X468122D01*
D49*
X189500Y253858D02*
X189452Y254838D01*
X189308Y255809D01*
X189069Y256761D01*
X188739Y257685D01*
X188319Y258572D01*
X187815Y259414D01*
X187230Y260202D01*
X186571Y260929D01*
X189500Y253858D02*
X189452Y254838D01*
X189308Y255809D01*
X189069Y256761D01*
X188739Y257685D01*
X188319Y258572D01*
X187815Y259414D01*
X187230Y260202D01*
X186571Y260929D01*
X146642Y278500D02*
X145662Y278452D01*
X144691Y278308D01*
X143739Y278069D01*
X142815Y277739D01*
X141928Y277319D01*
X141086Y276815D01*
X140298Y276230D01*
X139571Y275571D01*
X146642Y278500D02*
X145662Y278452D01*
X144691Y278308D01*
X143739Y278069D01*
X142815Y277739D01*
X141928Y277319D01*
X141086Y276815D01*
X140298Y276230D01*
X139571Y275571D01*
X258142Y314500D02*
X257162Y314452D01*
X256191Y314308D01*
X255239Y314069D01*
X254315Y313739D01*
X253428Y313319D01*
X252586Y312815D01*
X251798Y312230D01*
X251071Y311571D01*
X258142Y314500D02*
X257162Y314452D01*
X256191Y314308D01*
X255239Y314069D01*
X254315Y313739D01*
X253428Y313319D01*
X252586Y312815D01*
X251798Y312230D01*
X251071Y311571D01*
X189500Y223244D02*
Y253858D01*
X184500Y263000D02*
X186571Y260929D01*
X146642Y278500D02*
X169000D01*
X127000Y263000D02*
X139571Y275571D01*
X258142Y314500D02*
X331630D01*
X237000Y297500D02*
X251071Y311571D01*
X169000Y278500D02*
X184500Y263000D01*
X237000Y297500D02*
Y309000D01*
D50*
X135000Y345142D02*
X135048Y344162D01*
X135192Y343191D01*
X135431Y342239D01*
X135761Y341315D01*
X136181Y340428D01*
X136685Y339586D01*
X137270Y338798D01*
X137929Y338071D01*
X135000Y345142D02*
X135048Y344162D01*
X135192Y343191D01*
X135431Y342239D01*
X135761Y341315D01*
X136181Y340428D01*
X136685Y339586D01*
X137270Y338798D01*
X137929Y338071D01*
X148071Y327929D02*
X148798Y327270D01*
X149586Y326685D01*
X150428Y326181D01*
X151315Y325761D01*
X152239Y325431D01*
X153191Y325192D01*
X154162Y325048D01*
X155142Y325000D01*
X148071Y327929D02*
X148798Y327270D01*
X149586Y326685D01*
X150428Y326181D01*
X151315Y325761D01*
X152239Y325431D01*
X153191Y325192D01*
X154162Y325048D01*
X155142Y325000D01*
X135000Y345142D02*
Y357500D01*
X137929Y338071D02*
X148071Y327929D01*
X118500Y341000D02*
X135000Y357500D01*
D51*
X160618Y325000D02*
X161236Y324744D01*
X160618Y325000D02*
X161236Y324744D01*
X155142Y325000D02*
X160618D01*
X161236Y324744D02*
X211500D01*
X222776D01*
D52*
X237000Y310520D01*
D53*
X304000Y518685D02*
D03*
X228815Y474000D02*
D03*
D54*
X304000Y499000D02*
D03*
D55*
X248500Y474000D02*
D03*
D56*
X291000Y464000D02*
D03*
X119000Y513500D02*
D03*
X370500Y252000D02*
D03*
X147122Y179500D02*
D03*
X468500Y513500D02*
D03*
X191500Y379000D02*
D03*
X147122Y223000D02*
D03*
X123500D02*
D03*
Y179500D02*
D03*
X468122D02*
D03*
Y223000D02*
D03*
X444500D02*
D03*
Y179500D02*
D03*
D57*
X343500Y212185D02*
D03*
X285000D02*
D03*
D58*
X343500Y192500D02*
D03*
X285000D02*
D03*
X204185Y263000D02*
D03*
X146685D02*
D03*
D59*
X184500D02*
D03*
X127000D02*
D03*
D60*
X265374Y407000D02*
D03*
Y397000D02*
D03*
Y387000D02*
D03*
Y377000D02*
D03*
X234626D02*
D03*
Y387000D02*
D03*
Y397000D02*
D03*
X155374Y407000D02*
D03*
Y397000D02*
D03*
Y387000D02*
D03*
Y377000D02*
D03*
X124626D02*
D03*
Y387000D02*
D03*
Y397000D02*
D03*
D61*
X234626Y407000D02*
D03*
X124626D02*
D03*
D62*
X211500Y334744D02*
D03*
Y324744D02*
D03*
D63*
Y314744D02*
D03*
D64*
X135000Y297500D02*
D03*
X237000D02*
D03*
D65*
X135000Y357500D02*
D03*
X237000D02*
D03*
D66*
X160618Y315000D02*
D03*
Y325000D02*
D03*
D67*
Y335000D02*
D03*
D68*
X371000Y314500D02*
D03*
X331630D02*
D03*
X388000Y485870D02*
D03*
Y446500D02*
D03*
X371000Y397500D02*
D03*
X331630D02*
D03*
X441500D02*
D03*
X402130D02*
D03*
X441500Y314500D02*
D03*
X402130D02*
D03*
D69*
X201000Y502000D02*
D03*
Y492000D02*
D03*
X191000D02*
D03*
Y502000D02*
D03*
X176496D02*
D03*
Y492000D02*
D03*
X166496D02*
D03*
Y502000D02*
D03*
X150748D02*
D03*
Y492000D02*
D03*
X140748D02*
D03*
Y502000D02*
D03*
D70*
X452756Y511811D02*
D03*
Y433071D02*
D03*
Y354331D02*
D03*
Y196850D02*
D03*
X413386Y433071D02*
D03*
Y196850D02*
D03*
X354331Y472441D02*
D03*
Y393701D02*
D03*
X374016Y354331D02*
D03*
X354331Y236221D02*
D03*
X374016Y196850D02*
D03*
X314961Y472441D02*
D03*
Y236221D02*
D03*
X275591Y472441D02*
D03*
X295276Y433071D02*
D03*
Y354331D02*
D03*
X255906Y433071D02*
D03*
Y354331D02*
D03*
Y275591D02*
D03*
Y196850D02*
D03*
X196850Y472441D02*
D03*
X216535Y433071D02*
D03*
X196850Y393701D02*
D03*
X216535Y354331D02*
D03*
X157480Y472441D02*
D03*
X177165Y354331D02*
D03*
X137795Y196850D02*
D03*
D71*
X427300Y242500D02*
D03*
X238600Y333600D02*
D03*
X474100Y493200D02*
D03*
X202000Y196600D02*
D03*
X336000Y490000D02*
D03*
X408300Y273700D02*
D03*
X248500Y226700D02*
D03*
X382600Y242400D02*
D03*
D72*
X283883Y371390D02*
D03*
M02*
