G04*
G04 #@! TF.GenerationSoftware,Altium Limited,Altium Designer,23.8.1 (32)*
G04*
G04 Layer_Color=2752767*
%FSLAX25Y25*%
%MOIN*%
G70*
G04*
G04 #@! TF.SameCoordinates,F96B85ED-F025-470D-A382-F87F92A237BF*
G04*
G04*
G04 #@! TF.FilePolarity,Positive*
G04*
G01*
G75*
%ADD13C,0.00500*%
%ADD75C,0.00667*%
%ADD76C,0.00400*%
D13*
X304000Y516685D02*
X302000Y520685D01*
X306000D01*
X304000Y516685D01*
Y517485D02*
X302800Y519885D01*
X305200D01*
X304000Y517485D01*
Y497000D02*
X302000Y501000D01*
X306000D01*
X304000Y497000D01*
Y497800D02*
X302800Y500200D01*
X305200D01*
X304000Y497800D01*
X228815Y472000D02*
X226815Y476000D01*
X230815D01*
X228815Y472000D01*
Y472800D02*
X227615Y475200D01*
X230015D01*
X228815Y472800D01*
X248500Y472000D02*
X246500Y476000D01*
X250500D01*
X248500Y472000D01*
Y472800D02*
X247300Y475200D01*
X249700D01*
X248500Y472800D01*
X289000Y462000D02*
X290000D01*
X291000Y463000D01*
X292000Y462000D01*
X293000D01*
Y463000D01*
X292000Y464000D01*
X293000Y465000D01*
Y466000D01*
X292000D01*
X291000Y465000D01*
X290000Y466000D01*
X289000D01*
Y465000D01*
X290000Y464000D01*
X289000Y463000D01*
Y462000D01*
X341500Y212185D02*
X343500Y214185D01*
X345500Y212185D01*
X343500Y210185D01*
X341500Y212185D01*
Y192500D02*
X343500Y194500D01*
X345500Y192500D01*
X343500Y190500D01*
X341500Y192500D01*
X283000Y212185D02*
X285000Y214185D01*
X287000Y212185D01*
X285000Y210185D01*
X283000Y212185D01*
Y192500D02*
X285000Y194500D01*
X287000Y192500D01*
X285000Y190500D01*
X283000Y192500D01*
X182500Y263000D02*
X184500Y265000D01*
X186500Y263000D01*
X184500Y261000D01*
X182500Y263000D01*
X202185D02*
X204185Y265000D01*
X206185Y263000D01*
X204185Y261000D01*
X202185Y263000D01*
X125000D02*
X127000Y265000D01*
X129000Y263000D01*
X127000Y261000D01*
X125000Y263000D01*
X144685D02*
X146685Y265000D01*
X148685Y263000D01*
X146685Y261000D01*
X144685Y263000D01*
X263374Y405000D02*
Y409000D01*
X267374D01*
Y405000D01*
X263374D01*
Y395000D02*
Y399000D01*
X267374D01*
Y395000D01*
X263374D01*
Y385000D02*
Y389000D01*
X267374D01*
Y385000D01*
X263374D01*
Y375000D02*
Y379000D01*
X267374D01*
Y375000D01*
X263374D01*
X232626D02*
Y379000D01*
X236626D01*
Y375000D01*
X232626D01*
Y385000D02*
Y389000D01*
X236626D01*
Y385000D01*
X232626D01*
Y395000D02*
Y399000D01*
X236626D01*
Y395000D01*
X232626D01*
Y405000D02*
Y409000D01*
X236626D01*
Y405000D01*
X232626D01*
X153374D02*
Y409000D01*
X157374D01*
Y405000D01*
X153374D01*
Y395000D02*
Y399000D01*
X157374D01*
Y395000D01*
X153374D01*
Y385000D02*
Y389000D01*
X157374D01*
Y385000D01*
X153374D01*
Y375000D02*
Y379000D01*
X157374D01*
Y375000D01*
X153374D01*
X122626D02*
Y379000D01*
X126626D01*
Y375000D01*
X122626D01*
Y385000D02*
Y389000D01*
X126626D01*
Y385000D01*
X122626D01*
Y395000D02*
Y399000D01*
X126626D01*
Y395000D01*
X122626D01*
Y405000D02*
Y409000D01*
X126626D01*
Y405000D01*
X122626D01*
X117000Y511500D02*
X118000D01*
X119000Y512500D01*
X120000Y511500D01*
X121000D01*
Y512500D01*
X120000Y513500D01*
X121000Y514500D01*
Y515500D01*
X120000D01*
X119000Y514500D01*
X118000Y515500D01*
X117000D01*
Y514500D01*
X118000Y513500D01*
X117000Y512500D01*
Y511500D01*
X209500Y332744D02*
X210500Y334744D01*
X209500Y336744D01*
X211500Y335744D01*
X213500Y336744D01*
X212500Y334744D01*
X213500Y332744D01*
X211500Y333744D01*
X209500Y332744D01*
Y322744D02*
X210500Y324744D01*
X209500Y326744D01*
X211500Y325744D01*
X213500Y326744D01*
X212500Y324744D01*
X213500Y322744D01*
X211500Y323744D01*
X209500Y322744D01*
Y312744D02*
X210500Y314744D01*
X209500Y316744D01*
X211500Y315744D01*
X213500Y316744D01*
X212500Y314744D01*
X213500Y312744D01*
X211500Y313744D01*
X209500Y312744D01*
X133000Y295500D02*
Y299500D01*
X137000D01*
Y295500D01*
X133000D01*
X133800Y296300D02*
Y298700D01*
X136200D01*
Y296300D01*
X133800D01*
X133000Y355500D02*
Y359500D01*
X137000D01*
Y355500D01*
X133000D01*
X133800Y356300D02*
Y358700D01*
X136200D01*
Y356300D01*
X133800D01*
X160618Y313000D02*
X158618Y317000D01*
X162618D01*
X160618Y313000D01*
Y323000D02*
X158618Y327000D01*
X162618D01*
X160618Y323000D01*
Y333000D02*
X158618Y337000D01*
X162618D01*
X160618Y333000D01*
X235000Y295500D02*
Y299500D01*
X239000D01*
Y295500D01*
X235000D01*
X235800Y296300D02*
Y298700D01*
X238200D01*
Y296300D01*
X235800D01*
X235000Y355500D02*
Y359500D01*
X239000D01*
Y355500D01*
X235000D01*
X235800Y356300D02*
Y358700D01*
X238200D01*
Y356300D01*
X235800D01*
X368500Y250000D02*
X369500D01*
X370500Y251000D01*
X371500Y250000D01*
X372500D01*
Y251000D01*
X371500Y252000D01*
X372500Y253000D01*
Y254000D01*
X371500D01*
X370500Y253000D01*
X369500Y254000D01*
X368500D01*
Y253000D01*
X369500Y252000D01*
X368500Y251000D01*
Y250000D01*
X145122Y177500D02*
X146122D01*
X147122Y178500D01*
X148122Y177500D01*
X149122D01*
Y178500D01*
X148122Y179500D01*
X149122Y180500D01*
Y181500D01*
X148122D01*
X147122Y180500D01*
X146122Y181500D01*
X145122D01*
Y180500D01*
X146122Y179500D01*
X145122Y178500D01*
Y177500D01*
X466500Y511500D02*
X467500D01*
X468500Y512500D01*
X469500Y511500D01*
X470500D01*
Y512500D01*
X469500Y513500D01*
X470500Y514500D01*
Y515500D01*
X469500D01*
X468500Y514500D01*
X467500Y515500D01*
X466500D01*
Y514500D01*
X467500Y513500D01*
X466500Y512500D01*
Y511500D01*
X189500Y377000D02*
X190500D01*
X191500Y378000D01*
X192500Y377000D01*
X193500D01*
Y378000D01*
X192500Y379000D01*
X193500Y380000D01*
Y381000D01*
X192500D01*
X191500Y380000D01*
X190500Y381000D01*
X189500D01*
Y380000D01*
X190500Y379000D01*
X189500Y378000D01*
Y377000D01*
X371000Y312500D02*
X372000Y313500D01*
X373000D01*
X372000Y314500D01*
X373000Y315500D01*
X372000D01*
X371000Y316500D01*
X370000Y315500D01*
X369000D01*
X370000Y314500D01*
X369000Y313500D01*
X370000D01*
X371000Y312500D01*
X331630D02*
X332630Y313500D01*
X333630D01*
X332630Y314500D01*
X333630Y315500D01*
X332630D01*
X331630Y316500D01*
X330630Y315500D01*
X329630D01*
X330630Y314500D01*
X329630Y313500D01*
X330630D01*
X331630Y312500D01*
X388000Y483870D02*
X389000Y484870D01*
X390000D01*
X389000Y485870D01*
X390000Y486870D01*
X389000D01*
X388000Y487870D01*
X387000Y486870D01*
X386000D01*
X387000Y485870D01*
X386000Y484870D01*
X387000D01*
X388000Y483870D01*
Y444500D02*
X389000Y445500D01*
X390000D01*
X389000Y446500D01*
X390000Y447500D01*
X389000D01*
X388000Y448500D01*
X387000Y447500D01*
X386000D01*
X387000Y446500D01*
X386000Y445500D01*
X387000D01*
X388000Y444500D01*
X371000Y395500D02*
X372000Y396500D01*
X373000D01*
X372000Y397500D01*
X373000Y398500D01*
X372000D01*
X371000Y399500D01*
X370000Y398500D01*
X369000D01*
X370000Y397500D01*
X369000Y396500D01*
X370000D01*
X371000Y395500D01*
X331630D02*
X332630Y396500D01*
X333630D01*
X332630Y397500D01*
X333630Y398500D01*
X332630D01*
X331630Y399500D01*
X330630Y398500D01*
X329630D01*
X330630Y397500D01*
X329630Y396500D01*
X330630D01*
X331630Y395500D01*
X441500D02*
X442500Y396500D01*
X443500D01*
X442500Y397500D01*
X443500Y398500D01*
X442500D01*
X441500Y399500D01*
X440500Y398500D01*
X439500D01*
X440500Y397500D01*
X439500Y396500D01*
X440500D01*
X441500Y395500D01*
X402130D02*
X403130Y396500D01*
X404130D01*
X403130Y397500D01*
X404130Y398500D01*
X403130D01*
X402130Y399500D01*
X401130Y398500D01*
X400130D01*
X401130Y397500D01*
X400130Y396500D01*
X401130D01*
X402130Y395500D01*
X441500Y312500D02*
X442500Y313500D01*
X443500D01*
X442500Y314500D01*
X443500Y315500D01*
X442500D01*
X441500Y316500D01*
X440500Y315500D01*
X439500D01*
X440500Y314500D01*
X439500Y313500D01*
X440500D01*
X441500Y312500D01*
X402130D02*
X403130Y313500D01*
X404130D01*
X403130Y314500D01*
X404130Y315500D01*
X403130D01*
X402130Y316500D01*
X401130Y315500D01*
X400130D01*
X401130Y314500D01*
X400130Y313500D01*
X401130D01*
X402130Y312500D01*
X145122Y221000D02*
X146122D01*
X147122Y222000D01*
X148122Y221000D01*
X149122D01*
Y222000D01*
X148122Y223000D01*
X149122Y224000D01*
Y225000D01*
X148122D01*
X147122Y224000D01*
X146122Y225000D01*
X145122D01*
Y224000D01*
X146122Y223000D01*
X145122Y222000D01*
Y221000D01*
X121500D02*
X122500D01*
X123500Y222000D01*
X124500Y221000D01*
X125500D01*
Y222000D01*
X124500Y223000D01*
X125500Y224000D01*
Y225000D01*
X124500D01*
X123500Y224000D01*
X122500Y225000D01*
X121500D01*
Y224000D01*
X122500Y223000D01*
X121500Y222000D01*
Y221000D01*
Y177500D02*
X122500D01*
X123500Y178500D01*
X124500Y177500D01*
X125500D01*
Y178500D01*
X124500Y179500D01*
X125500Y180500D01*
Y181500D01*
X124500D01*
X123500Y180500D01*
X122500Y181500D01*
X121500D01*
Y180500D01*
X122500Y179500D01*
X121500Y178500D01*
Y177500D01*
X466122D02*
X467122D01*
X468122Y178500D01*
X469122Y177500D01*
X470122D01*
Y178500D01*
X469122Y179500D01*
X470122Y180500D01*
Y181500D01*
X469122D01*
X468122Y180500D01*
X467122Y181500D01*
X466122D01*
Y180500D01*
X467122Y179500D01*
X466122Y178500D01*
Y177500D01*
X200000Y501000D02*
Y500000D01*
X202000D01*
Y501000D01*
X203000D01*
Y503000D01*
X202000D01*
Y504000D01*
X200000D01*
Y503000D01*
X199000D01*
Y501000D01*
X200000D01*
Y491000D02*
Y490000D01*
X202000D01*
Y491000D01*
X203000D01*
Y493000D01*
X202000D01*
Y494000D01*
X200000D01*
Y493000D01*
X199000D01*
Y491000D01*
X200000D01*
X190000D02*
Y490000D01*
X192000D01*
Y491000D01*
X193000D01*
Y493000D01*
X192000D01*
Y494000D01*
X190000D01*
Y493000D01*
X189000D01*
Y491000D01*
X190000D01*
Y501000D02*
Y500000D01*
X192000D01*
Y501000D01*
X193000D01*
Y503000D01*
X192000D01*
Y504000D01*
X190000D01*
Y503000D01*
X189000D01*
Y501000D01*
X190000D01*
X175496D02*
Y500000D01*
X177496D01*
Y501000D01*
X178496D01*
Y503000D01*
X177496D01*
Y504000D01*
X175496D01*
Y503000D01*
X174496D01*
Y501000D01*
X175496D01*
Y491000D02*
Y490000D01*
X177496D01*
Y491000D01*
X178496D01*
Y493000D01*
X177496D01*
Y494000D01*
X175496D01*
Y493000D01*
X174496D01*
Y491000D01*
X175496D01*
X165496D02*
Y490000D01*
X167496D01*
Y491000D01*
X168496D01*
Y493000D01*
X167496D01*
Y494000D01*
X165496D01*
Y493000D01*
X164496D01*
Y491000D01*
X165496D01*
Y501000D02*
Y500000D01*
X167496D01*
Y501000D01*
X168496D01*
Y503000D01*
X167496D01*
Y504000D01*
X165496D01*
Y503000D01*
X164496D01*
Y501000D01*
X165496D01*
X149748D02*
Y500000D01*
X151748D01*
Y501000D01*
X152748D01*
Y503000D01*
X151748D01*
Y504000D01*
X149748D01*
Y503000D01*
X148748D01*
Y501000D01*
X149748D01*
Y491000D02*
Y490000D01*
X151748D01*
Y491000D01*
X152748D01*
Y493000D01*
X151748D01*
Y494000D01*
X149748D01*
Y493000D01*
X148748D01*
Y491000D01*
X149748D01*
X139748D02*
Y490000D01*
X141748D01*
Y491000D01*
X142748D01*
Y493000D01*
X141748D01*
Y494000D01*
X139748D01*
Y493000D01*
X138748D01*
Y491000D01*
X139748D01*
Y501000D02*
Y500000D01*
X141748D01*
Y501000D01*
X142748D01*
Y503000D01*
X141748D01*
Y504000D01*
X139748D01*
Y503000D01*
X138748D01*
Y501000D01*
X139748D01*
X466122Y221000D02*
X467122D01*
X468122Y222000D01*
X469122Y221000D01*
X470122D01*
Y222000D01*
X469122Y223000D01*
X470122Y224000D01*
Y225000D01*
X469122D01*
X468122Y224000D01*
X467122Y225000D01*
X466122D01*
Y224000D01*
X467122Y223000D01*
X466122Y222000D01*
Y221000D01*
X442500D02*
X443500D01*
X444500Y222000D01*
X445500Y221000D01*
X446500D01*
Y222000D01*
X445500Y223000D01*
X446500Y224000D01*
Y225000D01*
X445500D01*
X444500Y224000D01*
X443500Y225000D01*
X442500D01*
Y224000D01*
X443500Y223000D01*
X442500Y222000D01*
Y221000D01*
Y177500D02*
X443500D01*
X444500Y178500D01*
X445500Y177500D01*
X446500D01*
Y178500D01*
X445500Y179500D01*
X446500Y180500D01*
Y181500D01*
X445500D01*
X444500Y180500D01*
X443500Y181500D01*
X442500D01*
Y180500D01*
X443500Y179500D01*
X442500Y178500D01*
Y177500D01*
X452756Y509811D02*
X453756Y510811D01*
X454756D01*
X453756Y511811D01*
X454756Y512811D01*
X453756D01*
X452756Y513811D01*
X451756Y512811D01*
X450756D01*
X451756Y511811D01*
X450756Y510811D01*
X451756D01*
X452756Y509811D01*
Y510611D02*
X453356Y511211D01*
X453956D01*
X453356Y511811D01*
X453956Y512411D01*
X453356D01*
X452756Y513011D01*
X452156Y512411D01*
X451556D01*
X452156Y511811D01*
X451556Y511211D01*
X452156D01*
X452756Y510611D01*
Y431071D02*
X453756Y432071D01*
X454756D01*
X453756Y433071D01*
X454756Y434071D01*
X453756D01*
X452756Y435071D01*
X451756Y434071D01*
X450756D01*
X451756Y433071D01*
X450756Y432071D01*
X451756D01*
X452756Y431071D01*
Y431871D02*
X453356Y432471D01*
X453956D01*
X453356Y433071D01*
X453956Y433671D01*
X453356D01*
X452756Y434271D01*
X452156Y433671D01*
X451556D01*
X452156Y433071D01*
X451556Y432471D01*
X452156D01*
X452756Y431871D01*
Y352331D02*
X453756Y353331D01*
X454756D01*
X453756Y354331D01*
X454756Y355331D01*
X453756D01*
X452756Y356331D01*
X451756Y355331D01*
X450756D01*
X451756Y354331D01*
X450756Y353331D01*
X451756D01*
X452756Y352331D01*
Y353131D02*
X453356Y353731D01*
X453956D01*
X453356Y354331D01*
X453956Y354931D01*
X453356D01*
X452756Y355531D01*
X452156Y354931D01*
X451556D01*
X452156Y354331D01*
X451556Y353731D01*
X452156D01*
X452756Y353131D01*
Y194850D02*
X453756Y195850D01*
X454756D01*
X453756Y196850D01*
X454756Y197850D01*
X453756D01*
X452756Y198850D01*
X451756Y197850D01*
X450756D01*
X451756Y196850D01*
X450756Y195850D01*
X451756D01*
X452756Y194850D01*
Y195650D02*
X453356Y196250D01*
X453956D01*
X453356Y196850D01*
X453956Y197450D01*
X453356D01*
X452756Y198050D01*
X452156Y197450D01*
X451556D01*
X452156Y196850D01*
X451556Y196250D01*
X452156D01*
X452756Y195650D01*
X413386Y431071D02*
X414386Y432071D01*
X415386D01*
X414386Y433071D01*
X415386Y434071D01*
X414386D01*
X413386Y435071D01*
X412386Y434071D01*
X411386D01*
X412386Y433071D01*
X411386Y432071D01*
X412386D01*
X413386Y431071D01*
Y431871D02*
X413986Y432471D01*
X414586D01*
X413986Y433071D01*
X414586Y433671D01*
X413986D01*
X413386Y434271D01*
X412786Y433671D01*
X412186D01*
X412786Y433071D01*
X412186Y432471D01*
X412786D01*
X413386Y431871D01*
Y194850D02*
X414386Y195850D01*
X415386D01*
X414386Y196850D01*
X415386Y197850D01*
X414386D01*
X413386Y198850D01*
X412386Y197850D01*
X411386D01*
X412386Y196850D01*
X411386Y195850D01*
X412386D01*
X413386Y194850D01*
Y195650D02*
X413986Y196250D01*
X414586D01*
X413986Y196850D01*
X414586Y197450D01*
X413986D01*
X413386Y198050D01*
X412786Y197450D01*
X412186D01*
X412786Y196850D01*
X412186Y196250D01*
X412786D01*
X413386Y195650D01*
X354331Y470441D02*
X355331Y471441D01*
X356331D01*
X355331Y472441D01*
X356331Y473441D01*
X355331D01*
X354331Y474441D01*
X353331Y473441D01*
X352331D01*
X353331Y472441D01*
X352331Y471441D01*
X353331D01*
X354331Y470441D01*
Y471241D02*
X354931Y471841D01*
X355531D01*
X354931Y472441D01*
X355531Y473041D01*
X354931D01*
X354331Y473641D01*
X353731Y473041D01*
X353131D01*
X353731Y472441D01*
X353131Y471841D01*
X353731D01*
X354331Y471241D01*
Y391701D02*
X355331Y392701D01*
X356331D01*
X355331Y393701D01*
X356331Y394701D01*
X355331D01*
X354331Y395701D01*
X353331Y394701D01*
X352331D01*
X353331Y393701D01*
X352331Y392701D01*
X353331D01*
X354331Y391701D01*
Y392501D02*
X354931Y393101D01*
X355531D01*
X354931Y393701D01*
X355531Y394301D01*
X354931D01*
X354331Y394901D01*
X353731Y394301D01*
X353131D01*
X353731Y393701D01*
X353131Y393101D01*
X353731D01*
X354331Y392501D01*
X374016Y352331D02*
X375016Y353331D01*
X376016D01*
X375016Y354331D01*
X376016Y355331D01*
X375016D01*
X374016Y356331D01*
X373016Y355331D01*
X372016D01*
X373016Y354331D01*
X372016Y353331D01*
X373016D01*
X374016Y352331D01*
Y353131D02*
X374616Y353731D01*
X375216D01*
X374616Y354331D01*
X375216Y354931D01*
X374616D01*
X374016Y355531D01*
X373416Y354931D01*
X372816D01*
X373416Y354331D01*
X372816Y353731D01*
X373416D01*
X374016Y353131D01*
X354331Y234221D02*
X355331Y235221D01*
X356331D01*
X355331Y236221D01*
X356331Y237221D01*
X355331D01*
X354331Y238221D01*
X353331Y237221D01*
X352331D01*
X353331Y236221D01*
X352331Y235221D01*
X353331D01*
X354331Y234221D01*
Y235020D02*
X354931Y235620D01*
X355531D01*
X354931Y236221D01*
X355531Y236821D01*
X354931D01*
X354331Y237421D01*
X353731Y236821D01*
X353131D01*
X353731Y236221D01*
X353131Y235620D01*
X353731D01*
X354331Y235020D01*
X374016Y194850D02*
X375016Y195850D01*
X376016D01*
X375016Y196850D01*
X376016Y197850D01*
X375016D01*
X374016Y198850D01*
X373016Y197850D01*
X372016D01*
X373016Y196850D01*
X372016Y195850D01*
X373016D01*
X374016Y194850D01*
Y195650D02*
X374616Y196250D01*
X375216D01*
X374616Y196850D01*
X375216Y197450D01*
X374616D01*
X374016Y198050D01*
X373416Y197450D01*
X372816D01*
X373416Y196850D01*
X372816Y196250D01*
X373416D01*
X374016Y195650D01*
X314961Y470441D02*
X315961Y471441D01*
X316961D01*
X315961Y472441D01*
X316961Y473441D01*
X315961D01*
X314961Y474441D01*
X313961Y473441D01*
X312961D01*
X313961Y472441D01*
X312961Y471441D01*
X313961D01*
X314961Y470441D01*
Y471241D02*
X315561Y471841D01*
X316161D01*
X315561Y472441D01*
X316161Y473041D01*
X315561D01*
X314961Y473641D01*
X314361Y473041D01*
X313761D01*
X314361Y472441D01*
X313761Y471841D01*
X314361D01*
X314961Y471241D01*
Y234221D02*
X315961Y235221D01*
X316961D01*
X315961Y236221D01*
X316961Y237221D01*
X315961D01*
X314961Y238221D01*
X313961Y237221D01*
X312961D01*
X313961Y236221D01*
X312961Y235221D01*
X313961D01*
X314961Y234221D01*
Y235020D02*
X315561Y235620D01*
X316161D01*
X315561Y236221D01*
X316161Y236821D01*
X315561D01*
X314961Y237421D01*
X314361Y236821D01*
X313761D01*
X314361Y236221D01*
X313761Y235620D01*
X314361D01*
X314961Y235020D01*
X275591Y470441D02*
X276591Y471441D01*
X277591D01*
X276591Y472441D01*
X277591Y473441D01*
X276591D01*
X275591Y474441D01*
X274591Y473441D01*
X273591D01*
X274591Y472441D01*
X273591Y471441D01*
X274591D01*
X275591Y470441D01*
Y471241D02*
X276191Y471841D01*
X276791D01*
X276191Y472441D01*
X276791Y473041D01*
X276191D01*
X275591Y473641D01*
X274991Y473041D01*
X274391D01*
X274991Y472441D01*
X274391Y471841D01*
X274991D01*
X275591Y471241D01*
X295276Y431071D02*
X296276Y432071D01*
X297276D01*
X296276Y433071D01*
X297276Y434071D01*
X296276D01*
X295276Y435071D01*
X294276Y434071D01*
X293276D01*
X294276Y433071D01*
X293276Y432071D01*
X294276D01*
X295276Y431071D01*
Y431871D02*
X295876Y432471D01*
X296476D01*
X295876Y433071D01*
X296476Y433671D01*
X295876D01*
X295276Y434271D01*
X294676Y433671D01*
X294076D01*
X294676Y433071D01*
X294076Y432471D01*
X294676D01*
X295276Y431871D01*
Y352331D02*
X296276Y353331D01*
X297276D01*
X296276Y354331D01*
X297276Y355331D01*
X296276D01*
X295276Y356331D01*
X294276Y355331D01*
X293276D01*
X294276Y354331D01*
X293276Y353331D01*
X294276D01*
X295276Y352331D01*
Y353131D02*
X295876Y353731D01*
X296476D01*
X295876Y354331D01*
X296476Y354931D01*
X295876D01*
X295276Y355531D01*
X294676Y354931D01*
X294076D01*
X294676Y354331D01*
X294076Y353731D01*
X294676D01*
X295276Y353131D01*
X255906Y431071D02*
X256906Y432071D01*
X257906D01*
X256906Y433071D01*
X257906Y434071D01*
X256906D01*
X255906Y435071D01*
X254906Y434071D01*
X253906D01*
X254906Y433071D01*
X253906Y432071D01*
X254906D01*
X255906Y431071D01*
Y431871D02*
X256505Y432471D01*
X257105D01*
X256505Y433071D01*
X257105Y433671D01*
X256505D01*
X255906Y434271D01*
X255306Y433671D01*
X254706D01*
X255306Y433071D01*
X254706Y432471D01*
X255306D01*
X255906Y431871D01*
Y352331D02*
X256906Y353331D01*
X257906D01*
X256906Y354331D01*
X257906Y355331D01*
X256906D01*
X255906Y356331D01*
X254906Y355331D01*
X253906D01*
X254906Y354331D01*
X253906Y353331D01*
X254906D01*
X255906Y352331D01*
Y353131D02*
X256505Y353731D01*
X257105D01*
X256505Y354331D01*
X257105Y354931D01*
X256505D01*
X255906Y355531D01*
X255306Y354931D01*
X254706D01*
X255306Y354331D01*
X254706Y353731D01*
X255306D01*
X255906Y353131D01*
Y273591D02*
X256906Y274591D01*
X257906D01*
X256906Y275591D01*
X257906Y276591D01*
X256906D01*
X255906Y277591D01*
X254906Y276591D01*
X253906D01*
X254906Y275591D01*
X253906Y274591D01*
X254906D01*
X255906Y273591D01*
Y274391D02*
X256505Y274991D01*
X257105D01*
X256505Y275591D01*
X257105Y276191D01*
X256505D01*
X255906Y276791D01*
X255306Y276191D01*
X254706D01*
X255306Y275591D01*
X254706Y274991D01*
X255306D01*
X255906Y274391D01*
Y194850D02*
X256906Y195850D01*
X257906D01*
X256906Y196850D01*
X257906Y197850D01*
X256906D01*
X255906Y198850D01*
X254906Y197850D01*
X253906D01*
X254906Y196850D01*
X253906Y195850D01*
X254906D01*
X255906Y194850D01*
Y195650D02*
X256505Y196250D01*
X257105D01*
X256505Y196850D01*
X257105Y197450D01*
X256505D01*
X255906Y198050D01*
X255306Y197450D01*
X254706D01*
X255306Y196850D01*
X254706Y196250D01*
X255306D01*
X255906Y195650D01*
X196850Y470441D02*
X197850Y471441D01*
X198850D01*
X197850Y472441D01*
X198850Y473441D01*
X197850D01*
X196850Y474441D01*
X195850Y473441D01*
X194850D01*
X195850Y472441D01*
X194850Y471441D01*
X195850D01*
X196850Y470441D01*
Y471241D02*
X197450Y471841D01*
X198050D01*
X197450Y472441D01*
X198050Y473041D01*
X197450D01*
X196850Y473641D01*
X196250Y473041D01*
X195650D01*
X196250Y472441D01*
X195650Y471841D01*
X196250D01*
X196850Y471241D01*
X216535Y431071D02*
X217535Y432071D01*
X218535D01*
X217535Y433071D01*
X218535Y434071D01*
X217535D01*
X216535Y435071D01*
X215535Y434071D01*
X214535D01*
X215535Y433071D01*
X214535Y432071D01*
X215535D01*
X216535Y431071D01*
Y431871D02*
X217135Y432471D01*
X217735D01*
X217135Y433071D01*
X217735Y433671D01*
X217135D01*
X216535Y434271D01*
X215935Y433671D01*
X215335D01*
X215935Y433071D01*
X215335Y432471D01*
X215935D01*
X216535Y431871D01*
X196850Y391701D02*
X197850Y392701D01*
X198850D01*
X197850Y393701D01*
X198850Y394701D01*
X197850D01*
X196850Y395701D01*
X195850Y394701D01*
X194850D01*
X195850Y393701D01*
X194850Y392701D01*
X195850D01*
X196850Y391701D01*
Y392501D02*
X197450Y393101D01*
X198050D01*
X197450Y393701D01*
X198050Y394301D01*
X197450D01*
X196850Y394901D01*
X196250Y394301D01*
X195650D01*
X196250Y393701D01*
X195650Y393101D01*
X196250D01*
X196850Y392501D01*
X216535Y352331D02*
X217535Y353331D01*
X218535D01*
X217535Y354331D01*
X218535Y355331D01*
X217535D01*
X216535Y356331D01*
X215535Y355331D01*
X214535D01*
X215535Y354331D01*
X214535Y353331D01*
X215535D01*
X216535Y352331D01*
Y353131D02*
X217135Y353731D01*
X217735D01*
X217135Y354331D01*
X217735Y354931D01*
X217135D01*
X216535Y355531D01*
X215935Y354931D01*
X215335D01*
X215935Y354331D01*
X215335Y353731D01*
X215935D01*
X216535Y353131D01*
X157480Y470441D02*
X158480Y471441D01*
X159480D01*
X158480Y472441D01*
X159480Y473441D01*
X158480D01*
X157480Y474441D01*
X156480Y473441D01*
X155480D01*
X156480Y472441D01*
X155480Y471441D01*
X156480D01*
X157480Y470441D01*
Y471241D02*
X158080Y471841D01*
X158680D01*
X158080Y472441D01*
X158680Y473041D01*
X158080D01*
X157480Y473641D01*
X156880Y473041D01*
X156280D01*
X156880Y472441D01*
X156280Y471841D01*
X156880D01*
X157480Y471241D01*
X177165Y352331D02*
X178165Y353331D01*
X179165D01*
X178165Y354331D01*
X179165Y355331D01*
X178165D01*
X177165Y356331D01*
X176165Y355331D01*
X175165D01*
X176165Y354331D01*
X175165Y353331D01*
X176165D01*
X177165Y352331D01*
Y353131D02*
X177765Y353731D01*
X178365D01*
X177765Y354331D01*
X178365Y354931D01*
X177765D01*
X177165Y355531D01*
X176565Y354931D01*
X175965D01*
X176565Y354331D01*
X175965Y353731D01*
X176565D01*
X177165Y353131D01*
X137795Y194850D02*
X138795Y195850D01*
X139795D01*
X138795Y196850D01*
X139795Y197850D01*
X138795D01*
X137795Y198850D01*
X136795Y197850D01*
X135795D01*
X136795Y196850D01*
X135795Y195850D01*
X136795D01*
X137795Y194850D01*
Y195650D02*
X138395Y196250D01*
X138995D01*
X138395Y196850D01*
X138995Y197450D01*
X138395D01*
X137795Y198050D01*
X137195Y197450D01*
X136595D01*
X137195Y196850D01*
X136595Y196250D01*
X137195D01*
X137795Y195650D01*
D75*
X429300Y242500D02*
X429071Y243429D01*
X428436Y244146D01*
X427541Y244485D01*
X426591Y244370D01*
X425803Y243826D01*
X425358Y242979D01*
Y242021D01*
X425803Y241174D01*
X426591Y240630D01*
X427541Y240515D01*
X428436Y240854D01*
X429071Y241571D01*
X429300Y242500D01*
X240600Y333600D02*
X240371Y334529D01*
X239736Y335246D01*
X238841Y335585D01*
X237891Y335470D01*
X237103Y334926D01*
X236658Y334079D01*
Y333121D01*
X237103Y332274D01*
X237891Y331730D01*
X238841Y331615D01*
X239736Y331954D01*
X240371Y332671D01*
X240600Y333600D01*
X476100Y493200D02*
X475871Y494129D01*
X475236Y494846D01*
X474341Y495185D01*
X473391Y495070D01*
X472603Y494526D01*
X472158Y493679D01*
Y492721D01*
X472603Y491874D01*
X473391Y491330D01*
X474341Y491215D01*
X475236Y491554D01*
X475871Y492271D01*
X476100Y493200D01*
X204000Y196600D02*
X203771Y197529D01*
X203136Y198246D01*
X202241Y198585D01*
X201291Y198470D01*
X200503Y197926D01*
X200058Y197079D01*
Y196121D01*
X200503Y195274D01*
X201291Y194730D01*
X202241Y194615D01*
X203136Y194954D01*
X203771Y195671D01*
X204000Y196600D01*
X338000Y490000D02*
X337771Y490929D01*
X337136Y491646D01*
X336241Y491985D01*
X335291Y491870D01*
X334503Y491326D01*
X334058Y490479D01*
Y489521D01*
X334503Y488674D01*
X335291Y488130D01*
X336241Y488015D01*
X337136Y488354D01*
X337771Y489071D01*
X338000Y490000D01*
X410300Y273700D02*
X410071Y274629D01*
X409436Y275346D01*
X408541Y275685D01*
X407591Y275570D01*
X406803Y275026D01*
X406358Y274179D01*
Y273221D01*
X406803Y272374D01*
X407591Y271830D01*
X408541Y271715D01*
X409436Y272054D01*
X410071Y272771D01*
X410300Y273700D01*
X250500Y226700D02*
X250271Y227629D01*
X249636Y228346D01*
X248741Y228685D01*
X247791Y228570D01*
X247003Y228026D01*
X246558Y227179D01*
Y226221D01*
X247003Y225374D01*
X247791Y224830D01*
X248741Y224715D01*
X249636Y225054D01*
X250271Y225771D01*
X250500Y226700D01*
X384600Y242400D02*
X384371Y243329D01*
X383736Y244046D01*
X382841Y244385D01*
X381891Y244270D01*
X381103Y243726D01*
X380658Y242879D01*
Y241921D01*
X381103Y241074D01*
X381891Y240530D01*
X382841Y240415D01*
X383736Y240754D01*
X384371Y241471D01*
X384600Y242400D01*
X285883Y371390D02*
X285654Y372319D01*
X285019Y373036D01*
X284124Y373375D01*
X283174Y373260D01*
X282386Y372716D01*
X281942Y371868D01*
Y370911D01*
X282386Y370063D01*
X283174Y369520D01*
X284124Y369404D01*
X285019Y369744D01*
X285654Y370460D01*
X285883Y371390D01*
D76*
X428500Y242500D02*
X428149Y243349D01*
X427300Y243700D01*
X426451Y243349D01*
X426100Y242500D01*
X426451Y241652D01*
X427300Y241300D01*
X428149Y241652D01*
X428500Y242500D01*
X239800Y333600D02*
X239448Y334449D01*
X238600Y334800D01*
X237752Y334449D01*
X237400Y333600D01*
X237752Y332751D01*
X238600Y332400D01*
X239448Y332751D01*
X239800Y333600D01*
X475300Y493200D02*
X474949Y494049D01*
X474100Y494400D01*
X473251Y494049D01*
X472900Y493200D01*
X473251Y492351D01*
X474100Y492000D01*
X474949Y492351D01*
X475300Y493200D01*
X203200Y196600D02*
X202849Y197449D01*
X202000Y197800D01*
X201151Y197449D01*
X200800Y196600D01*
X201151Y195752D01*
X202000Y195400D01*
X202849Y195752D01*
X203200Y196600D01*
X337200Y490000D02*
X336848Y490848D01*
X336000Y491200D01*
X335152Y490848D01*
X334800Y490000D01*
X335152Y489151D01*
X336000Y488800D01*
X336848Y489151D01*
X337200Y490000D01*
X409500Y273700D02*
X409149Y274549D01*
X408300Y274900D01*
X407451Y274549D01*
X407100Y273700D01*
X407451Y272851D01*
X408300Y272500D01*
X409149Y272851D01*
X409500Y273700D01*
X249700Y226700D02*
X249348Y227549D01*
X248500Y227900D01*
X247652Y227549D01*
X247300Y226700D01*
X247652Y225851D01*
X248500Y225500D01*
X249348Y225851D01*
X249700Y226700D01*
X383800Y242400D02*
X383449Y243249D01*
X382600Y243600D01*
X381751Y243249D01*
X381400Y242400D01*
X381751Y241551D01*
X382600Y241200D01*
X383449Y241551D01*
X383800Y242400D01*
M02*
