G04*
G04 #@! TF.GenerationSoftware,Altium Limited,Altium Designer,23.8.1 (32)*
G04*
G04 Layer_Color=32896*
%FSLAX25Y25*%
%MOIN*%
G70*
G04*
G04 #@! TF.SameCoordinates,F96B85ED-F025-470D-A382-F87F92A237BF*
G04*
G04*
G04 #@! TF.FilePolarity,Positive*
G04*
G01*
G75*
%ADD14C,0.01000*%
G36*
X446842Y363171D02*
X446878D01*
Y363098D01*
X446915D01*
Y363025D01*
X446951D01*
Y362952D01*
X446988D01*
Y362879D01*
X447024D01*
Y362806D01*
X447061D01*
Y362733D01*
X447097D01*
Y362660D01*
X447134D01*
Y362587D01*
X447170D01*
Y362514D01*
X447207D01*
Y362442D01*
X447243D01*
Y362332D01*
X447280D01*
Y362259D01*
X447316D01*
Y362187D01*
X447352D01*
Y362114D01*
X447389D01*
Y362041D01*
X447425D01*
Y361968D01*
X447462D01*
Y361895D01*
X446551D01*
Y361931D01*
X446514D01*
Y361968D01*
X446478D01*
Y362004D01*
X446441D01*
Y362041D01*
X446405D01*
Y362077D01*
X446368D01*
Y362114D01*
X446332D01*
Y362150D01*
X446295D01*
Y362187D01*
X446259D01*
Y362223D01*
X446222D01*
Y362259D01*
X446186D01*
Y362296D01*
X446149D01*
Y362332D01*
X446113D01*
Y362405D01*
X446077D01*
Y362442D01*
X446040D01*
Y362478D01*
X446004D01*
Y362514D01*
X445967D01*
Y362551D01*
X445931D01*
Y362587D01*
X445894D01*
Y362624D01*
X445858D01*
Y362660D01*
X445821D01*
Y362697D01*
X445785D01*
Y362733D01*
X445749D01*
Y362770D01*
X445712D01*
Y362806D01*
X445676D01*
Y362843D01*
X445639D01*
Y362879D01*
X445603D01*
Y362915D01*
X445566D01*
Y362952D01*
X445530D01*
Y362988D01*
X445493D01*
Y363025D01*
X445457D01*
Y363061D01*
X445421D01*
Y363134D01*
X445384D01*
Y363171D01*
X445348D01*
Y363207D01*
X445311D01*
Y363244D01*
X446842D01*
Y363171D01*
D02*
G37*
G36*
X439770Y354386D02*
X439734D01*
Y354349D01*
X438531D01*
Y355333D01*
X438567D01*
Y357083D01*
X438604D01*
Y358797D01*
X438640D01*
Y359453D01*
X438604D01*
Y359307D01*
X438567D01*
Y359161D01*
X438531D01*
Y359015D01*
X438495D01*
Y358833D01*
X438458D01*
Y358687D01*
X438422D01*
Y358541D01*
X438385D01*
Y358396D01*
X438349D01*
Y358213D01*
X438312D01*
Y358067D01*
X438276D01*
Y357922D01*
X438239D01*
Y357776D01*
X438203D01*
Y357630D01*
X438167D01*
Y357448D01*
X438130D01*
Y357302D01*
X438094D01*
Y357156D01*
X438057D01*
Y357010D01*
X438021D01*
Y356828D01*
X437984D01*
Y356682D01*
X437948D01*
Y356537D01*
X437911D01*
Y356391D01*
X437875D01*
Y356208D01*
X437839D01*
Y356063D01*
X437802D01*
Y355917D01*
X437766D01*
Y355771D01*
X437729D01*
Y355589D01*
X437693D01*
Y355443D01*
X437656D01*
Y355297D01*
X437620D01*
Y355151D01*
X437583D01*
Y354969D01*
X437547D01*
Y354823D01*
X437510D01*
Y354677D01*
X437474D01*
Y354532D01*
X437437D01*
Y354386D01*
X437401D01*
Y354349D01*
X435797D01*
Y354386D01*
X435761D01*
Y361348D01*
X436964D01*
Y360255D01*
X436927D01*
Y358797D01*
X436891D01*
Y357338D01*
X436854D01*
Y356391D01*
X436891D01*
Y356537D01*
X436927D01*
Y356719D01*
X436964D01*
Y356865D01*
X437000D01*
Y357010D01*
X437037D01*
Y357156D01*
X437073D01*
Y357302D01*
X437110D01*
Y357448D01*
X437146D01*
Y357594D01*
X437182D01*
Y357739D01*
X437219D01*
Y357885D01*
X437255D01*
Y358031D01*
X437292D01*
Y358177D01*
X437328D01*
Y358323D01*
X437365D01*
Y358468D01*
X437401D01*
Y358651D01*
X437437D01*
Y358797D01*
X437474D01*
Y358942D01*
X437510D01*
Y359088D01*
X437547D01*
Y359234D01*
X437583D01*
Y359380D01*
X437620D01*
Y359525D01*
X437656D01*
Y359671D01*
X437693D01*
Y359817D01*
X437729D01*
Y359963D01*
X437766D01*
Y360109D01*
X437802D01*
Y360255D01*
X437839D01*
Y360437D01*
X437875D01*
Y360546D01*
Y360583D01*
X437911D01*
Y360728D01*
X437948D01*
Y360874D01*
X437984D01*
Y361020D01*
X438021D01*
Y361166D01*
X438057D01*
Y361312D01*
X438094D01*
Y361348D01*
X439770D01*
Y354386D01*
D02*
G37*
G36*
X442905Y361457D02*
X443124D01*
Y361421D01*
X443233D01*
Y361385D01*
X443343D01*
Y361348D01*
X443452D01*
Y361312D01*
X443525D01*
Y361275D01*
X443598D01*
Y361239D01*
X443671D01*
Y361202D01*
X443707D01*
Y361166D01*
X443780D01*
Y361129D01*
X443817D01*
Y361093D01*
X443853D01*
Y361056D01*
X443890D01*
Y361020D01*
X443926D01*
Y360984D01*
X443962D01*
Y360947D01*
X443999D01*
Y360911D01*
X444035D01*
Y360874D01*
X444072D01*
Y360838D01*
X444108D01*
Y360765D01*
X444145D01*
Y360728D01*
X444181D01*
Y360619D01*
X444218D01*
Y360546D01*
X444254D01*
Y360400D01*
X444290D01*
Y360218D01*
X444327D01*
Y359781D01*
X444363D01*
Y355589D01*
X444327D01*
Y355333D01*
X444290D01*
Y355188D01*
X444254D01*
Y355078D01*
X444218D01*
Y355006D01*
X444181D01*
Y354933D01*
X444145D01*
Y354896D01*
X444108D01*
Y354823D01*
X444072D01*
Y354787D01*
X444035D01*
Y354750D01*
X443999D01*
Y354714D01*
X443962D01*
Y354677D01*
X443926D01*
Y354641D01*
X443890D01*
Y354605D01*
X443817D01*
Y354568D01*
X443780D01*
Y354532D01*
X443707D01*
Y354495D01*
X443671D01*
Y354459D01*
X443598D01*
Y354422D01*
X443489D01*
Y354386D01*
X443416D01*
Y354349D01*
X443270D01*
Y354313D01*
X443160D01*
Y354276D01*
X442978D01*
Y354240D01*
X442687D01*
Y354204D01*
X442067D01*
Y354240D01*
X441848D01*
Y354276D01*
X441666D01*
Y354313D01*
X441557D01*
Y354349D01*
X441447D01*
Y354386D01*
X441338D01*
Y354422D01*
X441265D01*
Y354459D01*
X441192D01*
Y354495D01*
X441156D01*
Y354532D01*
X441083D01*
Y354568D01*
X441046D01*
Y354605D01*
X440973D01*
Y354641D01*
X440937D01*
Y354677D01*
X440900D01*
Y354714D01*
X440864D01*
Y354750D01*
X440828D01*
Y354787D01*
X440791D01*
Y354860D01*
X440755D01*
Y354896D01*
X440718D01*
Y354969D01*
X440682D01*
Y355042D01*
X440645D01*
Y355115D01*
X440609D01*
Y355188D01*
Y355224D01*
X440572D01*
Y355370D01*
X440536D01*
Y355662D01*
X440499D01*
Y356974D01*
X440536D01*
Y357010D01*
X441775D01*
Y356974D01*
X441812D01*
Y355589D01*
X441848D01*
Y355479D01*
X441885D01*
Y355443D01*
X441921D01*
Y355370D01*
X441958D01*
Y355333D01*
X442030D01*
Y355297D01*
X442067D01*
Y355261D01*
X442213D01*
Y355224D01*
X442614D01*
Y355261D01*
X442723D01*
Y355297D01*
X442796D01*
Y355333D01*
X442832D01*
Y355370D01*
X442869D01*
Y355406D01*
X442905D01*
Y355443D01*
X442942D01*
Y355516D01*
X442978D01*
Y355625D01*
X443015D01*
Y360145D01*
X442978D01*
Y360218D01*
X442942D01*
Y360291D01*
X442905D01*
Y360364D01*
X442869D01*
Y360400D01*
X442796D01*
Y360437D01*
X442760D01*
Y360473D01*
X442614D01*
Y360510D01*
X442249D01*
Y360473D01*
X442103D01*
Y360437D01*
X442030D01*
Y360400D01*
X441994D01*
Y360364D01*
X441958D01*
Y360327D01*
X441921D01*
Y360291D01*
X441885D01*
Y360218D01*
X441848D01*
Y360109D01*
X441812D01*
Y358833D01*
X441775D01*
Y358797D01*
X440499D01*
Y360255D01*
X440536D01*
Y360473D01*
X440572D01*
Y360583D01*
X440609D01*
Y360655D01*
X440645D01*
Y360765D01*
X440682D01*
Y360801D01*
X440718D01*
Y360874D01*
X440755D01*
Y360911D01*
X440791D01*
Y360947D01*
X440828D01*
Y360984D01*
X440864D01*
Y361020D01*
X440900D01*
Y361056D01*
X440937D01*
Y361093D01*
X440973D01*
Y361129D01*
X441010D01*
Y361166D01*
X441046D01*
Y361202D01*
X441119D01*
Y361239D01*
X441156D01*
Y361275D01*
X441228D01*
Y361312D01*
X441338D01*
Y361348D01*
X441411D01*
Y361385D01*
X441520D01*
Y361421D01*
X441666D01*
Y361457D01*
X441848D01*
Y361494D01*
X442905D01*
Y361457D01*
D02*
G37*
G36*
X431168D02*
X431350D01*
Y361421D01*
X431496D01*
Y361385D01*
X431605D01*
Y361348D01*
X431715D01*
Y361312D01*
X431787D01*
Y361275D01*
X431860D01*
Y361239D01*
X431897D01*
Y361202D01*
X431970D01*
Y361166D01*
X432006D01*
Y361129D01*
X432079D01*
Y361093D01*
X432116D01*
Y361056D01*
X432152D01*
Y361020D01*
X432189D01*
Y360984D01*
X432225D01*
Y360947D01*
X432261D01*
Y360911D01*
X432298D01*
Y360874D01*
X432334D01*
Y360801D01*
X432371D01*
Y360765D01*
X432407D01*
Y360692D01*
X432444D01*
Y360583D01*
X432480D01*
Y360510D01*
X432516D01*
Y360364D01*
X432553D01*
Y360109D01*
X432589D01*
Y355370D01*
X432553D01*
Y355224D01*
X432516D01*
Y355115D01*
X432480D01*
Y355042D01*
X432444D01*
Y354969D01*
X432407D01*
Y354896D01*
X432371D01*
Y354860D01*
X432334D01*
Y354823D01*
X432298D01*
Y354750D01*
X432261D01*
Y354714D01*
X432225D01*
Y354677D01*
X432189D01*
Y354641D01*
X432116D01*
Y354605D01*
X432079D01*
Y354568D01*
X432043D01*
Y354532D01*
X431970D01*
Y354495D01*
X431897D01*
Y354459D01*
X431824D01*
Y354422D01*
X431751D01*
Y354386D01*
X431642D01*
Y354349D01*
X431532D01*
Y354313D01*
X431387D01*
Y354276D01*
X431204D01*
Y354240D01*
X430949D01*
Y354204D01*
X430329D01*
Y354240D01*
X430074D01*
Y354276D01*
X429928D01*
Y354313D01*
X429783D01*
Y354349D01*
X429673D01*
Y354386D01*
X429600D01*
Y354422D01*
X429528D01*
Y354459D01*
X429455D01*
Y354495D01*
X429382D01*
Y354532D01*
X429345D01*
Y354568D01*
X429272D01*
Y354605D01*
X429236D01*
Y354641D01*
X429199D01*
Y354677D01*
X429163D01*
Y354714D01*
X429127D01*
Y354750D01*
X429090D01*
Y354787D01*
X429054D01*
Y354823D01*
X429017D01*
Y354896D01*
X428981D01*
Y354933D01*
X428944D01*
Y355006D01*
X428908D01*
Y355078D01*
X428871D01*
Y355188D01*
X428835D01*
Y355333D01*
X428798D01*
Y355516D01*
X428762D01*
Y357010D01*
X430038D01*
Y355771D01*
X430074D01*
Y355552D01*
X430111D01*
Y355479D01*
X430147D01*
Y355406D01*
X430184D01*
Y355370D01*
X430220D01*
Y355333D01*
X430257D01*
Y355297D01*
X430329D01*
Y355261D01*
X430439D01*
Y355224D01*
X430876D01*
Y355261D01*
X430986D01*
Y355297D01*
X431022D01*
Y355333D01*
X431095D01*
Y355370D01*
X431131D01*
Y355406D01*
X431168D01*
Y355479D01*
X431204D01*
Y355552D01*
X431241D01*
Y355698D01*
X431277D01*
Y360072D01*
X431241D01*
Y360218D01*
X431204D01*
Y360291D01*
X431168D01*
Y360327D01*
X431131D01*
Y360364D01*
X431095D01*
Y360400D01*
X431059D01*
Y360437D01*
X430986D01*
Y360473D01*
X430876D01*
Y360510D01*
X430512D01*
Y360473D01*
X430366D01*
Y360437D01*
X430293D01*
Y360400D01*
X430220D01*
Y360364D01*
X430184D01*
Y360291D01*
X430147D01*
Y360255D01*
X430111D01*
Y360145D01*
X430074D01*
Y359963D01*
X430038D01*
Y358797D01*
X428762D01*
Y360364D01*
X428798D01*
Y360510D01*
X428835D01*
Y360619D01*
X428871D01*
Y360692D01*
X428908D01*
Y360765D01*
X428944D01*
Y360838D01*
X428981D01*
Y360874D01*
X429017D01*
Y360947D01*
X429054D01*
Y360984D01*
X429090D01*
Y361020D01*
X429127D01*
Y361056D01*
X429163D01*
Y361093D01*
X429199D01*
Y361129D01*
X429272D01*
Y361166D01*
X429309D01*
Y361202D01*
X429345D01*
Y361239D01*
X429418D01*
Y361275D01*
X429491D01*
Y361312D01*
X429564D01*
Y361348D01*
X429673D01*
Y361385D01*
X429783D01*
Y361421D01*
X429928D01*
Y361457D01*
X430111D01*
Y361494D01*
X431168D01*
Y361457D01*
D02*
G37*
G36*
X467583Y354349D02*
X466271D01*
Y357010D01*
Y357047D01*
Y357265D01*
X464813D01*
Y357302D01*
X464558D01*
Y357338D01*
X464448D01*
Y357375D01*
X464339D01*
Y357411D01*
X464266D01*
Y357448D01*
X464230D01*
Y357484D01*
X464157D01*
Y357521D01*
X464120D01*
Y357557D01*
X464084D01*
Y357594D01*
X464047D01*
Y357666D01*
X464011D01*
Y357703D01*
X463974D01*
Y357776D01*
X463938D01*
Y357849D01*
X463902D01*
Y357958D01*
X463865D01*
Y358104D01*
X463829D01*
Y358468D01*
X463792D01*
Y360145D01*
X463829D01*
Y360473D01*
X463865D01*
Y360655D01*
X463902D01*
Y360765D01*
X463938D01*
Y360838D01*
X463974D01*
Y360911D01*
X464011D01*
Y360947D01*
X464047D01*
Y360984D01*
X464084D01*
Y361020D01*
X464120D01*
Y361056D01*
X464157D01*
Y361093D01*
X464193D01*
Y361129D01*
X464230D01*
Y361166D01*
X464266D01*
Y361202D01*
X464339D01*
Y361239D01*
X464412D01*
Y361275D01*
X464521D01*
Y361312D01*
X464631D01*
Y361348D01*
X467583D01*
Y354349D01*
D02*
G37*
G36*
X458324D02*
X455117D01*
Y355406D01*
X455153D01*
Y355443D01*
X457012D01*
Y360874D01*
Y360911D01*
Y361348D01*
X458324D01*
Y354349D01*
D02*
G37*
G36*
X454606D02*
X453331D01*
Y354386D01*
X453294D01*
Y361348D01*
X454606D01*
Y354349D01*
D02*
G37*
G36*
X452820Y360327D02*
X451508D01*
Y354349D01*
X450232D01*
Y354386D01*
X450196D01*
Y356099D01*
Y356136D01*
Y360327D01*
X448920D01*
Y361348D01*
X452820D01*
Y360327D01*
D02*
G37*
G36*
X448410Y354349D02*
X444910D01*
Y355443D01*
X447097D01*
Y355990D01*
Y356026D01*
Y357594D01*
X445129D01*
Y358651D01*
X447097D01*
Y360291D01*
X445019D01*
Y361348D01*
X448410D01*
Y354349D01*
D02*
G37*
G36*
X434813D02*
X433501D01*
Y360218D01*
Y360255D01*
Y361348D01*
X434813D01*
Y354349D01*
D02*
G37*
G36*
X461642Y361457D02*
X461860D01*
Y361421D01*
X462006D01*
Y361385D01*
X462115D01*
Y361348D01*
X462225D01*
Y361312D01*
X462298D01*
Y361275D01*
X462370D01*
Y361239D01*
X462443D01*
Y361202D01*
X462516D01*
Y361166D01*
X462553D01*
Y361129D01*
X462626D01*
Y361093D01*
X462662D01*
Y361056D01*
X462699D01*
Y361020D01*
X462735D01*
Y360984D01*
X462772D01*
Y360947D01*
X462808D01*
Y360911D01*
X462844D01*
Y360838D01*
X462881D01*
Y360801D01*
X462917D01*
Y360728D01*
X462954D01*
Y360655D01*
X462990D01*
Y360546D01*
X463027D01*
Y360437D01*
X463063D01*
Y360291D01*
X463100D01*
Y359927D01*
X463136D01*
Y355807D01*
X463100D01*
Y355406D01*
X463063D01*
Y355261D01*
X463027D01*
Y355151D01*
X462990D01*
Y355042D01*
X462954D01*
Y354969D01*
X462917D01*
Y354933D01*
X462881D01*
Y354860D01*
X462844D01*
Y354823D01*
X462808D01*
Y354787D01*
X462772D01*
Y354750D01*
X462735D01*
Y354714D01*
X462699D01*
Y354677D01*
X462662D01*
Y354641D01*
X462626D01*
Y354605D01*
X462589D01*
Y354568D01*
X462516D01*
Y354532D01*
X462480D01*
Y354495D01*
X462407D01*
Y354459D01*
X462334D01*
Y354422D01*
X462261D01*
Y354386D01*
X462188D01*
Y354349D01*
X462079D01*
Y354313D01*
X461970D01*
Y354276D01*
X461787D01*
Y354240D01*
X461532D01*
Y354204D01*
X460803D01*
Y354240D01*
X460511D01*
Y354276D01*
X460366D01*
Y354313D01*
X460256D01*
Y354349D01*
X460147D01*
Y354386D01*
X460038D01*
Y354422D01*
X459965D01*
Y354459D01*
X459892D01*
Y354495D01*
X459855D01*
Y354532D01*
X459783D01*
Y354568D01*
X459746D01*
Y354605D01*
X459710D01*
Y354641D01*
X459673D01*
Y354677D01*
X459637D01*
Y354714D01*
X459600D01*
Y354750D01*
X459564D01*
Y354787D01*
X459527D01*
Y354823D01*
X459491D01*
Y354860D01*
X459454D01*
Y354933D01*
X459418D01*
Y355006D01*
X459381D01*
Y355078D01*
X459345D01*
Y355151D01*
X459309D01*
Y355297D01*
X459272D01*
Y355479D01*
X459236D01*
Y360218D01*
X459272D01*
Y360400D01*
X459309D01*
Y360510D01*
X459345D01*
Y360619D01*
X459381D01*
Y360692D01*
X459418D01*
Y360765D01*
X459454D01*
Y360838D01*
X459491D01*
Y360874D01*
X459527D01*
Y360911D01*
X459564D01*
Y360947D01*
X459600D01*
Y360984D01*
X459637D01*
Y361020D01*
X459673D01*
Y361056D01*
X459710D01*
Y361093D01*
X459746D01*
Y361129D01*
X459819D01*
Y361166D01*
X459855D01*
Y361202D01*
X459928D01*
Y361239D01*
X459965D01*
Y361275D01*
X460038D01*
Y361312D01*
X460147D01*
Y361348D01*
X460220D01*
Y361385D01*
X460329D01*
Y361421D01*
X460475D01*
Y361457D01*
X460657D01*
Y361494D01*
X461642D01*
Y361457D01*
D02*
G37*
G36*
X426611D02*
X426794D01*
Y361421D01*
X426939D01*
Y361385D01*
X427049D01*
Y361348D01*
X427158D01*
Y361312D01*
X427231D01*
Y361275D01*
X427304D01*
Y361239D01*
X427377D01*
Y361202D01*
X427450D01*
Y361166D01*
X427486D01*
Y361129D01*
X427559D01*
Y361093D01*
X427596D01*
Y361056D01*
X427632D01*
Y361020D01*
X427669D01*
Y360984D01*
X427705D01*
Y360947D01*
X427741D01*
Y360911D01*
X427778D01*
Y360874D01*
X427814D01*
Y360801D01*
X427851D01*
Y360728D01*
X427887D01*
Y360655D01*
X427924D01*
Y360583D01*
X427960D01*
Y360473D01*
X427996D01*
Y360327D01*
X428033D01*
Y360109D01*
X428069D01*
Y355589D01*
X428033D01*
Y355370D01*
X427996D01*
Y355224D01*
X427960D01*
Y355115D01*
X427924D01*
Y355042D01*
X427887D01*
Y354969D01*
X427851D01*
Y354896D01*
X427814D01*
Y354860D01*
X427778D01*
Y354823D01*
X427741D01*
Y354750D01*
X427705D01*
Y354714D01*
X427669D01*
Y354677D01*
X427632D01*
Y354641D01*
X427559D01*
Y354605D01*
X427523D01*
Y354568D01*
X427486D01*
Y354532D01*
X427413D01*
Y354495D01*
X427377D01*
Y354459D01*
X427304D01*
Y354422D01*
X427231D01*
Y354386D01*
X427122D01*
Y354349D01*
X427012D01*
Y354313D01*
X426903D01*
Y354276D01*
X426757D01*
Y354240D01*
X426466D01*
Y354204D01*
X425737D01*
Y354240D01*
X425481D01*
Y354276D01*
X425299D01*
Y354313D01*
X425190D01*
Y354349D01*
X425080D01*
Y354386D01*
X425007D01*
Y354422D01*
X424935D01*
Y354459D01*
X424862D01*
Y354495D01*
X424789D01*
Y354532D01*
X424752D01*
Y354568D01*
X424679D01*
Y354605D01*
X424643D01*
Y354641D01*
X424607D01*
Y354677D01*
X424570D01*
Y354714D01*
X424534D01*
Y354750D01*
X424497D01*
Y354787D01*
X424461D01*
Y354823D01*
X424424D01*
Y354896D01*
X424388D01*
Y354933D01*
X424351D01*
Y355006D01*
X424315D01*
Y355115D01*
X424278D01*
Y355224D01*
X424242D01*
Y355333D01*
X424205D01*
Y355589D01*
X424169D01*
Y360109D01*
X424205D01*
Y360364D01*
X424242D01*
Y360510D01*
X424278D01*
Y360583D01*
X424315D01*
Y360692D01*
X424351D01*
Y360765D01*
X424388D01*
Y360801D01*
X424424D01*
Y360874D01*
X424461D01*
Y360911D01*
X424497D01*
Y360947D01*
X424534D01*
Y360984D01*
X424570D01*
Y361020D01*
X424607D01*
Y361056D01*
X424643D01*
Y361093D01*
X424716D01*
Y361129D01*
X424752D01*
Y361166D01*
X424789D01*
Y361202D01*
X424862D01*
Y361239D01*
X424935D01*
Y361275D01*
X425007D01*
Y361312D01*
X425080D01*
Y361348D01*
X425190D01*
Y361385D01*
X425299D01*
Y361421D01*
X425445D01*
Y361457D01*
X425627D01*
Y361494D01*
X426611D01*
Y361457D01*
D02*
G37*
G36*
X484934Y346002D02*
X469515D01*
Y348699D01*
Y348736D01*
Y361421D01*
X484934D01*
Y346002D01*
D02*
G37*
G36*
X467583D02*
X465979D01*
Y346038D01*
X465761D01*
Y346075D01*
X465651D01*
Y346111D01*
X465578D01*
Y346148D01*
X465505D01*
Y346184D01*
X465469D01*
Y346221D01*
X465396D01*
Y346257D01*
X465360D01*
Y346293D01*
X465323D01*
Y346366D01*
X465287D01*
Y346403D01*
X465250D01*
Y346476D01*
X465214D01*
Y346549D01*
X465177D01*
Y346658D01*
X465141D01*
Y346804D01*
X465104D01*
Y349756D01*
X465141D01*
Y349902D01*
X465177D01*
Y349975D01*
X465214D01*
Y350084D01*
X465250D01*
Y350121D01*
X465287D01*
Y350157D01*
X465323D01*
Y350230D01*
X465360D01*
Y350267D01*
X465396D01*
Y350303D01*
X465433D01*
Y350340D01*
X465505D01*
Y350376D01*
X465542D01*
Y350413D01*
X465615D01*
Y350449D01*
X465688D01*
Y350485D01*
X465833D01*
Y350522D01*
X467583D01*
Y346002D01*
D02*
G37*
G36*
X464521D02*
X462261D01*
Y346731D01*
X463683D01*
Y348080D01*
X462443D01*
Y348116D01*
X462407D01*
Y348772D01*
X462443D01*
Y348809D01*
X463683D01*
Y349829D01*
X462334D01*
Y350522D01*
X464521D01*
Y346002D01*
D02*
G37*
G36*
X459673Y346038D02*
X459637D01*
Y346002D01*
X456465D01*
Y347095D01*
X458361D01*
Y348809D01*
Y348845D01*
Y353001D01*
X459673D01*
Y346038D01*
D02*
G37*
G36*
X455955Y346002D02*
X452456D01*
Y347095D01*
X454643D01*
Y349246D01*
X452674D01*
Y350303D01*
X454643D01*
Y351943D01*
X452529D01*
Y352636D01*
Y352673D01*
Y353001D01*
X455955D01*
Y346002D01*
D02*
G37*
G36*
X451836Y352891D02*
Y352855D01*
Y346038D01*
X451799D01*
Y346002D01*
X450524D01*
Y353001D01*
X451836D01*
Y352891D01*
D02*
G37*
G36*
X449540Y346002D02*
X448264D01*
Y349100D01*
X447753D01*
Y348991D01*
X447717D01*
Y348882D01*
X447681D01*
Y348772D01*
X447644D01*
Y348626D01*
X447608D01*
Y348517D01*
X447571D01*
Y348408D01*
X447535D01*
Y348298D01*
X447498D01*
Y348189D01*
X447462D01*
Y348080D01*
X447425D01*
Y347970D01*
X447389D01*
Y347861D01*
X447352D01*
Y347715D01*
X447316D01*
Y347606D01*
X447280D01*
Y347496D01*
X447243D01*
Y347387D01*
X447207D01*
Y347278D01*
X447170D01*
Y347168D01*
X447134D01*
Y347059D01*
X447097D01*
Y346913D01*
X447061D01*
Y346804D01*
X447024D01*
Y346694D01*
X446988D01*
Y346585D01*
X446951D01*
Y346476D01*
X446915D01*
Y346366D01*
X446878D01*
Y346257D01*
X446842D01*
Y346148D01*
X446806D01*
Y346038D01*
X446769D01*
Y346002D01*
X445457D01*
Y346111D01*
X445493D01*
Y346221D01*
X445530D01*
Y346330D01*
X445566D01*
Y346476D01*
X445603D01*
Y346585D01*
X445639D01*
Y346694D01*
X445676D01*
Y346804D01*
X445712D01*
Y346913D01*
X445749D01*
Y347023D01*
X445785D01*
Y347132D01*
X445821D01*
Y347241D01*
X445858D01*
Y347351D01*
X445894D01*
Y347460D01*
X445931D01*
Y347569D01*
X445967D01*
Y347679D01*
X446004D01*
Y347788D01*
X446040D01*
Y347897D01*
X446077D01*
Y348007D01*
X446113D01*
Y348116D01*
X446149D01*
Y348225D01*
X446186D01*
Y348335D01*
X446222D01*
Y348444D01*
X446259D01*
Y348553D01*
X446295D01*
Y348663D01*
X446332D01*
Y348772D01*
X446368D01*
Y348882D01*
X446405D01*
Y348991D01*
X446441D01*
Y349100D01*
X446478D01*
Y349210D01*
X446514D01*
Y349319D01*
X446405D01*
Y349356D01*
X446295D01*
Y349392D01*
X446222D01*
Y349428D01*
X446149D01*
Y349465D01*
X446113D01*
Y349501D01*
X446040D01*
Y349538D01*
X446004D01*
Y349574D01*
X445967D01*
Y349611D01*
X445931D01*
Y349683D01*
X445894D01*
Y349720D01*
X445858D01*
Y349793D01*
X445821D01*
Y349866D01*
X445785D01*
Y349975D01*
X445749D01*
Y350121D01*
X445712D01*
Y352089D01*
X445749D01*
Y352272D01*
X445785D01*
Y352381D01*
X445821D01*
Y352454D01*
X445858D01*
Y352527D01*
X445894D01*
Y352600D01*
X445931D01*
Y352636D01*
X445967D01*
Y352673D01*
X446004D01*
Y352709D01*
X446040D01*
Y352746D01*
X446077D01*
Y352782D01*
X446113D01*
Y352818D01*
X446186D01*
Y352855D01*
X446259D01*
Y352891D01*
X446332D01*
Y352928D01*
X446441D01*
Y352964D01*
X446587D01*
Y353001D01*
X449540D01*
Y346002D01*
D02*
G37*
G36*
X444801D02*
X443525D01*
Y349538D01*
Y349574D01*
Y353001D01*
X444801D01*
Y346002D01*
D02*
G37*
G36*
X441593Y352855D02*
X441630D01*
Y352673D01*
X441666D01*
Y352490D01*
X441702D01*
Y352308D01*
X441739D01*
Y352126D01*
X441775D01*
Y351907D01*
X441812D01*
Y351725D01*
X441848D01*
Y351543D01*
X441885D01*
Y351360D01*
X441921D01*
Y351178D01*
X441958D01*
Y350996D01*
X441994D01*
Y350814D01*
X442030D01*
Y350595D01*
X442067D01*
Y350413D01*
X442103D01*
Y350230D01*
X442140D01*
Y350048D01*
X442176D01*
Y349866D01*
X442213D01*
Y349683D01*
X442249D01*
Y349465D01*
X442286D01*
Y349283D01*
X442322D01*
Y349100D01*
X442358D01*
Y348918D01*
X442395D01*
Y348736D01*
X442431D01*
Y348553D01*
X442468D01*
Y348335D01*
X442504D01*
Y348153D01*
X442541D01*
Y347970D01*
X442577D01*
Y347788D01*
X442614D01*
Y347606D01*
X442650D01*
Y347424D01*
X442687D01*
Y347241D01*
X442723D01*
Y347023D01*
X442760D01*
Y346840D01*
X442796D01*
Y346658D01*
X442832D01*
Y346476D01*
X442869D01*
Y346293D01*
X442905D01*
Y346111D01*
X442942D01*
Y346002D01*
X441630D01*
Y346184D01*
X441593D01*
Y346221D01*
Y346403D01*
X441557D01*
Y346622D01*
X441520D01*
Y346840D01*
X441484D01*
Y347059D01*
X441447D01*
Y347132D01*
X440281D01*
Y347059D01*
X440244D01*
Y346840D01*
X440208D01*
Y346585D01*
X440171D01*
Y346330D01*
X440135D01*
Y346075D01*
X440098D01*
Y346002D01*
X438786D01*
Y346111D01*
X438823D01*
Y346330D01*
X438859D01*
Y346512D01*
X438896D01*
Y346694D01*
X438932D01*
Y346913D01*
X438969D01*
Y347095D01*
X439005D01*
Y347314D01*
X439041D01*
Y347496D01*
X439078D01*
Y347679D01*
X439114D01*
Y347897D01*
X439151D01*
Y348080D01*
X439187D01*
Y348262D01*
X439224D01*
Y348481D01*
X439260D01*
Y348663D01*
X439297D01*
Y348845D01*
X439333D01*
Y349064D01*
X439369D01*
Y349246D01*
X439406D01*
Y349428D01*
X439442D01*
Y349647D01*
X439479D01*
Y349829D01*
X439515D01*
Y350012D01*
X439552D01*
Y350230D01*
X439588D01*
Y350413D01*
X439625D01*
Y350595D01*
X439661D01*
Y350814D01*
X439698D01*
Y350996D01*
X439734D01*
Y351215D01*
X439770D01*
Y351397D01*
X439807D01*
Y351579D01*
X439843D01*
Y351798D01*
X439880D01*
Y351980D01*
X439916D01*
Y352162D01*
X439953D01*
Y352381D01*
X439989D01*
Y352563D01*
X440026D01*
Y352746D01*
X440062D01*
Y352964D01*
X440098D01*
Y353001D01*
X441593D01*
Y352855D01*
D02*
G37*
%LPC*%
G36*
X466271Y360327D02*
X465433D01*
Y360291D01*
X465323D01*
Y360255D01*
X465250D01*
Y360218D01*
X465214D01*
Y360182D01*
X465177D01*
Y360145D01*
X465141D01*
Y360072D01*
X465104D01*
Y359234D01*
Y359197D01*
Y358541D01*
X465141D01*
Y358432D01*
X465177D01*
Y358396D01*
X465214D01*
Y358359D01*
X465287D01*
Y358323D01*
X465360D01*
Y358286D01*
X466271D01*
Y360327D01*
D02*
G37*
G36*
X461386Y360510D02*
X460913D01*
Y360473D01*
X460840D01*
Y360437D01*
X460767D01*
Y360400D01*
X460730D01*
Y360364D01*
X460694D01*
Y360327D01*
X460657D01*
Y360255D01*
X460621D01*
Y360182D01*
X460584D01*
Y360072D01*
X460548D01*
Y355662D01*
X460584D01*
Y355552D01*
X460621D01*
Y355479D01*
X460657D01*
Y355443D01*
X460694D01*
Y355406D01*
X460730D01*
Y355370D01*
X460767D01*
Y355333D01*
X460840D01*
Y355297D01*
X460913D01*
Y355261D01*
X461058D01*
Y355224D01*
X461313D01*
Y355261D01*
X461459D01*
Y355297D01*
X461532D01*
Y355333D01*
X461605D01*
Y355370D01*
X461642D01*
Y355406D01*
X461678D01*
Y355443D01*
X461714D01*
Y355516D01*
X461751D01*
Y355625D01*
X461787D01*
Y359744D01*
X461824D01*
Y359817D01*
X461787D01*
Y359963D01*
Y359999D01*
Y360109D01*
X461751D01*
Y360218D01*
X461714D01*
Y360255D01*
X461678D01*
Y360327D01*
X461642D01*
Y360364D01*
X461569D01*
Y360400D01*
X461532D01*
Y360437D01*
X461459D01*
Y360473D01*
X461386D01*
Y360510D01*
D02*
G37*
G36*
X426320D02*
X425882D01*
Y360473D01*
X425773D01*
Y360437D01*
X425737D01*
Y360400D01*
X425664D01*
Y360327D01*
X425627D01*
Y360291D01*
X425591D01*
Y360218D01*
X425554D01*
Y360145D01*
X425518D01*
Y359999D01*
X425481D01*
Y355734D01*
X425518D01*
Y355589D01*
X425554D01*
Y355516D01*
X425591D01*
Y355443D01*
X425627D01*
Y355406D01*
X425664D01*
Y355370D01*
X425700D01*
Y355333D01*
X425773D01*
Y355297D01*
X425846D01*
Y355261D01*
X425992D01*
Y355224D01*
X426247D01*
Y355261D01*
X426393D01*
Y355297D01*
X426502D01*
Y355333D01*
X426539D01*
Y355370D01*
X426575D01*
Y355406D01*
X426611D01*
Y355443D01*
X426648D01*
Y355479D01*
X426684D01*
Y355589D01*
X426721D01*
Y355734D01*
X426757D01*
Y359927D01*
Y359963D01*
Y359999D01*
X426721D01*
Y360145D01*
X426684D01*
Y360218D01*
X426648D01*
Y360291D01*
X426611D01*
Y360327D01*
X426575D01*
Y360364D01*
X426539D01*
Y360400D01*
X426466D01*
Y360437D01*
X426429D01*
Y360473D01*
X426320D01*
Y360510D01*
D02*
G37*
G36*
X477571Y358797D02*
X476915D01*
Y358760D01*
X476550D01*
Y358724D01*
X476295D01*
Y358687D01*
X476113D01*
Y358651D01*
X475967D01*
Y358614D01*
X475858D01*
Y358578D01*
X475712D01*
Y358541D01*
X475602D01*
Y358505D01*
X475493D01*
Y358468D01*
X475420D01*
Y358432D01*
X475311D01*
Y358396D01*
X475238D01*
Y358359D01*
X475165D01*
Y358323D01*
X475056D01*
Y358286D01*
X474983D01*
Y358250D01*
X474910D01*
Y358213D01*
X474873D01*
Y358177D01*
X474801D01*
Y358140D01*
X474728D01*
Y358104D01*
X474655D01*
Y358067D01*
X474618D01*
Y358031D01*
X474545D01*
Y357995D01*
X474473D01*
Y357958D01*
X474436D01*
Y357922D01*
X474363D01*
Y357885D01*
X474327D01*
Y357849D01*
X474290D01*
Y357812D01*
X474217D01*
Y357776D01*
X474181D01*
Y357739D01*
X474145D01*
Y357703D01*
X474072D01*
Y357666D01*
X474035D01*
Y357630D01*
X473999D01*
Y357594D01*
X473962D01*
Y357557D01*
X473889D01*
Y357521D01*
X473853D01*
Y357484D01*
X473816D01*
Y357448D01*
X473780D01*
Y357411D01*
X473743D01*
Y357375D01*
X473707D01*
Y357338D01*
X473671D01*
Y357302D01*
X473634D01*
Y357265D01*
X473598D01*
Y357229D01*
X473561D01*
Y357193D01*
X473525D01*
Y357156D01*
X473488D01*
Y357120D01*
X473452D01*
Y357083D01*
X473415D01*
Y357010D01*
X473379D01*
Y356974D01*
X473343D01*
Y356937D01*
X473306D01*
Y356901D01*
X473270D01*
Y356828D01*
X473233D01*
Y356792D01*
X473197D01*
Y356755D01*
X473160D01*
Y356682D01*
X473124D01*
Y356646D01*
X473087D01*
Y356609D01*
X473051D01*
Y356537D01*
X473014D01*
Y356500D01*
X472978D01*
Y356427D01*
X472942D01*
Y356354D01*
X472905D01*
Y356318D01*
X472869D01*
Y356245D01*
X472832D01*
Y356172D01*
X472796D01*
Y356099D01*
X472759D01*
Y356063D01*
X472723D01*
Y355990D01*
X472686D01*
Y355917D01*
X472650D01*
Y355807D01*
X472613D01*
Y355734D01*
X472577D01*
Y355662D01*
X472541D01*
Y355552D01*
X472504D01*
Y355479D01*
X472468D01*
Y355370D01*
X472431D01*
Y355261D01*
X472395D01*
Y355151D01*
X472358D01*
Y355006D01*
X472322D01*
Y354860D01*
X472285D01*
Y354677D01*
X472249D01*
Y354459D01*
X472213D01*
Y354131D01*
X472176D01*
Y353329D01*
X472213D01*
Y353001D01*
X472249D01*
Y352782D01*
X472285D01*
Y352600D01*
X472322D01*
Y352454D01*
X472358D01*
Y352308D01*
X472395D01*
Y352199D01*
X472431D01*
Y352089D01*
X472468D01*
Y351980D01*
X472504D01*
Y351871D01*
X472541D01*
Y351798D01*
X472577D01*
Y351688D01*
X472613D01*
Y351616D01*
X472650D01*
Y351543D01*
X472686D01*
Y351470D01*
X472723D01*
Y351397D01*
X472759D01*
Y351324D01*
X472796D01*
Y351251D01*
X472832D01*
Y351178D01*
X472869D01*
Y351142D01*
X472905D01*
Y351069D01*
X472942D01*
Y350996D01*
X472978D01*
Y350959D01*
X473014D01*
Y350886D01*
X473051D01*
Y350850D01*
X473087D01*
Y350777D01*
X473124D01*
Y350741D01*
X473160D01*
Y350704D01*
X473197D01*
Y350631D01*
X473233D01*
Y350595D01*
X473270D01*
Y350558D01*
X473306D01*
Y350522D01*
X473343D01*
Y350449D01*
X473379D01*
Y350413D01*
X473415D01*
Y350376D01*
X473452D01*
Y350340D01*
X473488D01*
Y350303D01*
X473525D01*
Y350267D01*
X473561D01*
Y350230D01*
X473598D01*
Y350194D01*
X473634D01*
Y350157D01*
X473671D01*
Y350121D01*
X473707D01*
Y350084D01*
X473743D01*
Y350048D01*
X473780D01*
Y350012D01*
X473816D01*
Y349975D01*
X473853D01*
Y349939D01*
X473889D01*
Y349902D01*
X473926D01*
Y349866D01*
X473962D01*
Y349829D01*
X474035D01*
Y349793D01*
X474072D01*
Y349756D01*
X474108D01*
Y349720D01*
X474145D01*
Y349683D01*
X474217D01*
Y349647D01*
X474254D01*
Y349611D01*
X474290D01*
Y349574D01*
X474363D01*
Y349538D01*
X474400D01*
Y349501D01*
X474473D01*
Y349465D01*
X474509D01*
Y349428D01*
X474582D01*
Y349392D01*
X474655D01*
Y349356D01*
X474691D01*
Y349319D01*
X474764D01*
Y349283D01*
X474837D01*
Y349246D01*
X474910D01*
Y349210D01*
X474983D01*
Y349173D01*
X475056D01*
Y349137D01*
X475129D01*
Y349100D01*
X475202D01*
Y349064D01*
X475275D01*
Y349027D01*
X475384D01*
Y348991D01*
X475457D01*
Y348955D01*
X475566D01*
Y348918D01*
X475675D01*
Y348882D01*
X475785D01*
Y348845D01*
X475931D01*
Y348809D01*
X476076D01*
Y348772D01*
X476222D01*
Y348736D01*
X476441D01*
Y348699D01*
X476732D01*
Y348663D01*
X477753D01*
Y348699D01*
X478045D01*
Y348736D01*
X478227D01*
Y348772D01*
X478409D01*
Y348809D01*
X478555D01*
Y348845D01*
X478664D01*
Y348882D01*
X478810D01*
Y348918D01*
X478920D01*
Y348955D01*
X478993D01*
Y348991D01*
X479102D01*
Y349027D01*
X479175D01*
Y349064D01*
X479284D01*
Y349100D01*
X479357D01*
Y349137D01*
X479430D01*
Y349173D01*
X479503D01*
Y349210D01*
X479576D01*
Y349246D01*
X479649D01*
Y349283D01*
X479722D01*
Y349319D01*
X479758D01*
Y349356D01*
X479831D01*
Y349392D01*
X479904D01*
Y349428D01*
X479940D01*
Y349465D01*
X480013D01*
Y349501D01*
X480050D01*
Y349538D01*
X480123D01*
Y349574D01*
X480159D01*
Y349611D01*
X480232D01*
Y349647D01*
X480268D01*
Y349683D01*
X480305D01*
Y349720D01*
X480378D01*
Y349756D01*
X480414D01*
Y349793D01*
X480451D01*
Y349829D01*
X480487D01*
Y349866D01*
X480523D01*
Y349902D01*
X480596D01*
Y349939D01*
X480633D01*
Y349975D01*
X480669D01*
Y350012D01*
X480706D01*
Y350048D01*
X480742D01*
Y350084D01*
X480779D01*
Y350121D01*
X480815D01*
Y350157D01*
X480852D01*
Y350194D01*
X480888D01*
Y350230D01*
X480925D01*
Y350267D01*
X480961D01*
Y350303D01*
X480997D01*
Y350340D01*
X481034D01*
Y350413D01*
X481070D01*
Y350449D01*
X481107D01*
Y350485D01*
X481143D01*
Y350522D01*
X481180D01*
Y350558D01*
X481216D01*
Y350631D01*
X481252D01*
Y350668D01*
X481289D01*
Y350704D01*
X481325D01*
Y350777D01*
X481362D01*
Y350814D01*
X481398D01*
Y350886D01*
X481435D01*
Y350923D01*
X481471D01*
Y350996D01*
X481508D01*
Y351032D01*
X481544D01*
Y351105D01*
X481581D01*
Y351178D01*
X481617D01*
Y351215D01*
X481653D01*
Y351287D01*
X481690D01*
Y351360D01*
X481726D01*
Y351433D01*
X481763D01*
Y351506D01*
X481799D01*
Y351579D01*
X481836D01*
Y351652D01*
X481872D01*
Y351725D01*
X481909D01*
Y351834D01*
X481945D01*
Y351907D01*
X481982D01*
Y352016D01*
X482018D01*
Y352126D01*
X482055D01*
Y352235D01*
X482091D01*
Y352381D01*
X482127D01*
Y352527D01*
X482164D01*
Y352673D01*
X482200D01*
Y352855D01*
X482237D01*
Y353110D01*
X482273D01*
Y354313D01*
X482237D01*
Y354568D01*
X482200D01*
Y354787D01*
X482164D01*
Y354933D01*
X482127D01*
Y355078D01*
X482091D01*
Y355188D01*
X482055D01*
Y355333D01*
X482018D01*
Y355406D01*
X481982D01*
Y355516D01*
X481945D01*
Y355625D01*
X481909D01*
Y355698D01*
X481872D01*
Y355771D01*
X481836D01*
Y355880D01*
X481799D01*
Y355953D01*
X481763D01*
Y356026D01*
X481726D01*
Y356099D01*
X481690D01*
Y356136D01*
X481653D01*
Y356208D01*
X481617D01*
Y356281D01*
X481581D01*
Y356354D01*
X481544D01*
Y356391D01*
X481508D01*
Y356464D01*
X481471D01*
Y356500D01*
X481435D01*
Y356573D01*
X481398D01*
Y356609D01*
X481362D01*
Y356682D01*
X481325D01*
Y356719D01*
X481289D01*
Y356792D01*
X481252D01*
Y356828D01*
X481216D01*
Y356865D01*
X481180D01*
Y356901D01*
X481143D01*
Y356974D01*
X481107D01*
Y357010D01*
X481070D01*
Y357047D01*
X481034D01*
Y357083D01*
X480997D01*
Y357120D01*
X480961D01*
Y357156D01*
X480925D01*
Y357193D01*
X480888D01*
Y357229D01*
X480852D01*
Y357265D01*
X480815D01*
Y357302D01*
X480779D01*
Y357338D01*
X480742D01*
Y357375D01*
X480706D01*
Y357411D01*
X480669D01*
Y357448D01*
X480633D01*
Y357484D01*
X480596D01*
Y357521D01*
X480560D01*
Y357557D01*
X480523D01*
Y357594D01*
X480487D01*
Y357630D01*
X480414D01*
Y357666D01*
X480378D01*
Y357703D01*
X480341D01*
Y357739D01*
X480305D01*
Y357776D01*
X480232D01*
Y357812D01*
X480195D01*
Y357849D01*
X480159D01*
Y357885D01*
X480086D01*
Y357922D01*
X480050D01*
Y357958D01*
X479977D01*
Y357995D01*
X479940D01*
Y358031D01*
X479867D01*
Y358067D01*
X479795D01*
Y358104D01*
X479758D01*
Y358140D01*
X479685D01*
Y358177D01*
X479612D01*
Y358213D01*
X479539D01*
Y358250D01*
X479466D01*
Y358286D01*
X479393D01*
Y358323D01*
X479321D01*
Y358359D01*
X479248D01*
Y358396D01*
X479138D01*
Y358432D01*
X479065D01*
Y358468D01*
X478956D01*
Y358505D01*
X478847D01*
Y358541D01*
X478737D01*
Y358578D01*
X478628D01*
Y358614D01*
X478482D01*
Y358651D01*
X478336D01*
Y358687D01*
X478154D01*
Y358724D01*
X477935D01*
Y358760D01*
X477571D01*
Y358797D01*
D02*
G37*
%LPD*%
G36*
X477607Y357193D02*
X477863D01*
Y357156D01*
X478045D01*
Y357120D01*
X478191D01*
Y357083D01*
X478300D01*
Y357047D01*
X478409D01*
Y357010D01*
X478519D01*
Y356974D01*
X478592D01*
Y356937D01*
X478664D01*
Y356901D01*
X478774D01*
Y356865D01*
X478847D01*
Y356828D01*
X478883D01*
Y356792D01*
X478956D01*
Y356755D01*
X479029D01*
Y356719D01*
X479102D01*
Y356682D01*
X479138D01*
Y356646D01*
X479211D01*
Y356609D01*
X479248D01*
Y356573D01*
X479284D01*
Y356537D01*
X479357D01*
Y356500D01*
X479393D01*
Y356464D01*
X479430D01*
Y356427D01*
X479466D01*
Y356391D01*
X479539D01*
Y356354D01*
X479576D01*
Y356318D01*
X479612D01*
Y356281D01*
X479649D01*
Y356245D01*
X479685D01*
Y356208D01*
X479722D01*
Y356172D01*
X479758D01*
Y356136D01*
X479795D01*
Y356099D01*
X479831D01*
Y356063D01*
X479867D01*
Y356026D01*
X479904D01*
Y355953D01*
X479940D01*
Y355917D01*
X479977D01*
Y355880D01*
X480013D01*
Y355844D01*
X480050D01*
Y355771D01*
X480086D01*
Y355734D01*
X480123D01*
Y355662D01*
X480159D01*
Y355625D01*
X480195D01*
Y355552D01*
X480232D01*
Y355516D01*
X480268D01*
Y355443D01*
X480305D01*
Y355370D01*
X480341D01*
Y355297D01*
X480378D01*
Y355224D01*
X480414D01*
Y355151D01*
X480451D01*
Y355078D01*
X480487D01*
Y354969D01*
X480523D01*
Y354860D01*
X480560D01*
Y354750D01*
X480596D01*
Y354641D01*
X480633D01*
Y354495D01*
X480669D01*
Y354313D01*
X480706D01*
Y353985D01*
X480742D01*
Y353438D01*
X480706D01*
Y353146D01*
X480669D01*
Y352964D01*
X480633D01*
Y352818D01*
X480596D01*
Y352673D01*
X480560D01*
Y352563D01*
X480523D01*
Y352490D01*
X480487D01*
Y352381D01*
X480451D01*
Y352308D01*
X480414D01*
Y352199D01*
X480378D01*
Y352126D01*
X480341D01*
Y352053D01*
X480305D01*
Y352016D01*
X480268D01*
Y351943D01*
X480232D01*
Y351871D01*
X480195D01*
Y351834D01*
X480159D01*
Y351761D01*
X480123D01*
Y351725D01*
X480086D01*
Y351652D01*
X480050D01*
Y351616D01*
X480013D01*
Y351579D01*
X479977D01*
Y351506D01*
X479940D01*
Y351470D01*
X479904D01*
Y351433D01*
X479867D01*
Y351397D01*
X479831D01*
Y351360D01*
X479795D01*
Y351324D01*
X479758D01*
Y351287D01*
X479722D01*
Y351251D01*
X479685D01*
Y351215D01*
X479649D01*
Y351178D01*
X479612D01*
Y351142D01*
X479576D01*
Y351105D01*
X479539D01*
Y351069D01*
X479503D01*
Y351032D01*
X479466D01*
Y350996D01*
X479430D01*
Y350959D01*
X479357D01*
Y350923D01*
X479321D01*
Y350886D01*
X479284D01*
Y350850D01*
X479211D01*
Y350814D01*
X479175D01*
Y350777D01*
X479102D01*
Y350741D01*
X479065D01*
Y350704D01*
X478993D01*
Y350668D01*
X478920D01*
Y350631D01*
X478847D01*
Y350595D01*
X478774D01*
Y350558D01*
X478701D01*
Y350522D01*
X478628D01*
Y350485D01*
X478555D01*
Y350449D01*
X478446D01*
Y350413D01*
X478336D01*
Y350376D01*
X478227D01*
Y350340D01*
X478081D01*
Y350303D01*
X477935D01*
Y350267D01*
X477717D01*
Y350230D01*
X476732D01*
Y350267D01*
X476514D01*
Y350303D01*
X476368D01*
Y350340D01*
X476259D01*
Y350376D01*
X476113D01*
Y350413D01*
X476040D01*
Y350449D01*
X475931D01*
Y350485D01*
X475821D01*
Y350522D01*
X475748D01*
Y350558D01*
X475675D01*
Y350595D01*
X475602D01*
Y350631D01*
X475530D01*
Y350668D01*
X475493D01*
Y350704D01*
X475420D01*
Y350741D01*
X475347D01*
Y350777D01*
X475311D01*
Y350814D01*
X475238D01*
Y350850D01*
X475202D01*
Y350886D01*
X475165D01*
Y350923D01*
X475092D01*
Y350959D01*
X475056D01*
Y350996D01*
X475019D01*
Y351032D01*
X474983D01*
Y351069D01*
X474910D01*
Y351105D01*
X474873D01*
Y351142D01*
X474837D01*
Y351178D01*
X474801D01*
Y351215D01*
X474764D01*
Y351251D01*
X474728D01*
Y351287D01*
X474691D01*
Y351324D01*
X474655D01*
Y351360D01*
X474618D01*
Y351397D01*
X474582D01*
Y351470D01*
X474545D01*
Y351506D01*
X474509D01*
Y351543D01*
X474473D01*
Y351579D01*
X474436D01*
Y351652D01*
X474400D01*
Y351688D01*
X474363D01*
Y351725D01*
X474327D01*
Y351798D01*
X474290D01*
Y351834D01*
X474254D01*
Y351907D01*
X474217D01*
Y351980D01*
X474181D01*
Y352053D01*
X474145D01*
Y352089D01*
X474108D01*
Y352162D01*
X474072D01*
Y352272D01*
X474035D01*
Y352344D01*
X473999D01*
Y352417D01*
X473962D01*
Y352527D01*
X473926D01*
Y352636D01*
X473889D01*
Y352746D01*
X473853D01*
Y352891D01*
X473816D01*
Y353037D01*
X473780D01*
Y353256D01*
X473743D01*
Y354167D01*
X473780D01*
Y354386D01*
X473816D01*
Y354568D01*
X473853D01*
Y354677D01*
X473889D01*
Y354823D01*
X473926D01*
Y354933D01*
X473962D01*
Y355006D01*
X473999D01*
Y355115D01*
X474035D01*
Y355188D01*
X474072D01*
Y355261D01*
X474108D01*
Y355333D01*
X474145D01*
Y355406D01*
X474181D01*
Y355479D01*
X474217D01*
Y355552D01*
X474254D01*
Y355589D01*
X474290D01*
Y355662D01*
X474327D01*
Y355698D01*
X474363D01*
Y355771D01*
X474400D01*
Y355807D01*
X474436D01*
Y355844D01*
X474473D01*
Y355917D01*
X474509D01*
Y355953D01*
X474545D01*
Y355990D01*
X474582D01*
Y356026D01*
X474618D01*
Y356063D01*
X474655D01*
Y356099D01*
X474691D01*
Y356136D01*
X474728D01*
Y356172D01*
X474764D01*
Y356208D01*
X474801D01*
Y356245D01*
X474837D01*
Y356281D01*
X474873D01*
Y356318D01*
X474910D01*
Y356354D01*
X474946D01*
Y356391D01*
X474983D01*
Y356427D01*
X475019D01*
Y356464D01*
X475056D01*
Y356500D01*
X475129D01*
Y356537D01*
X475165D01*
Y356573D01*
X475202D01*
Y356609D01*
X475275D01*
Y356646D01*
X475311D01*
Y356682D01*
X475384D01*
Y356719D01*
X475457D01*
Y356755D01*
X475493D01*
Y356792D01*
X475566D01*
Y356828D01*
X475639D01*
Y356865D01*
X475712D01*
Y356901D01*
X475785D01*
Y356937D01*
X475858D01*
Y356974D01*
X475967D01*
Y357010D01*
X476076D01*
Y357047D01*
X476186D01*
Y357083D01*
X476295D01*
Y357120D01*
X476441D01*
Y357156D01*
X476623D01*
Y357193D01*
X476842D01*
Y357229D01*
X477607D01*
Y357193D01*
D02*
G37*
%LPC*%
G36*
X479466Y354605D02*
X479065D01*
Y354568D01*
X478956D01*
Y354532D01*
X478883D01*
Y354495D01*
X478810D01*
Y354459D01*
X478737D01*
Y354422D01*
X478701D01*
Y354386D01*
X478664D01*
Y354349D01*
X478628D01*
Y354313D01*
X478592D01*
Y354276D01*
X478555D01*
Y354204D01*
X478519D01*
Y354167D01*
X478482D01*
Y354094D01*
X478446D01*
Y353985D01*
X478409D01*
Y353839D01*
X478373D01*
Y353620D01*
X478409D01*
Y353438D01*
X478446D01*
Y353365D01*
X478482D01*
Y353292D01*
X478519D01*
Y353219D01*
X478555D01*
Y353183D01*
X478592D01*
Y353146D01*
X478628D01*
Y353110D01*
X478664D01*
Y353074D01*
X478701D01*
Y353037D01*
X478737D01*
Y353001D01*
X478774D01*
Y352964D01*
X478847D01*
Y352928D01*
X478920D01*
Y352891D01*
X479029D01*
Y352855D01*
X479503D01*
Y352891D01*
X479612D01*
Y352928D01*
X479685D01*
Y352964D01*
X479758D01*
Y353001D01*
X479795D01*
Y353037D01*
X479831D01*
Y353074D01*
X479904D01*
Y353110D01*
X479940D01*
Y353183D01*
X479977D01*
Y353219D01*
X480013D01*
Y353256D01*
Y353292D01*
X480050D01*
Y353365D01*
X480086D01*
Y353438D01*
X480123D01*
Y353584D01*
X480159D01*
Y353839D01*
X480123D01*
Y354021D01*
X480086D01*
Y354094D01*
X480050D01*
Y354167D01*
X480013D01*
Y354240D01*
X479977D01*
Y354276D01*
X479940D01*
Y354313D01*
X479904D01*
Y354349D01*
X479867D01*
Y354386D01*
X479831D01*
Y354422D01*
X479795D01*
Y354459D01*
X479722D01*
Y354495D01*
X479649D01*
Y354532D01*
X479576D01*
Y354568D01*
X479466D01*
Y354605D01*
D02*
G37*
G36*
X466745Y349866D02*
X466198D01*
Y349829D01*
X466089D01*
Y349793D01*
X466052D01*
Y349756D01*
X466016D01*
Y349720D01*
X465979D01*
Y349647D01*
X465943D01*
Y348553D01*
Y348517D01*
Y346950D01*
X465979D01*
Y346840D01*
X466016D01*
Y346804D01*
X466052D01*
Y346767D01*
X466089D01*
Y346731D01*
X466161D01*
Y346694D01*
X466745D01*
Y349866D01*
D02*
G37*
G36*
X448264Y352016D02*
X447462D01*
Y351980D01*
X447243D01*
Y351943D01*
X447170D01*
Y351907D01*
X447134D01*
Y351871D01*
X447097D01*
Y351834D01*
X447061D01*
Y351761D01*
X447024D01*
Y351616D01*
X446988D01*
Y350595D01*
X447024D01*
Y350449D01*
X447061D01*
Y350376D01*
X447097D01*
Y350303D01*
X447134D01*
Y350267D01*
X447170D01*
Y350230D01*
X447243D01*
Y350194D01*
X447352D01*
Y350157D01*
X448264D01*
Y352016D01*
D02*
G37*
G36*
X440864Y351105D02*
X440828D01*
Y351032D01*
X440791D01*
Y350777D01*
X440755D01*
Y350741D01*
Y350522D01*
X440718D01*
Y350267D01*
X440682D01*
Y350012D01*
X440645D01*
Y349720D01*
X440609D01*
Y349465D01*
X440572D01*
Y349210D01*
X440536D01*
Y348955D01*
X440499D01*
Y348699D01*
X440463D01*
Y348444D01*
X440427D01*
Y348262D01*
X441265D01*
Y348517D01*
X441228D01*
Y348736D01*
X441192D01*
Y348991D01*
X441156D01*
Y349210D01*
X441119D01*
Y349465D01*
X441083D01*
Y349683D01*
X441046D01*
Y349902D01*
X441010D01*
Y350157D01*
X440973D01*
Y350376D01*
X440937D01*
Y350631D01*
X440900D01*
Y350850D01*
X440864D01*
Y351105D01*
D02*
G37*
%LPD*%
D14*
X144566Y502000D02*
X144436Y502988D01*
X144054Y503909D01*
X143448Y504700D01*
X142657Y505306D01*
X141736Y505688D01*
X140748Y505818D01*
X139760Y505688D01*
X138839Y505306D01*
X138049Y504700D01*
X137442Y503909D01*
X137060Y502988D01*
X136930Y502000D01*
X137060Y501012D01*
X137442Y500091D01*
X138049Y499300D01*
X138839Y498694D01*
X139760Y498312D01*
X140748Y498182D01*
X141736Y498312D01*
X142657Y498694D01*
X143448Y499300D01*
X144054Y500091D01*
X144436Y501012D01*
X144566Y502000D01*
X154566D02*
X154436Y502988D01*
X154054Y503909D01*
X153448Y504700D01*
X152657Y505306D01*
X151736Y505688D01*
X150748Y505818D01*
X149760Y505688D01*
X148839Y505306D01*
X148048Y504700D01*
X147442Y503909D01*
X147060Y502988D01*
X146930Y502000D01*
X147060Y501012D01*
X147442Y500091D01*
X148048Y499300D01*
X148839Y498694D01*
X149760Y498312D01*
X150748Y498182D01*
X151736Y498312D01*
X152657Y498694D01*
X153448Y499300D01*
X154054Y500091D01*
X154436Y501012D01*
X154566Y502000D01*
Y492000D02*
X154436Y492988D01*
X154054Y493909D01*
X153448Y494700D01*
X152657Y495306D01*
X151736Y495688D01*
X150748Y495818D01*
X149760Y495688D01*
X148839Y495306D01*
X148048Y494700D01*
X147442Y493909D01*
X147060Y492988D01*
X146930Y492000D01*
X147060Y491012D01*
X147442Y490091D01*
X148048Y489300D01*
X148839Y488694D01*
X149760Y488312D01*
X150748Y488182D01*
X151736Y488312D01*
X152657Y488694D01*
X153448Y489300D01*
X154054Y490091D01*
X154436Y491012D01*
X154566Y492000D01*
X144566D02*
X144436Y492988D01*
X144054Y493909D01*
X143448Y494700D01*
X142657Y495306D01*
X141736Y495688D01*
X140748Y495818D01*
X139760Y495688D01*
X138839Y495306D01*
X138049Y494700D01*
X137442Y493909D01*
X137060Y492988D01*
X136930Y492000D01*
X137060Y491012D01*
X137442Y490091D01*
X138049Y489300D01*
X138839Y488694D01*
X139760Y488312D01*
X140748Y488182D01*
X141736Y488312D01*
X142657Y488694D01*
X143448Y489300D01*
X144054Y490091D01*
X144436Y491012D01*
X144566Y492000D01*
X170314D02*
X170184Y492988D01*
X169802Y493909D01*
X169196Y494700D01*
X168405Y495306D01*
X167484Y495688D01*
X166496Y495818D01*
X165508Y495688D01*
X164587Y495306D01*
X163796Y494700D01*
X163190Y493909D01*
X162808Y492988D01*
X162678Y492000D01*
X162808Y491012D01*
X163190Y490091D01*
X163796Y489300D01*
X164587Y488694D01*
X165508Y488312D01*
X166496Y488182D01*
X167484Y488312D01*
X168405Y488694D01*
X169196Y489300D01*
X169802Y490091D01*
X170184Y491012D01*
X170314Y492000D01*
X180314D02*
X180184Y492988D01*
X179802Y493909D01*
X179196Y494700D01*
X178405Y495306D01*
X177484Y495688D01*
X176496Y495818D01*
X175508Y495688D01*
X174587Y495306D01*
X173796Y494700D01*
X173190Y493909D01*
X172808Y492988D01*
X172678Y492000D01*
X172808Y491012D01*
X173190Y490091D01*
X173796Y489300D01*
X174587Y488694D01*
X175508Y488312D01*
X176496Y488182D01*
X177484Y488312D01*
X178405Y488694D01*
X179196Y489300D01*
X179802Y490091D01*
X180184Y491012D01*
X180314Y492000D01*
X194818D02*
X194688Y492988D01*
X194306Y493909D01*
X193700Y494700D01*
X192909Y495306D01*
X191988Y495688D01*
X191000Y495818D01*
X190012Y495688D01*
X189091Y495306D01*
X188300Y494700D01*
X187694Y493909D01*
X187312Y492988D01*
X187182Y492000D01*
X187312Y491012D01*
X187694Y490091D01*
X188300Y489300D01*
X189091Y488694D01*
X190012Y488312D01*
X191000Y488182D01*
X191988Y488312D01*
X192909Y488694D01*
X193700Y489300D01*
X194306Y490091D01*
X194688Y491012D01*
X194818Y492000D01*
X204818D02*
X204688Y492988D01*
X204306Y493909D01*
X203700Y494700D01*
X202909Y495306D01*
X201988Y495688D01*
X201000Y495818D01*
X200012Y495688D01*
X199091Y495306D01*
X198300Y494700D01*
X197694Y493909D01*
X197312Y492988D01*
X197182Y492000D01*
X197312Y491012D01*
X197694Y490091D01*
X198300Y489300D01*
X199091Y488694D01*
X200012Y488312D01*
X201000Y488182D01*
X201988Y488312D01*
X202909Y488694D01*
X203700Y489300D01*
X204306Y490091D01*
X204688Y491012D01*
X204818Y492000D01*
X180314Y502000D02*
X180184Y502988D01*
X179802Y503909D01*
X179196Y504700D01*
X178405Y505306D01*
X177484Y505688D01*
X176496Y505818D01*
X175508Y505688D01*
X174587Y505306D01*
X173796Y504700D01*
X173190Y503909D01*
X172808Y502988D01*
X172678Y502000D01*
X172808Y501012D01*
X173190Y500091D01*
X173796Y499300D01*
X174587Y498694D01*
X175508Y498312D01*
X176496Y498182D01*
X177484Y498312D01*
X178405Y498694D01*
X179196Y499300D01*
X179802Y500091D01*
X180184Y501012D01*
X180314Y502000D01*
X170314D02*
X170184Y502988D01*
X169802Y503909D01*
X169196Y504700D01*
X168405Y505306D01*
X167484Y505688D01*
X166496Y505818D01*
X165508Y505688D01*
X164587Y505306D01*
X163796Y504700D01*
X163190Y503909D01*
X162808Y502988D01*
X162678Y502000D01*
X162808Y501012D01*
X163190Y500091D01*
X163796Y499300D01*
X164587Y498694D01*
X165508Y498312D01*
X166496Y498182D01*
X167484Y498312D01*
X168405Y498694D01*
X169196Y499300D01*
X169802Y500091D01*
X170184Y501012D01*
X170314Y502000D01*
X194818D02*
X194688Y502988D01*
X194306Y503909D01*
X193700Y504700D01*
X192909Y505306D01*
X191988Y505688D01*
X191000Y505818D01*
X190012Y505688D01*
X189091Y505306D01*
X188300Y504700D01*
X187694Y503909D01*
X187312Y502988D01*
X187182Y502000D01*
X187312Y501012D01*
X187694Y500091D01*
X188300Y499300D01*
X189091Y498694D01*
X190012Y498312D01*
X191000Y498182D01*
X191988Y498312D01*
X192909Y498694D01*
X193700Y499300D01*
X194306Y500091D01*
X194688Y501012D01*
X194818Y502000D01*
X204818D02*
X204688Y502988D01*
X204306Y503909D01*
X203700Y504700D01*
X202909Y505306D01*
X201988Y505688D01*
X201000Y505818D01*
X200012Y505688D01*
X199091Y505306D01*
X198300Y504700D01*
X197694Y503909D01*
X197312Y502988D01*
X197182Y502000D01*
X197312Y501012D01*
X197694Y500091D01*
X198300Y499300D01*
X199091Y498694D01*
X200012Y498312D01*
X201000Y498182D01*
X201988Y498312D01*
X202909Y498694D01*
X203700Y499300D01*
X204306Y500091D01*
X204688Y501012D01*
X204818Y502000D01*
X283500Y363000D02*
X420778Y362900D01*
X125500Y459500D02*
Y501000D01*
X126500Y502000D02*
X136500D01*
X150748Y506248D02*
Y511752D01*
X150000Y512500D02*
X150748Y511752D01*
X140748Y476000D02*
Y488000D01*
X133500Y512500D02*
X150000D01*
X118500Y497500D02*
X133500Y512500D01*
X113500Y450500D02*
Y497500D01*
X118500D01*
X125500Y501000D02*
X126500Y502000D01*
X150748Y467500D02*
Y488000D01*
X176496Y470500D02*
Y488000D01*
X166496Y476000D02*
Y488000D01*
X201000Y467500D02*
Y488000D01*
X191000Y470500D02*
Y488000D01*
X159248Y517000D02*
X176496D01*
Y506248D02*
Y517000D01*
X166496Y506248D02*
Y509000D01*
X157248D02*
X166496D01*
X178500D02*
X200000D01*
X203000Y510936D02*
Y517000D01*
X180000D02*
X201000D01*
X203000Y508248D02*
Y510936D01*
X201000Y517000D02*
X203000D01*
Y505500D02*
Y508248D01*
X197248Y506248D02*
X200000Y509000D01*
X194500Y503500D02*
X197248Y506248D01*
X418310Y352131D02*
X419622D01*
X420278Y351475D01*
Y348851D01*
X419622Y348195D01*
X418310D01*
X417654Y348851D01*
Y351475D01*
X418310Y352131D01*
X416342Y350819D02*
Y348195D01*
Y349507D01*
X415686Y350163D01*
X415030Y350819D01*
X414374D01*
X412406Y348195D02*
X411095D01*
X411751D01*
Y350819D01*
X412406D01*
X407159Y348195D02*
X408471D01*
X409127Y348851D01*
Y350163D01*
X408471Y350819D01*
X407159D01*
X406503Y350163D01*
Y349507D01*
X409127D01*
X405191Y348195D02*
Y350819D01*
X403223D01*
X402567Y350163D01*
Y348195D01*
X400599Y351475D02*
Y350819D01*
X401255D01*
X399943D01*
X400599D01*
Y348851D01*
X399943Y348195D01*
X397320Y350819D02*
X396008D01*
X395352Y350163D01*
Y348195D01*
X397320D01*
X397975Y348851D01*
X397320Y349507D01*
X395352D01*
X391416Y352131D02*
Y348195D01*
X393384D01*
X394040Y348851D01*
Y350163D01*
X393384Y350819D01*
X391416D01*
X389448Y348195D02*
X388136D01*
X387480Y348851D01*
Y350163D01*
X388136Y350819D01*
X389448D01*
X390104Y350163D01*
Y348851D01*
X389448Y348195D01*
X382232D02*
Y352131D01*
X380265D01*
X379609Y351475D01*
Y350163D01*
X380265Y349507D01*
X382232D01*
X377641Y348195D02*
X376329D01*
X375673Y348851D01*
Y350163D01*
X376329Y350819D01*
X377641D01*
X378297Y350163D01*
Y348851D01*
X377641Y348195D01*
X374361Y350819D02*
Y348195D01*
Y349507D01*
X373705Y350163D01*
X373049Y350819D01*
X372393D01*
X370425D02*
X369769D01*
Y350163D01*
X370425D01*
Y350819D01*
Y348851D02*
X369769D01*
Y348195D01*
X370425D01*
Y348851D01*
X417654Y377437D02*
X420278D01*
Y373502D01*
X417654D01*
X420278Y375469D02*
X418966D01*
X416342Y373502D02*
Y376126D01*
X414374D01*
X413718Y375469D01*
Y373502D01*
X411095Y372190D02*
X410439D01*
X409783Y372846D01*
Y376126D01*
X411751D01*
X412406Y375469D01*
Y374158D01*
X411751Y373502D01*
X409783D01*
X406503D02*
X407815D01*
X408471Y374158D01*
Y375469D01*
X407815Y376126D01*
X406503D01*
X405847Y375469D01*
Y374814D01*
X408471D01*
X404535Y373502D02*
Y376126D01*
X402567D01*
X401911Y375469D01*
Y373502D01*
X400599Y377437D02*
Y373502D01*
Y375469D01*
X399943Y376126D01*
X398631D01*
X397975Y375469D01*
Y373502D01*
X396008Y376126D02*
X394696D01*
X394040Y375469D01*
Y373502D01*
X396008D01*
X396664Y374158D01*
X396008Y374814D01*
X394040D01*
X392728Y376126D02*
Y373502D01*
Y374814D01*
X392072Y375469D01*
X391416Y376126D01*
X390760D01*
X388792Y373502D02*
X387480D01*
X388136D01*
Y376126D01*
X388792D01*
X384856D02*
X383544D01*
X382889Y375469D01*
Y373502D01*
X384856D01*
X385512Y374158D01*
X384856Y374814D01*
X382889D01*
X375017Y377437D02*
X377641D01*
Y373502D01*
X375017D01*
X377641Y375469D02*
X376329D01*
X373705Y373502D02*
X372393D01*
X373049D01*
Y377437D01*
X373705D01*
X368457Y373502D02*
X369769D01*
X370425Y374158D01*
Y375469D01*
X369769Y376126D01*
X368457D01*
X367801Y375469D01*
Y374814D01*
X370425D01*
X365834Y376781D02*
Y376126D01*
X366490D01*
X365178D01*
X365834D01*
Y374158D01*
X365178Y373502D01*
X363210Y376126D02*
Y373502D01*
Y374814D01*
X362554Y375469D01*
X361898Y376126D01*
X361242D01*
X358618Y373502D02*
X357306D01*
X356650Y374158D01*
Y375469D01*
X357306Y376126D01*
X358618D01*
X359274Y375469D01*
Y374158D01*
X358618Y373502D01*
X354682Y376781D02*
Y376126D01*
X355338D01*
X354026D01*
X354682D01*
Y374158D01*
X354026Y373502D01*
X350091D02*
X351403D01*
X352059Y374158D01*
Y375469D01*
X351403Y376126D01*
X350091D01*
X349435Y375469D01*
Y374814D01*
X352059D01*
X345499Y376126D02*
X347467D01*
X348123Y375469D01*
Y374158D01*
X347467Y373502D01*
X345499D01*
X344187D02*
Y376126D01*
X342219D01*
X341563Y375469D01*
Y373502D01*
X340251D02*
X338939D01*
X339595D01*
Y376126D01*
X340251D01*
X334348D02*
X336316D01*
X336971Y375469D01*
Y374158D01*
X336316Y373502D01*
X334348D01*
X332380Y376126D02*
X331068D01*
X330412Y375469D01*
Y373502D01*
X332380D01*
X333036Y374158D01*
X332380Y374814D01*
X330412D01*
X323196Y373502D02*
X324508D01*
X325164Y374158D01*
Y375469D01*
X324508Y376126D01*
X323196D01*
X322540Y375469D01*
Y374814D01*
X325164D01*
X314669Y377437D02*
Y373502D01*
X316637D01*
X317293Y374158D01*
Y375469D01*
X316637Y376126D01*
X314669D01*
X311389Y373502D02*
X312701D01*
X313357Y374158D01*
Y375469D01*
X312701Y376126D01*
X311389D01*
X310733Y375469D01*
Y374814D01*
X313357D01*
X302862Y376781D02*
X303518Y377437D01*
X304830D01*
X305486Y376781D01*
Y374158D01*
X304830Y373502D01*
X303518D01*
X302862Y374158D01*
X300894Y373502D02*
X299582D01*
X298926Y374158D01*
Y375469D01*
X299582Y376126D01*
X300894D01*
X301550Y375469D01*
Y374158D01*
X300894Y373502D01*
X297614D02*
Y376126D01*
X296958D01*
X296302Y375469D01*
Y373502D01*
Y375469D01*
X295646Y376126D01*
X294990Y375469D01*
Y373502D01*
X293678Y372190D02*
Y376126D01*
X291710D01*
X291055Y375469D01*
Y374158D01*
X291710Y373502D01*
X293678D01*
X289743Y376126D02*
Y374158D01*
X289087Y373502D01*
X287119D01*
Y376126D01*
X285151Y376781D02*
Y376126D01*
X285807D01*
X284495D01*
X285151D01*
Y374158D01*
X284495Y373502D01*
X281871Y376126D02*
X280559D01*
X279903Y375469D01*
Y373502D01*
X281871D01*
X282527Y374158D01*
X281871Y374814D01*
X279903D01*
X275968Y377437D02*
Y373502D01*
X277935D01*
X278591Y374158D01*
Y375469D01*
X277935Y376126D01*
X275968D01*
X274000Y373502D02*
X272688D01*
X272032Y374158D01*
Y375469D01*
X272688Y376126D01*
X274000D01*
X274656Y375469D01*
Y374158D01*
X274000Y373502D01*
X270720Y376126D02*
Y373502D01*
Y374814D01*
X270064Y375469D01*
X269408Y376126D01*
X268752D01*
X264816Y373502D02*
X266128D01*
X266784Y374158D01*
Y375469D01*
X266128Y376126D01*
X264816D01*
X264160Y375469D01*
Y374814D01*
X266784D01*
X262848Y373502D02*
X260880D01*
X260225Y374158D01*
X260880Y374814D01*
X262193D01*
X262848Y375469D01*
X262193Y376126D01*
X260225D01*
X420278Y328136D02*
Y324200D01*
X418310D01*
X417654Y324856D01*
Y327480D01*
X418310Y328136D01*
X420278D01*
X415686Y324200D02*
X414374D01*
X413718Y324856D01*
Y326168D01*
X414374Y326824D01*
X415686D01*
X416342Y326168D01*
Y324856D01*
X415686Y324200D01*
X412406Y326824D02*
Y324856D01*
X411751Y324200D01*
X409783D01*
Y326824D01*
X407815Y327480D02*
Y326824D01*
X408471D01*
X407159D01*
X407815D01*
Y324856D01*
X407159Y324200D01*
X404535D02*
X403223D01*
X402567Y324856D01*
Y326168D01*
X403223Y326824D01*
X404535D01*
X405191Y326168D01*
Y324856D01*
X404535Y324200D01*
X401255Y326824D02*
Y324200D01*
Y325512D01*
X400599Y326168D01*
X399943Y326824D01*
X399287D01*
X393384Y324200D02*
Y328136D01*
X390760Y324200D01*
Y328136D01*
X389448Y326824D02*
Y324856D01*
X388792Y324200D01*
X386824D01*
Y326824D01*
X385512Y324200D02*
Y326824D01*
X383544D01*
X382889Y326168D01*
Y324200D01*
X380921D02*
X379609D01*
X378953Y324856D01*
Y326168D01*
X379609Y326824D01*
X380921D01*
X381577Y326168D01*
Y324856D01*
X380921Y324200D01*
X371081Y327480D02*
X371737Y328136D01*
X373049D01*
X373705Y327480D01*
Y324856D01*
X373049Y324200D01*
X371737D01*
X371081Y324856D01*
Y326168D01*
X372393D01*
X369769Y324200D02*
X368457D01*
X369113D01*
Y326824D01*
X369769D01*
X366490Y324200D02*
X365178D01*
X365834D01*
Y328136D01*
X366490D01*
X420278Y356193D02*
Y360129D01*
X418310D01*
X417654Y359473D01*
Y358161D01*
X418310Y357505D01*
X420278D01*
X416342Y358817D02*
Y356193D01*
Y357505D01*
X415686Y358161D01*
X415030Y358817D01*
X414374D01*
X411751Y356193D02*
X410439D01*
X409783Y356849D01*
Y358161D01*
X410439Y358817D01*
X411751D01*
X412406Y358161D01*
Y356849D01*
X411751Y356193D01*
X408471Y354881D02*
X407815D01*
X407159Y355537D01*
Y358817D01*
X402567Y356193D02*
X403879D01*
X404535Y356849D01*
Y358161D01*
X403879Y358817D01*
X402567D01*
X401911Y358161D01*
Y357505D01*
X404535D01*
X399943Y359473D02*
Y358817D01*
X400599D01*
X399287D01*
X399943D01*
Y356849D01*
X399287Y356193D01*
X396664D02*
X395352D01*
X394696Y356849D01*
Y358161D01*
X395352Y358817D01*
X396664D01*
X397320Y358161D01*
Y356849D01*
X396664Y356193D01*
X386824Y360129D02*
Y356193D01*
X388792D01*
X389448Y356849D01*
Y358161D01*
X388792Y358817D01*
X386824D01*
X383544Y356193D02*
X384856D01*
X385512Y356849D01*
Y358161D01*
X384856Y358817D01*
X383544D01*
X382889Y358161D01*
Y357505D01*
X385512D01*
X381577Y358817D02*
X380921D01*
Y358161D01*
X381577D01*
Y358817D01*
Y356849D02*
X380921D01*
Y356193D01*
X381577D01*
Y356849D01*
X371737Y359473D02*
X372393Y360129D01*
X373705D01*
X374361Y359473D01*
Y356849D01*
X373705Y356193D01*
X372393D01*
X371737Y356849D01*
Y358161D01*
X373049D01*
X370425Y358817D02*
Y356849D01*
X369769Y356193D01*
X367801D01*
Y358817D01*
X366490Y356193D02*
X365178D01*
X365834D01*
Y358817D01*
X366490D01*
X363210Y356193D02*
X361898D01*
X362554D01*
Y360129D01*
X363210D01*
X359930D02*
Y356193D01*
Y358161D01*
X359274Y358817D01*
X357962D01*
X357306Y358161D01*
Y356193D01*
X354026D02*
X355338D01*
X355994Y356849D01*
Y358161D01*
X355338Y358817D01*
X354026D01*
X353370Y358161D01*
Y357505D01*
X355994D01*
X352059Y358817D02*
Y356193D01*
Y357505D01*
X351403Y358161D01*
X350747Y358817D01*
X350091D01*
X348123Y356193D02*
Y358817D01*
X347467D01*
X346811Y358161D01*
Y356193D01*
Y358161D01*
X346155Y358817D01*
X345499Y358161D01*
Y356193D01*
X342219D02*
X343531D01*
X344187Y356849D01*
Y358161D01*
X343531Y358817D01*
X342219D01*
X341563Y358161D01*
Y357505D01*
X344187D01*
X333692Y359473D02*
X334348Y360129D01*
X335660D01*
X336316Y359473D01*
Y356849D01*
X335660Y356193D01*
X334348D01*
X333692Y356849D01*
X331724Y358817D02*
X330412D01*
X329756Y358161D01*
Y356193D01*
X331724D01*
X332380Y356849D01*
X331724Y357505D01*
X329756D01*
X328444Y356193D02*
Y358817D01*
X326476D01*
X325820Y358161D01*
Y356193D01*
X321884Y360129D02*
Y356193D01*
X323852D01*
X324508Y356849D01*
Y358161D01*
X323852Y358817D01*
X321884D01*
X320573Y356193D02*
X319261D01*
X319917D01*
Y358817D01*
X320573D01*
X314669Y360129D02*
Y356193D01*
X316637D01*
X317293Y356849D01*
Y358161D01*
X316637Y358817D01*
X314669D01*
X312701Y356193D02*
X311389D01*
X310733Y356849D01*
Y358161D01*
X311389Y358817D01*
X312701D01*
X313357Y358161D01*
Y356849D01*
X312701Y356193D01*
X420278Y336134D02*
Y332198D01*
X418310D01*
X417654Y332854D01*
Y335478D01*
X418310Y336134D01*
X420278D01*
X415686Y332198D02*
X414374D01*
X413718Y332854D01*
Y334166D01*
X414374Y334822D01*
X415686D01*
X416342Y334166D01*
Y332854D01*
X415686Y332198D01*
X412406Y334822D02*
Y332854D01*
X411751Y332198D01*
X409783D01*
Y334822D01*
X407815Y335478D02*
Y334822D01*
X408471D01*
X407159D01*
X407815D01*
Y332854D01*
X407159Y332198D01*
X404535D02*
X403223D01*
X402567Y332854D01*
Y334166D01*
X403223Y334822D01*
X404535D01*
X405191Y334166D01*
Y332854D01*
X404535Y332198D01*
X401255Y334822D02*
Y332198D01*
Y333510D01*
X400599Y334166D01*
X399943Y334822D01*
X399287D01*
X396664D02*
X395352D01*
X394696Y334166D01*
Y332198D01*
X396664D01*
X397320Y332854D01*
X396664Y333510D01*
X394696D01*
X389448Y332198D02*
Y336134D01*
X386824Y332198D01*
Y336134D01*
X384856Y334822D02*
X383544D01*
X382889Y334166D01*
Y332198D01*
X384856D01*
X385512Y332854D01*
X384856Y333510D01*
X382889D01*
X380921Y335478D02*
Y334822D01*
X381577D01*
X380265D01*
X380921D01*
Y332854D01*
X380265Y332198D01*
X377641Y334822D02*
X376329D01*
X375673Y334166D01*
Y332198D01*
X377641D01*
X378297Y332854D01*
X377641Y333510D01*
X375673D01*
X374361Y332198D02*
X373049D01*
X373705D01*
Y336134D01*
X374361D01*
X371081Y332198D02*
X369769D01*
X370425D01*
Y334822D01*
X371081D01*
X367145D02*
X365834D01*
X365178Y334166D01*
Y332198D01*
X367145D01*
X367801Y332854D01*
X367145Y333510D01*
X365178D01*
X357306Y335478D02*
X357962Y336134D01*
X359274D01*
X359930Y335478D01*
Y332854D01*
X359274Y332198D01*
X357962D01*
X357306Y332854D01*
Y334166D01*
X358618D01*
X355338Y334822D02*
X354026D01*
X353370Y334166D01*
Y332198D01*
X355338D01*
X355994Y332854D01*
X355338Y333510D01*
X353370D01*
X352059Y332198D02*
Y334822D01*
X351403D01*
X350747Y334166D01*
Y332198D01*
Y334166D01*
X350091Y334822D01*
X349435Y334166D01*
Y332198D01*
X346155D02*
X347467D01*
X348123Y332854D01*
Y334166D01*
X347467Y334822D01*
X346155D01*
X345499Y334166D01*
Y333510D01*
X348123D01*
X344187Y332198D02*
X342875D01*
X343531D01*
Y334822D01*
X344187D01*
X340907D02*
Y332198D01*
Y333510D01*
X340251Y334166D01*
X339595Y334822D01*
X338939D01*
X336316Y332198D02*
X335004D01*
X334348Y332854D01*
Y334166D01*
X335004Y334822D01*
X336316D01*
X336971Y334166D01*
Y332854D01*
X336316Y332198D01*
X420278Y344132D02*
Y340197D01*
X418310D01*
X417654Y340852D01*
Y343476D01*
X418310Y344132D01*
X420278D01*
X415686Y340197D02*
X414374D01*
X413718Y340852D01*
Y342164D01*
X414374Y342820D01*
X415686D01*
X416342Y342164D01*
Y340852D01*
X415686Y340197D01*
X412406Y342820D02*
Y340852D01*
X411751Y340197D01*
X409783D01*
Y342820D01*
X407815Y343476D02*
Y342820D01*
X408471D01*
X407159D01*
X407815D01*
Y340852D01*
X407159Y340197D01*
X404535D02*
X403223D01*
X402567Y340852D01*
Y342164D01*
X403223Y342820D01*
X404535D01*
X405191Y342164D01*
Y340852D01*
X404535Y340197D01*
X401255Y342820D02*
Y340197D01*
Y341509D01*
X400599Y342164D01*
X399943Y342820D01*
X399287D01*
X393384Y344132D02*
Y340197D01*
X390760D01*
X389448Y342820D02*
Y340852D01*
X388792Y340197D01*
X386824D01*
Y342820D01*
X385512Y340197D02*
X384200D01*
X384856D01*
Y342820D01*
X385512D01*
X382232Y340197D02*
X380265D01*
X379609Y340852D01*
X380265Y341509D01*
X381577D01*
X382232Y342164D01*
X381577Y342820D01*
X379609D01*
X374361Y340197D02*
Y344132D01*
X371737Y340197D01*
Y344132D01*
X368457Y340197D02*
X369769D01*
X370425Y340852D01*
Y342164D01*
X369769Y342820D01*
X368457D01*
X367801Y342164D01*
Y341509D01*
X370425D01*
X366490Y342820D02*
X365178Y340197D01*
X363866Y342820D01*
X360586Y340197D02*
X361898D01*
X362554Y340852D01*
Y342164D01*
X361898Y342820D01*
X360586D01*
X359930Y342164D01*
Y341509D01*
X362554D01*
X358618Y340197D02*
X356650D01*
X355994Y340852D01*
X356650Y341509D01*
X357962D01*
X358618Y342164D01*
X357962Y342820D01*
X355994D01*
X420278Y382812D02*
Y386748D01*
X418310D01*
X417654Y386092D01*
Y384780D01*
X418310Y384124D01*
X420278D01*
X416342Y385436D02*
Y382812D01*
Y384124D01*
X415686Y384780D01*
X415030Y385436D01*
X414374D01*
X411751Y382812D02*
X410439D01*
X409783Y383468D01*
Y384780D01*
X410439Y385436D01*
X411751D01*
X412406Y384780D01*
Y383468D01*
X411751Y382812D01*
X408471Y381500D02*
X407815D01*
X407159Y382156D01*
Y385436D01*
X402567Y382812D02*
X403879D01*
X404535Y383468D01*
Y384780D01*
X403879Y385436D01*
X402567D01*
X401911Y384780D01*
Y384124D01*
X404535D01*
X399943Y386092D02*
Y385436D01*
X400599D01*
X399287D01*
X399943D01*
Y383468D01*
X399287Y382812D01*
X396664D02*
X395352D01*
X394696Y383468D01*
Y384780D01*
X395352Y385436D01*
X396664D01*
X397320Y384780D01*
Y383468D01*
X396664Y382812D01*
X386824Y386748D02*
X389448D01*
Y384780D01*
X388136D01*
X389448D01*
Y382812D01*
X385512D02*
X384200D01*
X384856D01*
Y385436D01*
X385512D01*
X382232Y382812D02*
Y385436D01*
X380265D01*
X379609Y384780D01*
Y382812D01*
X377641Y385436D02*
X376329D01*
X375673Y384780D01*
Y382812D01*
X377641D01*
X378297Y383468D01*
X377641Y384124D01*
X375673D01*
X374361Y382812D02*
X373049D01*
X373705D01*
Y386748D01*
X374361D01*
X364522D02*
Y382812D01*
X366490D01*
X367145Y383468D01*
Y384780D01*
X366490Y385436D01*
X364522D01*
X361242Y382812D02*
X362554D01*
X363210Y383468D01*
Y384780D01*
X362554Y385436D01*
X361242D01*
X360586Y384780D01*
Y384124D01*
X363210D01*
X352714Y386092D02*
X353370Y386748D01*
X354682D01*
X355338Y386092D01*
Y383468D01*
X354682Y382812D01*
X353370D01*
X352714Y383468D01*
X351403Y385436D02*
Y383468D01*
X350747Y382812D01*
X348779D01*
Y385436D01*
X347467D02*
Y382812D01*
Y384124D01*
X346811Y384780D01*
X346155Y385436D01*
X345499D01*
X343531Y382812D02*
X341563D01*
X340907Y383468D01*
X341563Y384124D01*
X342875D01*
X343531Y384780D01*
X342875Y385436D01*
X340907D01*
X338939Y382812D02*
X337628D01*
X336971Y383468D01*
Y384780D01*
X337628Y385436D01*
X338939D01*
X339595Y384780D01*
Y383468D01*
X338939Y382812D01*
X417654Y368783D02*
X418310Y369439D01*
X419622D01*
X420278Y368783D01*
Y366159D01*
X419622Y365503D01*
X418310D01*
X417654Y366159D01*
X415686Y365503D02*
X414374D01*
X413718Y366159D01*
Y367471D01*
X414374Y368127D01*
X415686D01*
X416342Y367471D01*
Y366159D01*
X415686Y365503D01*
X412406D02*
Y368127D01*
X410439D01*
X409783Y367471D01*
Y365503D01*
X408471Y368127D02*
X407159Y365503D01*
X405847Y368127D01*
X402567Y365503D02*
X403879D01*
X404535Y366159D01*
Y367471D01*
X403879Y368127D01*
X402567D01*
X401911Y367471D01*
Y366815D01*
X404535D01*
X400599Y368127D02*
Y365503D01*
Y366815D01*
X399943Y367471D01*
X399287Y368127D01*
X398631D01*
X396664Y365503D02*
X394696D01*
X394040Y366159D01*
X394696Y366815D01*
X396008D01*
X396664Y367471D01*
X396008Y368127D01*
X394040D01*
X392072Y365503D02*
X390760D01*
X390104Y366159D01*
Y367471D01*
X390760Y368127D01*
X392072D01*
X392728Y367471D01*
Y366159D01*
X392072Y365503D01*
X388792Y368127D02*
Y365503D01*
Y366815D01*
X388136Y367471D01*
X387480Y368127D01*
X386824D01*
X380921Y369439D02*
Y365503D01*
X378953D01*
X378297Y366159D01*
Y366815D01*
X378953Y367471D01*
X380921D01*
X378953D01*
X378297Y368127D01*
Y368783D01*
X378953Y369439D01*
X380921D01*
X376985Y365503D02*
X375673D01*
X376329D01*
Y368127D01*
X376985D01*
X373705Y367471D02*
X371081D01*
X369769Y369439D02*
Y365503D01*
X367801D01*
X367145Y366159D01*
Y368783D01*
X367801Y369439D01*
X369769D01*
X365834Y365503D02*
X364522D01*
X365178D01*
Y368127D01*
X365834D01*
X362554D02*
Y365503D01*
Y366815D01*
X361898Y367471D01*
X361242Y368127D01*
X360586D01*
X356650Y365503D02*
X357962D01*
X358618Y366159D01*
Y367471D01*
X357962Y368127D01*
X356650D01*
X355994Y367471D01*
Y366815D01*
X358618D01*
X352059Y368127D02*
X354026D01*
X354682Y367471D01*
Y366159D01*
X354026Y365503D01*
X352059D01*
X350747D02*
X349435D01*
X350091D01*
Y368127D01*
X350747D01*
X346811Y365503D02*
X345499D01*
X344843Y366159D01*
Y367471D01*
X345499Y368127D01*
X346811D01*
X347467Y367471D01*
Y366159D01*
X346811Y365503D01*
X343531D02*
Y368127D01*
X341563D01*
X340907Y367471D01*
Y365503D01*
X338939Y368127D02*
X337628D01*
X336971Y367471D01*
Y365503D01*
X338939D01*
X339595Y366159D01*
X338939Y366815D01*
X336971D01*
X335660Y365503D02*
X334348D01*
X335004D01*
Y369439D01*
X335660D01*
X328444Y367471D02*
X325820D01*
X320573Y369439D02*
Y365503D01*
X318605D01*
X317949Y366159D01*
Y368783D01*
X318605Y369439D01*
X320573D01*
X314013Y368783D02*
X314669Y369439D01*
X315981D01*
X316637Y368783D01*
Y366159D01*
X315981Y365503D01*
X314669D01*
X314013Y366159D01*
X312701Y367471D02*
X310077D01*
X308765Y369439D02*
Y365503D01*
X306798D01*
X306142Y366159D01*
Y368783D01*
X306798Y369439D01*
X308765D01*
X302206Y368783D02*
X302862Y369439D01*
X304174D01*
X304830Y368783D01*
Y366159D01*
X304174Y365503D01*
X302862D01*
X302206Y366159D01*
X295876Y365500D02*
X298500D01*
X295876Y368124D01*
Y368780D01*
X296532Y369436D01*
X297844D01*
X298500Y368780D01*
X294564D02*
X293908Y369436D01*
X292596D01*
X291940Y368780D01*
Y366156D01*
X292596Y365500D01*
X293908D01*
X294564Y366156D01*
Y368780D01*
X288005Y365500D02*
X290629D01*
X288005Y368124D01*
Y368780D01*
X288661Y369436D01*
X289973D01*
X290629Y368780D01*
X284725Y365500D02*
Y369436D01*
X286693Y367468D01*
X284069D01*
X145780Y478624D02*
X146436Y477968D01*
Y476656D01*
X145780Y476000D01*
X143156D01*
X142500Y476656D01*
Y477968D01*
X143156Y478624D01*
X144468D01*
Y477312D01*
X142500Y479936D02*
X146436D01*
X142500Y482560D01*
X146436D01*
Y483872D02*
X142500D01*
Y485839D01*
X143156Y486495D01*
X145780D01*
X146436Y485839D01*
Y483872D01*
X119592Y450500D02*
X115656D01*
Y452468D01*
X116312Y453124D01*
X116968D01*
X117624Y452468D01*
Y450500D01*
Y452468D01*
X118280Y453124D01*
X118936D01*
X119592Y452468D01*
Y450500D01*
Y456404D02*
Y455092D01*
X118936Y454436D01*
X116312D01*
X115656Y455092D01*
Y456404D01*
X116312Y457060D01*
X118936D01*
X119592Y456404D01*
Y460339D02*
Y459027D01*
X118936Y458371D01*
X116312D01*
X115656Y459027D01*
Y460339D01*
X116312Y460995D01*
X118936D01*
X119592Y460339D01*
X118936Y464931D02*
X119592Y464275D01*
Y462963D01*
X118936Y462307D01*
X118280D01*
X117624Y462963D01*
Y464275D01*
X116968Y464931D01*
X116312D01*
X115656Y464275D01*
Y462963D01*
X116312Y462307D01*
X119592Y466243D02*
Y468867D01*
Y467555D01*
X115656D01*
X115000Y470179D02*
Y472802D01*
X115656Y474114D02*
X119592D01*
Y476082D01*
X118936Y476738D01*
X117624D01*
X116968Y476082D01*
Y474114D01*
X119592Y478050D02*
X115656D01*
X116968Y479362D01*
X115656Y480674D01*
X119592D01*
X115656Y481986D02*
X119592D01*
X118280Y483298D01*
X119592Y484610D01*
X115656D01*
X115000Y485922D02*
Y488546D01*
X119592Y489857D02*
Y491169D01*
Y490513D01*
X115656D01*
Y489857D01*
Y491169D01*
Y493137D02*
X119592D01*
X115656Y495761D01*
X119592D01*
X131592Y459000D02*
X127656D01*
Y460968D01*
X128312Y461624D01*
X128968D01*
X129624Y460968D01*
Y459000D01*
Y460968D01*
X130280Y461624D01*
X130936D01*
X131592Y460968D01*
Y459000D01*
Y462936D02*
X128312D01*
X127656Y463592D01*
Y464904D01*
X128312Y465560D01*
X131592D01*
X130936Y469495D02*
X131592Y468839D01*
Y467527D01*
X130936Y466872D01*
X128312D01*
X127656Y467527D01*
Y468839D01*
X128312Y469495D01*
X131592Y470807D02*
X127656D01*
X128968D01*
X131592Y473431D01*
X129624Y471463D01*
X127656Y473431D01*
X127000Y474743D02*
Y477367D01*
X127656Y478679D02*
X131592D01*
Y480647D01*
X130936Y481302D01*
X129624D01*
X128968Y480647D01*
Y478679D01*
X131592Y482614D02*
X127656D01*
X128968Y483926D01*
X127656Y485238D01*
X131592D01*
X127656Y486550D02*
X131592D01*
X130280Y487862D01*
X131592Y489174D01*
X127656D01*
X127000Y490486D02*
Y493110D01*
X131592Y494422D02*
Y495734D01*
Y495078D01*
X127656D01*
Y494422D01*
Y495734D01*
Y497701D02*
X131592D01*
X127656Y500325D01*
X131592D01*
X154468Y468000D02*
Y470624D01*
X155780Y469312D02*
X153156D01*
X155780Y471936D02*
X156436Y472592D01*
Y473904D01*
X155780Y474560D01*
X155124D01*
X154468Y473904D01*
Y473248D01*
Y473904D01*
X153812Y474560D01*
X153156D01*
X152500Y473904D01*
Y472592D01*
X153156Y471936D01*
X152500Y475872D02*
X153156D01*
Y476527D01*
X152500D01*
Y475872D01*
X155780Y479151D02*
X156436Y479807D01*
Y481119D01*
X155780Y481775D01*
X155124D01*
X154468Y481119D01*
Y480463D01*
Y481119D01*
X153812Y481775D01*
X153156D01*
X152500Y481119D01*
Y479807D01*
X153156Y479151D01*
X156436Y483087D02*
X153812D01*
X152500Y484399D01*
X153812Y485711D01*
X156436D01*
X179968Y471000D02*
Y473624D01*
X181280Y472312D02*
X178656D01*
X178000Y477560D02*
Y474936D01*
X180624Y477560D01*
X181280D01*
X181936Y476904D01*
Y475592D01*
X181280Y474936D01*
X178000Y480839D02*
X181936D01*
X179968Y478871D01*
Y481495D01*
X181936Y482807D02*
X179312D01*
X178000Y484119D01*
X179312Y485431D01*
X181936D01*
X171528Y478624D02*
X172184Y477968D01*
Y476656D01*
X171528Y476000D01*
X168904D01*
X168248Y476656D01*
Y477968D01*
X168904Y478624D01*
X170216D01*
Y477312D01*
X168248Y479936D02*
X172184D01*
X168248Y482560D01*
X172184D01*
Y483872D02*
X168248D01*
Y485839D01*
X168904Y486495D01*
X171528D01*
X172184Y485839D01*
Y483872D01*
X174500Y520968D02*
X171876D01*
X173188Y522280D02*
Y519656D01*
X167940Y522936D02*
X170564D01*
Y520968D01*
X169252Y521624D01*
X168596D01*
X167940Y520968D01*
Y519656D01*
X168596Y519000D01*
X169908D01*
X170564Y519656D01*
X166629Y522936D02*
Y520312D01*
X165317Y519000D01*
X164005Y520312D01*
Y522936D01*
X164500Y510500D02*
Y514436D01*
X161876Y510500D01*
Y514436D01*
X157940Y513780D02*
X158596Y514436D01*
X159908D01*
X160564Y513780D01*
Y511156D01*
X159908Y510500D01*
X158596D01*
X157940Y511156D01*
X194468Y464500D02*
Y467124D01*
X195780Y465812D02*
X193156D01*
X192500Y468436D02*
Y469748D01*
Y469092D01*
X196436D01*
X195780Y468436D01*
X192500Y474339D02*
Y471715D01*
X195124Y474339D01*
X195780D01*
X196436Y473683D01*
Y472371D01*
X195780Y471715D01*
X196436Y475651D02*
X193812D01*
X192500Y476963D01*
X193812Y478275D01*
X196436D01*
X195780Y486147D02*
X196436Y485491D01*
Y484179D01*
X195780Y483523D01*
X195124D01*
X194468Y484179D01*
Y485491D01*
X193812Y486147D01*
X193156D01*
X192500Y485491D01*
Y484179D01*
X193156Y483523D01*
X204468Y461500D02*
Y464124D01*
X205780Y462812D02*
X203156D01*
X202500Y465436D02*
Y466748D01*
Y466092D01*
X206436D01*
X205780Y465436D01*
X202500Y471339D02*
Y468715D01*
X205124Y471339D01*
X205780D01*
X206436Y470683D01*
Y469372D01*
X205780Y468715D01*
X206436Y472651D02*
X203812D01*
X202500Y473963D01*
X203812Y475275D01*
X206436D01*
X205780Y483147D02*
X206436Y482491D01*
Y481179D01*
X205780Y480523D01*
X203156D01*
X202500Y481179D01*
Y482491D01*
X203156Y483147D01*
X205780Y487082D02*
X206436Y486426D01*
Y485114D01*
X205780Y484458D01*
X205124D01*
X204468Y485114D01*
Y486426D01*
X203812Y487082D01*
X203156D01*
X202500Y486426D01*
Y485114D01*
X203156Y484458D01*
X200500Y512468D02*
X197876D01*
X199188Y513780D02*
Y511156D01*
X193940Y510500D02*
X196564D01*
X193940Y513124D01*
Y513780D01*
X194596Y514436D01*
X195908D01*
X196564Y513780D01*
X190661Y510500D02*
Y514436D01*
X192629Y512468D01*
X190005D01*
X182133Y513780D02*
X182789Y514436D01*
X184101D01*
X184757Y513780D01*
Y511156D01*
X184101Y510500D01*
X182789D01*
X182133Y511156D01*
X178198Y513780D02*
X178853Y514436D01*
X180165D01*
X180821Y513780D01*
Y513124D01*
X180165Y512468D01*
X178853D01*
X178198Y511812D01*
Y511156D01*
X178853Y510500D01*
X180165D01*
X180821Y511156D01*
X203000Y520968D02*
X200376D01*
X201688Y522280D02*
Y519656D01*
X196440Y519000D02*
X199064D01*
X196440Y521624D01*
Y522280D01*
X197096Y522936D01*
X198408D01*
X199064Y522280D01*
X193161Y519000D02*
Y522936D01*
X195129Y520968D01*
X192505D01*
X191193Y522936D02*
Y520312D01*
X189881Y519000D01*
X188569Y520312D01*
Y522936D01*
X180698Y522280D02*
X181353Y522936D01*
X182665D01*
X183321Y522280D01*
Y521624D01*
X182665Y520968D01*
X181353D01*
X180698Y520312D01*
Y519656D01*
X181353Y519000D01*
X182665D01*
X183321Y519656D01*
M02*
